<svg fill="none" height="244" viewBox="0 0 310 244" width="310" xmlns="http://www.w3.org/2000/svg" xmlns:xlink="http://www.w3.org/1999/xlink"><linearGradient id="a" gradientUnits="userSpaceOnUse" x1="248" x2="18.4329" y1=".000019" y2="174.477"><stop offset="0" stop-color="#dff2ff"/><stop offset="1" stop-color="#eae5f0"/></linearGradient><clipPath id="b"><path d="m249.385 112.908h10.8345v10.8055h-10.8345z"/></clipPath><clipPath id="c"><path d="m249.385 137.963h10.8345v10.8055h-10.8345z"/></clipPath><mask id="d" height="244" maskUnits="userSpaceOnUse" width="310" x="0" y="0"><path d="m0 0h310v244h-310z" fill="url(#a)"/></mask><path d="m0 0h310v244h-310z" fill="url(#a)"/><g mask="url(#d)"><path d="m386.74 259.288h.325v-.325-221.2303c0-3.0232-2.45-5.474-5.474-5.474h-343.0104c-3.0232 0-5.474 2.4508-5.474 5.474v221.2303.325h.325z" fill="#fff" stroke="#202323" stroke-width=".65"/><path d="m386.74 37.7327c0-2.8437-2.305-5.149-5.149-5.149h-171.021v226.3793h176.17z" fill="#3a68ce"/><path d="m270.582 185.293h81.309" stroke="#fcfcfc" stroke-opacity=".2" stroke-width=".440753"/><path d="m270.582 157.78h81.309" stroke="#fcfcfc" stroke-opacity=".2" stroke-width=".440753"/><g fill="#fcfcfc"><path d="m270.49 110.634c0-.837.679-1.516 1.516-1.516h93.464c.837 0 1.515.679 1.515 1.516 0 .837-.678 1.515-1.515 1.515h-93.464c-.837 0-1.516-.678-1.516-1.515z" fill-opacity=".2"/><path d="m270.49 135.689c0-.838.679-1.516 1.516-1.516h93.464c.837 0 1.515.678 1.515 1.516 0 .837-.678 1.515-1.515 1.515h-93.464c-.837 0-1.516-.678-1.516-1.515z" fill-opacity=".2"/><path d="m270.49 122c0-.837.679-1.516 1.516-1.516h11.405c.837 0 1.516.679 1.516 1.516 0 .837-.679 1.516-1.516 1.516h-11.405c-.837 0-1.516-.679-1.516-1.516z" fill-opacity=".2"/><path d="m270.49 147.055c0-.837.679-1.516 1.516-1.516h11.405c.837 0 1.516.679 1.516 1.516 0 .837-.679 1.515-1.516 1.515h-11.405c-.837 0-1.516-.678-1.516-1.515z" fill-opacity=".2"/><path d="m245.416 89.4162c0-.837.679-1.5156 1.516-1.5156h28.12c.837 0 1.516.6786 1.516 1.5156 0 .837-.679 1.5155-1.516 1.5155h-28.12c-.837 0-1.516-.6785-1.516-1.5155z" fill-opacity=".2"/><path d="m270.49 165.858c0-.837.679-1.516 1.516-1.516h16.724c.837 0 1.515.679 1.515 1.516 0 .837-.678 1.515-1.515 1.515h-16.724c-.837 0-1.516-.678-1.516-1.515z" fill-opacity=".2"/><path d="m270.49 177.982c0-.837.679-1.515 1.516-1.515h6.086c.837 0 1.516.678 1.516 1.515 0 .837-.679 1.516-1.516 1.516h-6.086c-.837 0-1.516-.679-1.516-1.516z" fill-opacity=".2"/><path d="m270.49 191.622c0-.837.679-1.516 1.516-1.516h22.042c.837 0 1.516.679 1.516 1.516 0 .837-.679 1.515-1.516 1.515h-22.042c-.837 0-1.516-.678-1.516-1.515z" fill-opacity=".2"/></g><path d="m245.412 108.945h18.4187v18.3693h-18.4187z" fill="#d9d9d9"/><path d="m245 109h19v19h-19z" fill="#d5e2ff"/><g clip-path="url(#b)"><path d="m250.8 122.324c-.874-1.005-1.355-2.293-1.355-3.625 0-3.153 2.263-5.53 5.264-5.53 3.055 0 5.449 2.421 5.449 5.512 0 1.299-.447 2.407-1.406 3.488l-.531-.468c.837-.944 1.228-1.904 1.228-3.02 0-2.694-2.082-4.805-4.74-4.805-2.596 0-4.555 2.073-4.555 4.823 0 1.162.42 2.285 1.182 3.162z" fill="#0e1414" fill-opacity=".6"/><path d="m251.744 118.326c.683 0 1.241.557 1.241 1.238v2.911c0 .681-.558 1.238-1.241 1.238" fill="#f44f7e"/><path d="m251.1 123.713h.675v-5.387h-.585c-.05 0-.09.041-.09.091z" fill="#0e1414"/><path d="m251.094 122.511h-.661c-.051 0-.091-.04-.091-.09v-2.796c0-.05.04-.091.091-.091h.661z" fill="#3a68ce"/><path d="m257.839 118.326c-.683 0-1.241.557-1.241 1.238v2.911c0 .681.558 1.238 1.241 1.238" fill="#f44f7e"/><path d="m258.397 123.713h-.585v-5.387h.585c.05 0 .091.041.091.091v5.206c0 .05-.041.09-.091.09z" fill="#0e1414"/><path d="m258.49 122.511h.662c.05 0 .091-.04.091-.09v-2.796c0-.05-.041-.091-.091-.091h-.662z" fill="#3a68ce"/><path d="m259.617 115.613c-1.014-1.674-2.836-2.705-4.805-2.705-1.998 0-3.829 1.032-4.828 2.708-.057.095-.02.219.077.272l.828.451c.094.051.209.017.265-.074.763-1.253 2.147-2.023 3.658-2.023 1.487 0 2.864.772 3.641 2.028.056.091.171.124.265.072l.824-.457c.097-.054.133-.178.075-.272z" fill="#0e1414"/></g><path d="m245.412 134h18.4187v18.3693h-18.4187z" fill="#d5e2ff"/><g clip-path="url(#c)"><path d="m250.8 147.379c-.874-1.005-1.355-2.293-1.355-3.625 0-3.153 2.263-5.53 5.264-5.53 3.055 0 5.449 2.421 5.449 5.512 0 1.299-.447 2.407-1.406 3.488l-.531-.468c.837-.944 1.228-1.904 1.228-3.02 0-2.694-2.082-4.805-4.74-4.805-2.596 0-4.555 2.073-4.555 4.823 0 1.162.42 2.285 1.182 3.162z" fill="#0e1414" fill-opacity=".6"/><path d="m251.744 143.381c.683 0 1.241.557 1.241 1.238v2.911c0 .681-.558 1.238-1.241 1.238" fill="#f44f7e"/><path d="m251.1 148.768h.675v-5.387h-.585c-.05 0-.09.041-.09.091z" fill="#0e1414"/><path d="m251.094 147.566h-.661c-.051 0-.091-.04-.091-.09v-2.796c0-.05.04-.091.091-.091h.661z" fill="#3a68ce"/><path d="m257.839 143.381c-.683 0-1.241.557-1.241 1.238v2.911c0 .681.558 1.238 1.241 1.238" fill="#f44f7e"/><path d="m258.397 148.768h-.585v-5.387h.585c.05 0 .091.041.091.091v5.206c0 .05-.041.09-.091.09z" fill="#0e1414"/><path d="m258.49 147.566h.662c.05 0 .091-.04.091-.09v-2.796c0-.05-.041-.091-.091-.091h-.662z" fill="#3a68ce"/><path d="m259.617 140.667c-1.014-1.673-2.836-2.704-4.805-2.704-1.998 0-3.829 1.032-4.828 2.708-.057.095-.02.219.077.272l.828.451c.094.051.209.017.265-.074.763-1.253 2.147-2.023 3.658-2.023 1.487 0 2.864.772 3.641 2.028.056.091.171.124.265.072l.824-.457c.097-.054.133-.178.075-.273z" fill="#0e1414"/></g><path d="m245 134h19v19h-19z" fill="#d5e2ff"/><path d="m252.053 142.12v-1.496c0-1.298 1.052-2.35 2.35-2.35 1.298 0 2.351 1.052 2.351 2.35v1.496" stroke="#5d6672" stroke-width=".8"/><path clip-rule="evenodd" d="m250.982 142.62c0-.276.224-.5.5-.5h5.838c.276 0 .5.224.5.5v5.41c0 .277-.224.5-.5.5h-5.838c-.276 0-.5-.223-.5-.5zm3.42.782c-.473 0-.855.382-.855.855 0 .334.191.623.47.763v1.374h.769v-1.373c.279-.141.47-.43.47-.764 0-.473-.381-.855-.854-.855z" fill="#0e1414" fill-rule="evenodd"/><path d="m250.984 147.676v.355c0 .276.224.5.5.5h5.838c.276 0 .5-.224.5-.5v-.355z" fill="#f44f7e"/><path d="m248.473 81.2582c-.516-.0705-1-.2115-1.454-.4231-.45-.2116-.833-.4738-1.151-.7867l.503-.7471c.044-.0661.101-.119.172-.1587.075-.0441.152-.0661.231-.0661.097 0 .201.0353.311.1058.11.0661.236.1454.377.238s.302.1851.482.2777c.181.0925.395.1608.642.2049l.251-2.9618c-.313-.0882-.624-.1918-.932-.3108-.305-.119-.58-.2754-.827-.4694-.242-.1983-.438-.4473-.588-.7471-.15-.2997-.225-.6743-.225-1.1239 0-.3349.066-.6611.198-.9784.137-.3218.333-.6083.589-.8595.255-.2512.57-.4584.945-.6215.375-.163.804-.2556 1.289-.2776l.073-.8331c.009-.1057.053-.2005.132-.2843.08-.0837.183-.1256.311-.1256h.602l-.113 1.3025c.467.0749.871.2071 1.21.3966.339.1896.635.4033.886.6413l-.397.6017c-.061.0881-.123.1542-.185.1983-.061.0441-.136.0661-.225.0661-.066 0-.145-.0198-.238-.0595-.088-.0441-.191-.0948-.31-.1521-.115-.0617-.243-.1234-.384-.1851s-.297-.1124-.469-.152l-.232 2.737c.318.097.631.205.939.324.313.1146.593.2645.84.4496.251.1851.454.4165.608.6942.154.2732.232.617.232 1.0313 0 .4099-.069.7956-.205 1.157-.137.357-.338.6743-.602.952-.26.2733-.582.4959-.965.6678-.384.1719-.822.2754-1.316.3107l-.079.9718c-.009.1014-.053.194-.133.2777-.079.0882-.182.1322-.31.1322h-.602zm2.545-2.8032c0-.1674-.03-.3129-.092-.4363-.057-.1278-.141-.2402-.251-.3372-.106-.0969-.232-.1807-.377-.2512-.146-.0705-.304-.1344-.476-.1917l-.225 2.6842c.467-.0618.82-.2182 1.058-.4695.242-.2556.363-.5884.363-.9983zm-3.213-4.3237c0 .1674.029.3151.086.4429.058.1278.137.2424.238.3438.106.097.23.1851.371.2645.141.0749.295.1432.462.2049l.205-2.4462c-.242.0309-.449.0838-.621.1587-.172.0705-.313.1587-.423.2644-.11.1058-.192.2248-.245.3571-.048.1278-.073.2644-.073.4099zm9.409-2.5983c.441 0 .838.0639 1.19.1917.357.1235.661.2976.913.5223.251.2204.443.4805.575.7802.137.2997.205.6236.205.9718 0 .3042-.035.573-.106.8066-.066.2292-.165.4297-.297.6016-.128.1719-.287.3174-.476.4364-.186.119-.397.2182-.635.2975.573.1807 1 .4562 1.282.8264.283.3702.424.8352.424 1.395 0 .476-.089.8969-.265 1.2627-.176.3659-.414.6744-.714.9256-.3.2468-.648.4342-1.045.562-.392.1278-.808.1917-1.249.1917-.48 0-.899-.0551-1.256-.1653s-.668-.2732-.932-.4892c-.265-.216-.49-.4804-.675-.7934-.185-.3129-.344-.6743-.476-1.0842l.721-.2975c.123-.0529.249-.0794.377-.0794.114 0 .216.0243.304.0728.092.0484.163.119.211.2115.08.1543.166.3064.258.4562.097.1499.212.2843.344.4033.132.1146.287.2094.463.2843.181.0705.394.1058.641.1058.278 0 .52-.0441.727-.1323.208-.0925.379-.2115.516-.357.141-.1454.245-.3063.311-.4826.07-.1807.106-.3614.106-.5421 0-.2292-.025-.4364-.073-.6215-.049-.1895-.15-.3504-.304-.4826-.155-.1322-.377-.2358-.668-.3107-.287-.075-.672-.1124-1.157-.1124v-1.1636c.401-.0044.734-.0419.998-.1124.265-.0705.474-.1675.628-.2909.159-.1278.269-.2799.331-.4562s.093-.3702.093-.5818c0-.454-.124-.7955-.371-1.0247-.247-.2336-.584-.3504-1.011-.3504-.388 0-.71.1035-.966.3107-.255.2027-.434.465-.535.7867-.053.1675-.126.2887-.218.3637-.093.0705-.214.1057-.364.1057-.07 0-.145-.0066-.225-.0198l-.859-.152c.066-.4584.194-.8595.383-1.2033.19-.3482.426-.6369.708-.8661.286-.2336.612-.4077.978-.5223.37-.119.767-.1785 1.19-.1785zm4.067 8.6608c0-.1234.022-.238.066-.3438.049-.1102.115-.2049.199-.2843.083-.0837.185-.1476.304-.1917.119-.0485.249-.0727.39-.0727.167 0 .313.0308.436.0925.124.0573.227.1389.311.2447.084.1013.145.2203.185.357.04.1322.06.2732.06.4231 0 .2116-.033.4341-.1.6677-.061.2336-.154.4672-.277.7008-.124.2336-.276.4606-.456.681-.181.2204-.388.4231-.622.6082l-.284-.2578c-.079-.0661-.119-.1477-.119-.2446 0-.0353.011-.0749.033-.119.026-.0441.057-.0838.092-.119.049-.0529.108-.119.179-.1984.07-.0749.141-.163.212-.2644.07-.097.134-.205.191-.324.062-.1146.106-.238.132-.3702-.136 0-.262-.0242-.376-.0727-.115-.0529-.214-.1234-.298-.2116-.079-.0881-.143-.1917-.192-.3107-.044-.119-.066-.249-.066-.3901zm6.871-4.9651c.361 0 .712.0595 1.051.1785.344.119.646.2998.906.5422.26.238.469.5355.628.8925s.238.7735.238 1.2495c0 .4452-.082.8639-.245 1.2562-.163.3878-.392.7272-.687 1.0181-.296.2909-.653.5201-1.071.6876-.415.1675-.873.2512-1.375.2512-.512 0-.97-.0815-1.376-.2446-.405-.1631-.751-.3901-1.038-.681-.286-.2953-.506-.6479-.661-1.0578-.15-.4143-.225-.8727-.225-1.3751 0-.4496.091-.9102.272-1.3818.185-.476.469-.9696.852-1.4809l2.281-3.061c.08-.1058.194-.1962.344-.2711.154-.0749.331-.1124.529-.1124h1.454l-2.836 3.4709c-.061.075-.121.1455-.178.2116-.053.0661-.106.1344-.159.2049.185-.0925.383-.1652.595-.2181.216-.0529.45-.0794.701-.0794zm-2.288 2.9685c0 .2645.036.5069.106.7272.075.216.183.4011.324.5554.146.1543.324.2755.536.3636.211.0838.456.1256.733.1256.26 0 .499-.044.714-.1322.221-.0881.408-.2116.562-.3702.159-.1587.283-.3438.371-.5554.088-.2159.132-.4495.132-.7008 0-.2732-.042-.5179-.126-.7338-.083-.2204-.202-.4055-.357-.5554-.154-.1542-.339-.271-.555-.3504-.216-.0793-.454-.119-.714-.119s-.496.0441-.708.1322c-.211.0882-.394.2116-.548.3703-.15.1542-.267.3394-.351.5553-.079.2116-.119.4408-.119.6876zm12.867-1.7784c0 .833-.09 1.558-.271 2.1751-.176.6126-.423 1.1195-.741 1.5206-.313.4011-.685.7008-1.117.8991-.427.1939-.89.2909-1.388.2909s-.961-.097-1.389-.2909c-.423-.1983-.791-.498-1.104-.8991s-.557-.908-.734-1.5206c-.176-.6171-.264-1.3421-.264-2.1751 0-.8375.088-1.5625.264-2.1751.177-.6127.421-1.1196.734-1.5206.313-.4011.681-.6986 1.104-.8926.428-.1983.891-.2975 1.389-.2975s.961.0992 1.388.2975c.432.194.804.4915 1.117.8926.318.401.565.9079.741 1.5206.181.6126.271 1.3376.271 2.1751zm-1.686 0c0-.692-.051-1.265-.152-1.719-.101-.4539-.238-.8154-.41-1.0842-.167-.2689-.361-.4562-.582-.562-.22-.1102-.449-.1653-.687-.1653-.234 0-.461.0551-.681.1653-.216.1058-.408.2931-.575.562-.168.2688-.302.6303-.404 1.0842-.097.454-.145 1.027-.145 1.719 0 .6919.048 1.2649.145 1.7189.102.454.236.8154.404 1.0843.167.2688.359.4583.575.5685.22.1058.447.1587.681.1587.238 0 .467-.0529.687-.1587.221-.1102.415-.2997.582-.5685.172-.2689.309-.6303.41-1.0843s.152-1.027.152-1.7189zm9.356 0c0 .833-.09 1.558-.271 2.1751-.176.6126-.423 1.1195-.74 1.5206-.313.4011-.686.7008-1.118.8991-.427.1939-.89.2909-1.388.2909s-.961-.097-1.388-.2909c-.424-.1983-.792-.498-1.105-.8991s-.557-.908-.733-1.5206c-.177-.6171-.265-1.3421-.265-2.1751 0-.8375.088-1.5625.265-2.1751.176-.6127.42-1.1196.733-1.5206.313-.4011.681-.6986 1.105-.8926.427-.1983.89-.2975 1.388-.2975s.961.0992 1.388.2975c.432.194.805.4915 1.118.8926.317.401.564.9079.74 1.5206.181.6126.271 1.3376.271 2.1751zm-1.686 0c0-.692-.05-1.265-.152-1.719-.101-.4539-.238-.8154-.41-1.0842-.167-.2689-.361-.4562-.582-.562-.22-.1102-.449-.1653-.687-.1653-.234 0-.461.0551-.681.1653-.216.1058-.408.2931-.575.562-.168.2688-.302.6303-.404 1.0842-.097.454-.145 1.027-.145 1.719 0 .6919.048 1.2649.145 1.7189.102.454.236.8154.404 1.0843.167.2688.359.4583.575.5685.22.1058.447.1587.681.1587.238 0 .467-.0529.687-.1587.221-.1102.415-.2997.582-.5685.172-.2689.309-.6303.41-1.0843.102-.454.152-1.027.152-1.7189zm2.5 3.8808c0-.1366.025-.2667.073-.3901.053-.1234.123-.2292.212-.3173.092-.0882.2-.1587.324-.2116.123-.0529.255-.0793.396-.0793.137 0 .267.0264.39.0793.124.0529.229.1234.318.2116.088.0881.158.1939.211.3173s.08.2535.08.3901c0 .141-.027.2733-.08.3967-.053.119-.123.2226-.211.3107-.089.0882-.194.1565-.318.205-.123.0528-.253.0793-.39.0793-.141 0-.273-.0265-.396-.0793-.124-.0485-.232-.1168-.324-.205-.089-.0881-.159-.1917-.212-.3107-.048-.1234-.073-.2557-.073-.3967zm9.826-3.8808c0 .833-.09 1.558-.271 2.1751-.176.6126-.423 1.1195-.74 1.5206-.313.4011-.686.7008-1.118.8991-.427.1939-.89.2909-1.388.2909s-.961-.097-1.388-.2909c-.424-.1983-.792-.498-1.105-.8991-.312-.4011-.557-.908-.733-1.5206-.177-.6171-.265-1.3421-.265-2.1751 0-.8375.088-1.5625.265-2.1751.176-.6127.421-1.1196.733-1.5206.313-.4011.681-.6986 1.105-.8926.427-.1983.89-.2975 1.388-.2975s.961.0992 1.388.2975c.432.194.805.4915 1.118.8926.317.401.564.9079.74 1.5206.181.6126.271 1.3376.271 2.1751zm-1.686 0c0-.692-.05-1.265-.152-1.719-.101-.4539-.238-.8154-.41-1.0842-.167-.2689-.361-.4562-.581-.562-.221-.1102-.45-.1653-.688-.1653-.234 0-.461.0551-.681.1653-.216.1058-.408.2931-.575.562-.168.2688-.302.6303-.404 1.0842-.096.454-.145 1.027-.145 1.719 0 .6919.049 1.2649.145 1.7189.102.454.236.8154.404 1.0843.167.2688.359.4583.575.5685.22.1058.447.1587.681.1587.238 0 .467-.0529.688-.1587.22-.1102.414-.2997.581-.5685.172-.2689.309-.6303.41-1.0843.102-.454.152-1.027.152-1.7189zm9.356 0c0 .833-.09 1.558-.271 2.1751-.176.6126-.423 1.1195-.74 1.5206-.313.4011-.686.7008-1.118.8991-.427.1939-.89.2909-1.388.2909s-.961-.097-1.388-.2909c-.423-.1983-.791-.498-1.104-.8991s-.558-.908-.734-1.5206c-.177-.6171-.265-1.3421-.265-2.1751 0-.8375.088-1.5625.265-2.1751.176-.6127.421-1.1196.734-1.5206.313-.4011.681-.6986 1.104-.8926.427-.1983.89-.2975 1.388-.2975s.961.0992 1.388.2975c.432.194.805.4915 1.118.8926.317.401.564.9079.74 1.5206.181.6126.271 1.3376.271 2.1751zm-1.686 0c0-.692-.05-1.265-.152-1.719-.101-.4539-.238-.8154-.41-1.0842-.167-.2689-.361-.4562-.581-.562-.221-.1102-.45-.1653-.688-.1653-.234 0-.461.0551-.681.1653-.216.1058-.408.2931-.575.562-.168.2688-.302.6303-.403 1.0842-.097.454-.146 1.027-.146 1.719 0 .6919.049 1.2649.146 1.7189.101.454.235.8154.403 1.0843.167.2688.359.4583.575.5685.22.1058.447.1587.681.1587.238 0 .467-.0529.688-.1587.22-.1102.414-.2997.581-.5685.172-.2689.309-.6303.41-1.0843.102-.454.152-1.027.152-1.7189z" fill="#fcfcfc"/></g><rect fill="#bbbfbf" height="4.54658" opacity=".4" rx="1.87143" width="91.9363" x="82.8184" y="153.826"/><rect fill="#bbbfbf" height="4.54658" opacity=".4" rx="1.87143" width="40.2696" x="82.8184" y="161.404"/><path d="m68.3809 206.824c0-2.067 1.6757-3.743 3.7428-3.743h98.8873c2.067 0 3.742 1.676 3.742 3.743v9.185c0 2.067-1.675 3.743-3.742 3.743h-98.8873c-2.0671 0-3.7428-1.676-3.7428-3.743z" fill="#3a68ce"/><path d="m109.513 212.636c.059 0 .109.023.152.068l.424.46c-.235.291-.524.513-.868.668-.341.155-.752.232-1.232.232-.429 0-.816-.073-1.16-.22-.341-.147-.633-.351-.876-.612s-.429-.573-.56-.936c-.128-.363-.192-.759-.192-1.188 0-.435.072-.832.216-1.192.144-.363.347-.675.608-.936s.573-.464.936-.608c.365-.147.768-.22 1.208-.22.429 0 .804.069 1.124.208.323.136.599.317.828.544l-.36.5c-.021.032-.049.06-.084.084-.032.024-.077.036-.136.036-.061 0-.124-.024-.188-.072s-.145-.1-.244-.156-.224-.108-.376-.156c-.149-.048-.34-.072-.572-.072-.272 0-.523.048-.752.144-.227.093-.423.228-.588.404-.163.176-.291.391-.384.644-.091.251-.136.533-.136.848 0 .325.045.615.136.868.093.253.219.467.376.64s.343.307.556.4c.213.091.443.136.688.136.147 0 .279-.008.396-.024.12-.016.229-.041.328-.076.101-.035.196-.079.284-.132.091-.056.18-.124.268-.204.027-.024.055-.043.084-.056.029-.016.061-.024.096-.024zm3.087-2.804c.307 0 .584.049.832.148.251.099.464.239.64.42s.312.403.408.664.144.553.144.876c0 .325-.048.619-.144.88s-.232.484-.408.668-.389.325-.64.424c-.248.099-.525.148-.832.148-.306 0-.585-.049-.836-.148-.25-.099-.465-.24-.644-.424-.176-.184-.313-.407-.412-.668-.096-.261-.144-.555-.144-.88 0-.323.048-.615.144-.876.099-.261.236-.483.412-.664.179-.181.394-.321.644-.42.251-.099.53-.148.836-.148zm0 3.468c.342 0 .594-.115.756-.344.166-.229.248-.565.248-1.008s-.082-.78-.248-1.012c-.162-.232-.414-.348-.756-.348-.346 0-.602.117-.768.352-.165.232-.248.568-.248 1.008s.083.776.248 1.008c.166.229.422.344.768.344zm2.795.7v-4.104h.604c.128 0 .212.06.252.18l.068.324c.083-.085.17-.163.26-.232.094-.069.191-.129.292-.18.104-.051.215-.089.332-.116.118-.027.246-.04.384-.04.224 0 .423.039.596.116.174.075.318.181.432.32.118.136.206.3.264.492.062.189.092.399.092.628v2.612h-.988v-2.612c0-.251-.058-.444-.176-.58-.114-.139-.288-.208-.52-.208-.17 0-.33.039-.48.116-.149.077-.29.183-.424.316v2.968zm5.895.064c-.355 0-.628-.1-.82-.3-.192-.203-.288-.481-.288-.836v-2.292h-.416c-.053 0-.1-.017-.14-.052-.037-.035-.056-.087-.056-.156v-.392l.66-.108.208-1.12c.011-.053.035-.095.072-.124.04-.029.089-.044.148-.044h.512v1.292h1.08v.704h-1.08v2.224c0 .128.032.228.096.3s.149.108.256.108c.061 0 .112-.007.152-.02.043-.016.079-.032.108-.048.032-.016.06-.031.084-.044.024-.016.048-.024.072-.024.029 0 .053.008.072.024.019.013.039.035.06.064l.296.48c-.144.12-.309.211-.496.272s-.38.092-.58.092zm2.798-4.168v4.104h-.988v-4.104zm.148-1.196c0 .085-.018.165-.052.24-.035.075-.082.14-.14.196-.056.056-.123.101-.2.136-.078.032-.16.048-.248.048-.086 0-.167-.016-.244-.048-.075-.035-.14-.08-.196-.136s-.102-.121-.136-.196c-.032-.075-.048-.155-.048-.24 0-.088.016-.171.048-.248.034-.077.08-.144.136-.2s.121-.1.196-.132c.077-.035.158-.052.244-.052.088 0 .17.017.248.052.077.032.144.076.2.132.058.056.105.123.14.2.034.077.052.16.052.248zm.972 5.3v-4.104h.604c.128 0 .212.06.252.18l.068.324c.082-.085.169-.163.26-.232.093-.069.19-.129.292-.18.104-.051.214-.089.332-.116.117-.027.245-.04.384-.04.224 0 .422.039.596.116.173.075.317.181.432.32.117.136.205.3.264.492.061.189.092.399.092.628v2.612h-.988v-2.612c0-.251-.059-.444-.176-.58-.115-.139-.288-.208-.52-.208-.171 0-.331.039-.48.116-.15.077-.291.183-.424.316v2.968zm5.451-4.104v2.608c0 .251.057.445.172.584.117.136.292.204.524.204.17 0 .33-.037.48-.112.149-.077.29-.183.424-.316v-2.968h.988v4.104h-.604c-.128 0-.212-.06-.252-.18l-.068-.328c-.086.085-.174.164-.264.236-.091.069-.188.129-.292.18-.102.048-.212.085-.332.112-.118.029-.244.044-.38.044-.224 0-.423-.037-.596-.112-.171-.077-.315-.185-.432-.324-.118-.139-.207-.303-.268-.492-.059-.192-.088-.403-.088-.632v-2.608zm5.338-.064c.259 0 .496.041.712.124.219.083.407.204.564.364.158.157.28.352.368.584.088.229.132.492.132.788 0 .075-.004.137-.012.188-.005.048-.017.087-.036.116-.016.027-.038.047-.068.06-.029.011-.066.016-.112.016h-2.536c.03.421.143.731.34.928.198.197.459.296.784.296.16 0 .298-.019.412-.056.118-.037.219-.079.304-.124.088-.045.164-.087.228-.124.067-.037.131-.056.192-.056.04 0 .075.008.104.024.03.016.055.039.076.068l.288.36c-.109.128-.232.236-.368.324-.136.085-.278.155-.428.208-.146.051-.297.087-.452.108-.152.021-.3.032-.444.032-.285 0-.55-.047-.796-.14-.245-.096-.458-.236-.64-.42-.181-.187-.324-.416-.428-.688-.104-.275-.156-.592-.156-.952 0-.28.046-.543.136-.788.091-.248.22-.463.388-.644.171-.184.378-.329.62-.436.246-.107.522-.16.828-.16zm.02.708c-.288 0-.513.081-.676.244-.162.163-.266.393-.312.692h1.856c0-.128-.017-.248-.052-.36-.034-.115-.088-.215-.16-.3s-.162-.152-.272-.2c-.109-.051-.237-.076-.384-.076z" fill="#fff"/><rect height="16.0208" opacity=".4" rx="3.41786" stroke="#737777" stroke-width=".65" width="105.723" x="68.325" y="124.598"/><path d="m75.3068 133.403c-.2025 0-.395-.034-.5775-.102-.18-.067-.3388-.166-.4763-.296-.1375-.132-.2475-.294-.33-.484-.08-.192-.12-.412-.12-.66 0-.235.0438-.455.1313-.66s.21-.383.3675-.536c.1575-.152.345-.272.5625-.36.2175-.087.4562-.131.7162-.131.2575 0 .4913.042.7013.127s.39.204.54.357c.15.152.265.335.345.547.0825.213.1237.448.1237.705 0 .155-.015.303-.045.443-.0275.137-.0687.272-.1237.405-.055.132-.1213.265-.1988.397-.075.13-.1612.265-.2587.405l-1.3088 1.89c-.0325.048-.0787.086-.1387.116-.06.028-.1288.042-.2063.042h-.615l1.635-2.142c.055-.072.1063-.141.1538-.206s.0925-.13.135-.195c-.1375.11-.2925.194-.465.251-.1725.058-.355.087-.5475.087zm1.3425-1.572c0-.167-.0275-.318-.0825-.453-.0525-.138-.1263-.254-.2213-.349s-.2087-.168-.3412-.218c-.13-.052-.2738-.078-.4313-.078-.165 0-.3162.027-.4537.082-.135.053-.2513.126-.3488.221-.095.095-.1687.209-.2212.342-.0525.132-.0788.277-.0788.435 0 .17.0238.322.0713.457.05.133.12.245.21.338.0925.092.2037.162.3337.21.1325.047.28.071.4425.071.18 0 .3388-.029.4763-.086.14-.06.2575-.139.3525-.237.095-.097.1675-.21.2175-.337.05-.128.075-.26.075-.398zm3.1206 3.837c-.2675 0-.5125-.035-.735-.105-.2225-.073-.4138-.175-.5738-.308-.16-.132-.2837-.292-.3712-.48-.0875-.19-.1313-.402-.1313-.637 0-.345.09-.629.27-.852.18-.225.4375-.385.7725-.48-.2825-.105-.4962-.261-.6412-.468-.1425-.21-.2138-.46-.2138-.75 0-.198.0388-.383.1163-.555.0775-.173.1875-.323.33-.45.1425-.128.3125-.228.51-.3.2-.073.4225-.109.6675-.109.2425 0 .4637.036.6637.109.2.072.3713.172.5138.3.1425.127.2525.277.33.45.0775.172.1162.357.1162.555 0 .29-.0725.54-.2175.75-.145.207-.3575.363-.6375.468.335.095.5925.255.7725.48.18.223.27.507.27.852 0 .235-.045.447-.135.637-.0875.188-.2112.348-.3712.48-.1575.133-.3475.235-.57.308-.2225.07-.4675.105-.735.105zm0-.533c.175 0 .3312-.024.4687-.071.14-.05.2575-.119.3525-.206.0975-.09.1713-.197.2213-.319.0525-.125.0787-.263.0787-.413 0-.185-.0312-.342-.0937-.472-.06-.133-.1425-.24-.2475-.323-.1025-.082-.2213-.142-.3563-.18-.135-.04-.2762-.06-.4237-.06s-.2888.02-.4238.06c-.135.038-.255.098-.36.18-.1025.083-.185.19-.2475.323-.06.13-.09.287-.09.472 0 .15.025.288.075.413.0525.122.1263.229.2213.319.0975.087.215.156.3525.206.14.047.2975.071.4725.071zm0-2.58c.175 0 .3237-.026.4462-.079.125-.055.2263-.126.3038-.213.0775-.09.1337-.193.1687-.308s.0525-.234.0525-.356c0-.125-.0212-.243-.0637-.353-.04-.11-.1013-.206-.1838-.288-.08-.083-.1812-.148-.3037-.195-.12-.048-.26-.072-.42-.072s-.3013.024-.4238.072c-.12.047-.2212.112-.3037.195-.08.082-.1413.178-.1838.288-.04.11-.06.228-.06.353 0 .122.0175.241.0525.356s.0913.218.1688.308c.0775.087.1775.158.3.213.125.053.275.079.45.079zm3.2556 2.543h1.155v-3.664c0-.11.0037-.221.0112-.334l-.96.821c-.025.02-.05.035-.075.045-.025.008-.0487.012-.0712.012-.0375 0-.0713-.008-.1013-.023-.03-.017-.0525-.037-.0675-.06l-.21-.289 1.5975-1.383h.5438v4.875h1.0575v.51h-2.88zm7.3993-2.175c0 .47-.0512.877-.1537 1.222-.1.343-.2375.626-.4125.851s-.3825.393-.6225.503c-.2375.11-.4925.165-.765.165-.275 0-.5313-.055-.7688-.165-.235-.11-.44-.278-.615-.503s-.3125-.508-.4125-.851c-.1-.345-.15-.752-.15-1.222s.05-.878.15-1.223.2375-.63.4125-.855c.175-.227.38-.396.615-.506.2375-.11.4938-.165.7688-.165.2725 0 .5275.055.765.165.24.11.4475.279.6225.506.175.225.3125.51.4125.855.1025.345.1537.753.1537 1.223zm-.6937 0c0-.41-.035-.754-.105-1.032-.0675-.28-.16-.505-.2775-.675-.115-.17-.2488-.291-.4013-.363-.1525-.075-.3112-.113-.4762-.113s-.3238.038-.4763.113c-.1525.072-.2862.193-.4012.363s-.2075.395-.2775.675c-.0675.278-.1013.622-.1013 1.032s.0338.753.1013 1.031c.07.277.1625.501.2775.671s.2487.293.4012.368c.1525.072.3113.108.4763.108s.3237-.036.4762-.108c.1525-.075.2863-.198.4013-.368.1175-.17.21-.394.2775-.671.07-.278.105-.621.105-1.031zm2.978.48c-.2025 0-.395-.034-.5775-.102-.18-.067-.3387-.166-.4762-.296-.1375-.132-.2475-.294-.33-.484-.08-.192-.12-.412-.12-.66 0-.235.0437-.455.1312-.66s.21-.383.3675-.536c.1575-.152.345-.272.5625-.36.2175-.087.4563-.131.7163-.131.2575 0 .4912.042.7012.127s.39.204.54.357c.15.152.265.335.345.547.0825.213.1238.448.1238.705 0 .155-.015.303-.045.443-.0275.137-.0688.272-.1238.405-.055.132-.1212.265-.1987.397-.075.13-.1613.265-.2588.405l-1.3087 1.89c-.0325.048-.0788.086-.1388.116-.06.028-.1287.042-.2062.042h-.615l1.635-2.142c.055-.072.1062-.141.1537-.206s.0925-.13.135-.195c-.1375.11-.2925.194-.465.251-.1725.058-.355.087-.5475.087zm1.3425-1.572c0-.167-.0275-.318-.0825-.453-.0525-.138-.1262-.254-.2212-.349s-.2088-.168-.3413-.218c-.13-.052-.2737-.078-.4312-.078-.165 0-.3163.027-.4538.082-.135.053-.2512.126-.3487.221-.095.095-.1688.209-.2213.342-.0525.132-.0787.277-.0787.435 0 .17.0237.322.0712.457.05.133.12.245.21.338.0925.092.2038.162.3338.21.1325.047.28.071.4425.071.18 0 .3387-.029.4762-.086.14-.06.2575-.139.3525-.237.095-.097.1675-.21.2175-.337.05-.128.075-.26.075-.398z" fill="#202323"/><rect height="16.0208" opacity=".4" rx="3.41786" stroke="#737777" stroke-width=".65" width="105.723" x="68.325" y="70.7972"/><path d="m75.9705 77.8275c-.03.055-.0762.0825-.1387.0825-.0375 0-.08-.0138-.1275-.0413s-.1063-.0575-.1763-.09c-.0675-.035-.1487-.0662-.2437-.0937-.095-.03-.2075-.045-.3375-.045-.1125 0-.2138.015-.3038.045-.09.0275-.1675.0662-.2325.1162-.0625.05-.1112.1088-.1462.1763-.0325.065-.0488.1362-.0488.2137 0 .0975.0275.1788.0825.2438.0575.065.1325.1212.225.1687s.1975.09.315.1275c.1175.035.2375.0738.36.1163.125.04.2463.085.3638.135s.2225.1125.315.1875.1662.1675.2212.2775c.0575.1075.0863.2375.0863.39 0 .175-.0313.3375-.0938.4875-.0625.1475-.155.2762-.2775.3862-.1225.1075-.2725.1925-.45.255-.1775.0626-.3825.0938-.615.0938-.265 0-.505-.0425-.72-.1275-.215-.0875-.3975-.1988-.5475-.3338l.1575-.255c.02-.0325.0438-.0575.0713-.075s.0637-.0262.1087-.0262.0925.0175.1425.0525.11.0737.18.1162c.0725.0425.1588.0813.2588.1163.1025.035.23.0525.3825.0525.13 0 .2437-.0163.3412-.0488.0975-.035.1788-.0812.2438-.1387s.1125-.1238.1425-.1988c.0325-.075.0487-.155.0487-.24 0-.105-.0287-.1912-.0862-.2587-.055-.07-.1288-.1288-.2213-.1763-.0925-.05-.1987-.0925-.3187-.1275-.1175-.0375-.2388-.0762-.3638-.1162-.1225-.04-.2437-.085-.3637-.135-.1175-.0525-.2225-.1175-.315-.195s-.1675-.1725-.225-.285c-.055-.115-.0825-.2538-.0825-.4163 0-.145.03-.2837.09-.4162.06-.135.1475-.2525.2625-.3525.115-.1025.2562-.1838.4237-.2437.1675-.0601.3588-.0901.5738-.0901.25 0 .4737.04.6712.12.2.0775.3725.185.5175.3225zm3.867 3.1725h-.2962c-.065 0-.1175-.01-.1575-.03s-.0663-.0625-.0788-.1275l-.075-.3525c-.1.09-.1975.1712-.2925.2437-.095.07-.195.13-.3.18-.105.0475-.2175.0838-.3375.1088-.1175.025-.2487.0375-.3937.0375-.1475 0-.2863-.02-.4163-.06-.1275-.0425-.2387-.105-.3337-.1875s-.1713-.1863-.2288-.3113c-.055-.1275-.0825-.2775-.0825-.45 0-.15.0413-.2937.1238-.4312.0825-.14.215-.2638.3975-.3713.185-.1075.4262-.195.7237-.2625.2975-.0699.6613-.11 1.0913-.12v-.2962c0-.295-.0638-.5175-.1913-.6675-.125-.1525-.3112-.2288-.5587-.2288-.1625 0-.3.0213-.4125.0638-.11.04-.2063.0862-.2888.1387-.08.05-.15.0963-.21.1388-.0575.04-.115.06-.1725.06-.045 0-.085-.0113-.12-.0338-.0325-.025-.0587-.055-.0787-.09l-.12-.2137c.21-.2025.4362-.3538.6787-.4538s.5113-.15.8063-.15c.2125 0 .4012.035.5662.105s.3038.1675.4163.2925.1975.2763.255.4538.0862.3725.0862.585zm-1.7325-.4088c.1175 0 .225-.0112.3225-.0337.0975-.025.1888-.0588.2738-.1013.0875-.045.17-.0987.2475-.1612.08-.0625.1575-.1338.2325-.2138v-.7912c-.3075.01-.5688.035-.7838.075-.215.0375-.39.0875-.525.15s-.2337.1362-.2962.2212c-.06.085-.09.18-.09.285 0 .1.0162.1863.0487.2588s.0763.1325.1313.18c.055.045.12.0787.195.1012.075.02.1562.03.2437.03zm2.7438.4088v-3.7988h.3975c.095 0 .155.0463.18.1388l.0487.39c.14-.1725.2963-.3138.4688-.4238.175-.11.3775-.165.6075-.165.2575 0 .465.0713.6225.2138.16.1425.275.335.345.5775.0525-.1375.1212-.2563.2062-.3563.0875-.1.185-.1825.2925-.2475s.2213-.1125.3413-.1425c.1225-.03.2462-.045.3712-.045.2 0 .3775.0325.5325.0975.1575.0625.29.155.3975.2775.11.1225.1938.2738.2513.4538.0575.1775.0862.3812.0862.6112v2.4188h-.6675v-2.4188c0-.2975-.065-.5225-.195-.675-.13-.155-.3187-.2325-.5662-.2325-.11 0-.215.02-.315.06-.0975.0375-.1838.0938-.2588.1688s-.135.17-.18.285c-.0425.1125-.0637.2437-.0637.3937v2.4188h-.6675v-2.4188c0-.305-.0613-.5325-.1838-.6825s-.3012-.225-.5362-.225c-.165 0-.3188.045-.4613.135-.14.0875-.2687.2075-.3862.36v2.8313zm9.9884-.6975c-.195 0-.3538-.0463-.4763-.1388-.1225-.095-.2-.24-.2325-.435-.145.2025-.3025.3475-.4725.435s-.3525.1313-.5475.1313c-.15 0-.28-.025-.39-.075-.11-.0525-.2025-.1238-.2775-.2138-.0725-.0925-.1275-.2012-.165-.3262-.035-.125-.0525-.26-.0525-.405 0-.2125.04-.4263.12-.6413.0825-.2175.2038-.4125.3638-.585.16-.175.3587-.3175.5962-.4275.24-.11.5163-.165.8288-.165.1675 0 .3137.0138.4387.0413.1275.025.2475.0625.36.1125l-.3487 1.3537c-.0475.1875-.0713.3425-.0713.465 0 .09.0113.165.0338.225.0225.0575.0525.1038.09.1388.04.0325.085.055.135.0675.0525.0125.1075.0187.165.0187.1225 0 .2387-.035.3487-.105s.2063-.1687.2888-.2962c.085-.1275.1512-.28.1987-.4575.05-.18.075-.3788.075-.5963 0-.345-.0562-.6475-.1687-.9075-.11-.26-.2625-.4762-.4575-.6487-.1925-.175-.4213-.305-.6863-.39-.2625-.0875-.5462-.1313-.8512-.1313-.335 0-.6488.0638-.9413.1913s-.5475.3037-.765.5287-.3887.4913-.5137.7988-.1875.6425-.1875 1.005c0 .425.0662.7987.1987 1.1212.135.32.3175.5888.5475.8063.2325.2175.5038.3813.8138.4913.3125.11.6475.165 1.005.165.38 0 .715-.0413 1.005-.1238.2925-.0825.545-.1875.7575-.315.0375-.0225.0712-.0338.1012-.0338.0525 0 .0913.0301.1163.0901l.0937.2475c-.2675.18-.5725.3212-.915.4237-.34.1025-.7262.1538-1.1587.1538s-.835-.0688-1.2075-.2063-.6963-.3362-.9713-.5962c-.2725-.2576-.4875-.5738-.645-.9488-.155-.375-.2325-.8-.2325-1.275 0-.2725.0338-.535.1013-.7875.07-.2525.1675-.4875.2925-.705.125-.22.275-.42.45-.6.175-.1825.37-.3375.585-.465.215-.13.4462-.23.6937-.3.2475-.0725.5063-.1088.7763-.1088.23 0 .455.025.675.075s.4275.1238.6225.2213c.1975.0975.3787.2187.5437.3637.165.1425.3063.3075.4238.4951.12.1849.2125.3924.2775.6224.0675.2275.1012.475.1012.7425 0 .27-.0387.52-.1162.75-.075.2275-.18.425-.315.5925-.1325.1675-.29.2988-.4725.3938-.18.095-.375.1425-.585.1425zm-1.5975-.45c.0775 0 .155-.0125.2325-.0375.08-.025.1562-.0688.2287-.1313.075-.0625.1425-.1475.2025-.255.0625-.1075.115-.2425.1575-.405l.285-1.1062c-.0975-.0225-.2037-.0338-.3187-.0338-.1875 0-.36.04-.5175.12-.155.0775-.2888.18-.4013.3075s-.2012.2738-.2662.4388c-.0625.165-.0938.3337-.0938.5062 0 .18.0413.325.1238.435.0825.1075.205.1613.3675.1613zm5.4395-2.7113c.2275 0 .4375.0388.63.1163.1925.075.3587.185.4987.33.14.1425.2488.32.3263.5325.08.21.12.45.12.72 0 .105-.0113.175-.0338.21s-.065.0525-.1275.0525h-2.5275c.005.24.0375.4487.0975.6262s.1425.3263.2475.4463c.105.1175.23.2062.375.2662.145.0575.3075.0863.4875.0863.1675 0 .3113-.0188.4313-.0563.1225-.04.2275-.0825.315-.1275s.16-.0862.2175-.1237c.06-.04.1112-.06.1537-.06.055 0 .0975.0212.1275.0637l.1875.2438c-.0825.1-.1812.1875-.2962.2625-.115.0725-.2388.1325-.3713.18-.13.0475-.265.0825-.405.105-.14.025-.2787.0375-.4162.0375-.2625 0-.505-.0438-.7275-.1313-.22-.09-.4113-.22-.5738-.39-.16-.1725-.285-.385-.375-.6375s-.135-.5425-.135-.87c0-.265.04-.5125.12-.7425.0825-.23.2-.4287.3525-.5962.1525-.17.3388-.3025.5588-.3975.22-.0975.4675-.1463.7425-.1463zm.015.4913c-.3225 0-.5763.0937-.7613.2812-.185.185-.3.4425-.345.7725h2.0663c0-.155-.0213-.2962-.0638-.4237-.0425-.13-.105-.2413-.1875-.3338-.0825-.095-.1837-.1675-.3037-.2175-.1175-.0525-.2525-.0787-.405-.0787zm3.076 1.4212-1.2787-1.8525h.6412c.055 0 .095.0088.12.0263s.0475.0425.0675.075l.93 1.425c.0225-.07.055-.14.0975-.21l.8175-1.2c.025-.035.05-.0625.075-.0825.025-.0225.0563-.0338.0938-.0338h.615l-1.2788 1.815 1.3308 1.9838h-.6408c-.055 0-.0987-.0138-.1312-.0413-.03-.03-.055-.0625-.075-.0975l-.9563-1.4887c-.0175.0725-.0437.1375-.0787.195l-.885 1.2937c-.025.035-.0525.0675-.0825.0975-.0275.0275-.0663.0413-.1163.0413h-.5962zm5.6808 1.9463h-.296c-.065 0-.118-.01-.158-.03s-.066-.0625-.079-.1275l-.075-.3525c-.1.09-.197.1712-.292.2437-.095.07-.195.13-.3.18-.105.0475-.218.0838-.338.1088-.117.025-.248.0375-.393.0375-.148 0-.287-.02-.417-.06-.127-.0425-.238-.105-.333-.1875s-.172-.1863-.229-.3113c-.055-.1275-.083-.2775-.083-.45 0-.15.042-.2937.124-.4312.083-.14.215-.2638.398-.3713.185-.1075.426-.195.723-.2625.298-.0699.662-.11 1.092-.12v-.2962c0-.295-.064-.5175-.192-.6675-.125-.1525-.311-.2288-.558-.2288-.163 0-.3.0213-.413.0638-.11.04-.206.0862-.289.1387-.08.05-.15.0963-.21.1388-.057.04-.115.06-.172.06-.045 0-.085-.0113-.12-.0338-.033-.025-.059-.055-.079-.09l-.12-.2137c.21-.2025.436-.3538.679-.4538.242-.1.511-.15.806-.15.213 0 .401.035.566.105s.304.1675.417.2925c.112.125.197.2763.255.4538.057.1775.086.3725.086.585zm-1.733-.4088c.118 0 .225-.0112.323-.0337.097-.025.189-.0588.274-.1013.087-.045.17-.0987.247-.1612.08-.0625.158-.1338.233-.2138v-.7912c-.308.01-.569.035-.784.075-.215.0375-.39.0875-.525.15s-.234.1362-.296.2212c-.06.085-.09.18-.09.285 0 .1.016.1863.048.2588.033.0725.077.1325.132.18.055.045.12.0787.195.1012.075.02.156.03.243.03zm2.744.4088v-3.7988h.398c.095 0 .155.0463.18.1388l.048.39c.14-.1725.297-.3138.469-.4238.175-.11.378-.165.608-.165.257 0 .465.0713.622.2138.16.1425.275.335.345.5775.053-.1375.121-.2563.206-.3563.088-.1.185-.1825.293-.2475.107-.065.221-.1125.341-.1425.123-.03.246-.045.371-.045.2 0 .378.0325.533.0975.157.0625.29.155.397.2775.11.1225.194.2738.252.4538.057.1775.086.3812.086.6112v2.4188h-.668v-2.4188c0-.2975-.065-.5225-.195-.675-.13-.155-.318-.2325-.566-.2325-.11 0-.215.02-.315.06-.097.0375-.184.0938-.259.1688s-.135.17-.18.285c-.042.1125-.063.2437-.063.3937v2.4188h-.668v-2.4188c0-.305-.061-.5325-.184-.6825-.122-.15-.301-.225-.536-.225-.165 0-.319.045-.461.135-.14.0875-.269.2075-.386.36v2.8313zm6.16 1.2863v-5.0851h.397c.095 0 .155.0463.18.1388l.056.45c.163-.1975.348-.3563.555-.4763.21-.12.452-.18.724-.18.218 0 .415.0425.593.1275.177.0825.328.2063.453.3713.125.1625.222.365.289.6075.068.2425.101.5212.101.8362 0 .28-.037.5413-.112.7838-.075.24-.183.4487-.323.6262-.14.175-.312.3138-.517.4163-.203.1-.431.15-.686.15-.235 0-.437-.0388-.604-.1163-.165-.0775-.311-.1875-.439-.33v1.6801zm1.691-4.6126c-.218 0-.409.05-.574.15-.162.1-.312.2413-.45.4238v1.8375c.123.165.256.2812.401.3487.148.0675.312.1013.492.1013.352 0 .623-.1263.813-.3788s.285-.6125.285-1.08c0-.2475-.022-.46-.067-.6375-.043-.1775-.105-.3225-.188-.435-.082-.115-.183-.1987-.303-.2512s-.257-.0788-.409-.0788zm3.189-2.1975v5.5238h-.667v-5.5238zm2.681 1.665c.227 0 .437.0388.63.1163.192.075.358.185.498.33.14.1425.249.32.327.5325.08.21.12.45.12.72 0 .105-.012.175-.034.21-.023.035-.065.0525-.128.0525h-2.527c.005.24.037.4487.097.6262s.143.3263.248.4463c.105.1175.23.2062.375.2662.145.0575.307.0863.487.0863.168 0 .312-.0188.432-.0563.122-.04.227-.0825.315-.1275.087-.045.16-.0862.217-.1237.06-.04.111-.06.154-.06.055 0 .097.0212.127.0637l.188.2438c-.083.1-.181.1875-.296.2625-.115.0725-.239.1325-.372.18-.13.0475-.265.0825-.405.105-.14.025-.278.0375-.416.0375-.262 0-.505-.0438-.727-.1313-.22-.09-.412-.22-.574-.39-.16-.1725-.285-.385-.375-.6375s-.135-.5425-.135-.87c0-.265.04-.5125.12-.7425.082-.23.2-.4287.352-.5962.153-.17.339-.3025.559-.3975.22-.0975.468-.1463.743-.1463zm.015.4913c-.323 0-.577.0937-.762.2812-.185.185-.3.4425-.345.7725h2.067c0-.155-.022-.2962-.064-.4237-.043-.13-.105-.2413-.188-.3338-.082-.095-.183-.1675-.303-.2175-.118-.0525-.253-.0787-.405-.0787zm2.196 2.955c0-.065.012-.1263.034-.1838.025-.0575.058-.1075.098-.15.042-.0425.092-.0762.15-.1012.057-.025.118-.0375.183-.0375s.127.0125.184.0375c.058.025.108.0587.15.1012.043.0425.075.0925.098.15.025.0575.037.1188.037.1838 0 .0675-.012.13-.037.1875-.023.055-.055.1037-.098.1462-.042.0425-.092.075-.15.0976-.057.025-.119.0375-.184.0375s-.126-.0125-.183-.0375c-.058-.0226-.108-.0551-.15-.0976-.04-.0425-.073-.0912-.098-.1462-.022-.0575-.034-.12-.034-.1875zm4.399-2.7113c-.02.0275-.04.0488-.06.0638s-.049.0225-.087.0225c-.037 0-.078-.015-.123-.045-.043-.0325-.098-.0675-.165-.105-.068-.0375-.15-.0713-.248-.1013-.095-.0325-.212-.0487-.352-.0487-.185 0-.349.0337-.492.1012-.142.065-.262.16-.36.285-.095.125-.167.2763-.217.4538-.048.1775-.071.3762-.071.5962 0 .23.026.435.078.615.053.1775.127.3275.222.45.095.12.21.2125.345.2775.137.0625.291.0938.461.0938.162 0 .296-.0188.401-.0563.105-.04.193-.0837.263-.1312s.127-.09.172-.1275c.045-.04.09-.06.135-.06.058 0 .1.0212.128.0637l.187.2438c-.165.2025-.371.3512-.619.4462-.247.0925-.508.1388-.783.1388-.238 0-.459-.0438-.664-.1313-.203-.0875-.379-.2137-.529-.3787-.15-.1675-.269-.3725-.356-.615-.085-.2425-.128-.5188-.128-.8288 0-.2825.039-.5437.117-.7837.08-.24.195-.4463.345-.6188.152-.175.34-.3112.562-.4087.223-.0975.478-.1463.765-.1463.265 0 .5.0438.705.1313.205.085.386.2062.544.3637zm2.447-.735c.277 0 .527.0463.75.1388.225.0925.415.2237.57.3937.157.17.277.3763.36.6188.085.24.127.5087.127.8062 0 .3-.042.57-.127.81-.083.24-.203.445-.36.615-.155.17-.345.3013-.57.3938-.223.09-.473.135-.75.135-.278 0-.529-.045-.754-.135-.222-.0925-.412-.2238-.57-.3938-.157-.17-.279-.375-.364-.615s-.127-.51-.127-.81c0-.2975.042-.5662.127-.8062.085-.2425.207-.4488.364-.6188.158-.17.348-.3012.57-.3937.225-.0925.476-.1388.754-.1388zm0 3.39c.375 0 .655-.125.84-.375.185-.2525.277-.6037.277-1.0537 0-.4525-.092-.805-.277-1.0575s-.465-.3788-.84-.3788c-.19 0-.355.0325-.495.0975s-.258.1588-.353.2813c-.092.1225-.162.2737-.21.4537-.045.1775-.067.3788-.067.6038s.022.4262.067.6037c.048.1775.118.3275.21.45.095.12.213.2125.353.2775s.305.0975.495.0975zm2.63.4688v-3.7988h.397c.095 0 .155.0463.18.1388l.049.39c.14-.1725.296-.3138.469-.4238.175-.11.377-.165.607-.165.258 0 .465.0713.623.2138.16.1425.275.335.345.5775.052-.1375.121-.2563.206-.3563.088-.1.185-.1825.293-.2475.107-.065.221-.1125.341-.1425.122-.03.246-.045.371-.045.2 0 .378.0325.533.0975.157.0625.29.155.397.2775.11.1225.194.2738.251.4538.058.1775.087.3812.087.6112v2.4188h-.668v-2.4188c0-.2975-.065-.5225-.195-.675-.13-.155-.319-.2325-.566-.2325-.11 0-.215.02-.315.06-.098.0375-.184.0938-.259.1688s-.135.17-.18.285c-.042.1125-.064.2437-.064.3937v2.4188h-.667v-2.4188c0-.305-.061-.5325-.184-.6825-.122-.15-.301-.225-.536-.225-.165 0-.319.045-.461.135-.14.0875-.269.2075-.387.36v2.8313z" fill="#202323"/><rect height="16.0208" opacity=".4" rx="3.41786" stroke="#737777" stroke-width=".65" width="105.723" x="68.325" y="96.5612"/><path d="m75.7413 106.363c.2225 0 .4212-.037.5962-.112s.3225-.18.4425-.315c.1225-.135.215-.296.2775-.484.065-.187.0975-.394.0975-.619v-3.266h.7238v3.266c0 .31-.05.598-.15.863-.0975.265-.2388.495-.4238.69-.1825.192-.4062.344-.6712.454s-.5625.165-.8925.165-.6275-.055-.8925-.165-.49-.262-.675-.454c-.185-.195-.3275-.425-.4275-.69-.0975-.265-.1463-.553-.1463-.863v-3.266h.7238v3.263c0 .225.0312.431.0937.618.065.188.1575.349.2775.484.1225.135.2713.241.4463.319.1775.075.3775.112.6.112zm3.2847.578v-3.799h.3975c.095 0 .155.046.18.139l.0525.412c.165-.182.3488-.33.5513-.442.205-.113.4412-.169.7087-.169.2075 0 .39.035.5475.105.16.068.2925.165.3975.293.1075.125.1888.276.2438.453.055.178.0825.374.0825.589v2.419h-.6675v-2.419c0-.287-.0663-.51-.1988-.667-.13-.16-.33-.24-.6-.24-.1975 0-.3825.047-.555.142-.17.095-.3275.224-.4725.386v2.798zm4.91-3.799v3.799h-.6675v-3.799zm.15-1.192c0 .065-.0138.126-.0413.183-.025.055-.06.105-.105.15-.0425.043-.0925.077-.15.102s-.1187.037-.1837.037-.1263-.012-.1838-.037c-.055-.025-.105-.059-.15-.102-.0425-.045-.0762-.095-.1012-.15-.025-.057-.0375-.118-.0375-.183s.0125-.127.0375-.184c.025-.06.0587-.111.1012-.154.045-.045.095-.08.15-.105.0575-.025.1188-.037.1838-.037s.1262.012.1837.037.1075.06.15.105c.045.043.08.094.105.154.0275.057.0413.119.0413.184zm2.1777 5.051c-.3 0-.5313-.084-.6938-.251-.16-.168-.24-.409-.24-.724v-2.325h-.4575c-.04 0-.0737-.011-.1012-.034-.0275-.025-.0413-.062-.0413-.112v-.267l.6225-.078.1538-1.174c.005-.038.0212-.068.0487-.09.0275-.025.0625-.038.105-.038h.3375v1.309h1.0875v.484h-1.0875v2.28c0 .16.0388.279.1163.356.0775.078.1775.116.3.116.07 0 .13-.008.18-.026.0525-.02.0975-.041.135-.064.0375-.022.0687-.042.0937-.06.0275-.02.0513-.03.0713-.03.035 0 .0662.022.0937.064l.195.319c-.115.107-.2537.192-.4162.255-.1625.06-.33.09-.5025.09zm3.1503-3.919c.2275 0 .4375.039.63.116.1925.075.3588.185.4988.33.14.143.2487.32.3262.533.08.21.12.45.12.72 0 .105-.0112.175-.0337.21s-.065.052-.1275.052h-2.5275c.005.24.0375.449.0975.627.06.177.1425.326.2475.446.105.117.23.206.375.266.145.058.3075.086.4875.086.1675 0 .3112-.018.4312-.056.1225-.04.2275-.082.315-.127s.16-.087.2175-.124c.06-.04.1113-.06.1538-.06.055 0 .0975.021.1275.064l.1875.243c-.0825.1-.1813.188-.2963.263-.115.072-.2387.132-.3712.18-.13.047-.265.082-.405.105-.14.025-.2788.037-.4163.037-.2625 0-.505-.043-.7275-.131-.22-.09-.4112-.22-.5737-.39-.16-.172-.285-.385-.375-.637-.09-.253-.135-.543-.135-.87 0-.265.04-.513.12-.743.0825-.23.2-.429.3525-.596.1525-.17.3387-.303.5587-.398.22-.097.4675-.146.7425-.146zm.015.491c-.3225 0-.5762.094-.7612.282-.185.185-.3.442-.345.772h2.0662c0-.155-.0212-.296-.0637-.424-.0425-.13-.105-.241-.1875-.333-.0825-.095-.1838-.168-.3038-.218-.1175-.052-.2525-.079-.405-.079zm5.0881 3.368c-.095 0-.155-.046-.18-.139l-.06-.461c-.1625.197-.3487.356-.5587.476-.2075.118-.4463.176-.7163.176-.2175 0-.415-.041-.5925-.123-.1775-.085-.3287-.209-.4537-.372-.125-.162-.2213-.365-.2888-.607-.0675-.243-.1012-.521-.1012-.836 0-.28.0375-.54.1125-.78.075-.243.1825-.453.3225-.63.1425-.178.315-.317.5175-.417.2025-.102.4325-.153.69-.153.2325 0 .4312.04.5962.12.165.077.3125.187.4425.33v-2.108h.6675v5.524zm-1.2937-.488c.2175 0 .4075-.05.57-.15.165-.1.3162-.241.4537-.423v-1.838c-.1225-.165-.2575-.28-.405-.345-.145-.067-.3062-.101-.4837-.101-.355 0-.6275.126-.8175.379-.19.252-.285.612-.285 1.08 0 .247.0212.46.0637.637.0425.175.105.32.1875.435.0825.113.1838.195.3038.248.12.052.2575.078.4125.078zm7.1176-4.046c-.023.038-.047.066-.072.086-.025.018-.057.027-.097.027-.043 0-.093-.022-.15-.064-.0552-.043-.1265-.089-.214-.139-.085-.052-.1887-.1-.3112-.142-.12-.043-.2663-.064-.4388-.064-.1625 0-.3062.022-.4312.067-.125.043-.23.102-.315.177-.0825.075-.145.163-.1875.266-.0425.1-.0638.209-.0638.326 0 .15.0363.275.1088.375.075.098.1725.181.2925.251.1225.07.26.132.4125.184.155.05.3125.103.4725.158.1625.055.32.117.4725.187.155.068.2927.154.4127.259.122.105.22.234.292.386.075.153.113.34.113.563 0 .235-.04.456-.12.663-.08.205-.198.384-.353.537-.152.152-.341.272-.566.36-.2225.087-.4762.131-.7612.131-.3475 0-.665-.063-.9525-.188-.285-.127-.5288-.298-.7313-.513l.21-.345c.02-.028.0438-.05.0713-.068.03-.02.0625-.03.0975-.03.0525 0 .1125.029.18.086.0675.055.1512.117.2512.184.1025.068.225.13.3675.188.145.055.3213.082.5288.082.1725 0 .3262-.024.4612-.071.135-.048.2488-.114.3413-.199.095-.087.1675-.191.2175-.311s.075-.254.075-.401c0-.163-.0375-.295-.1125-.398-.0725-.105-.1688-.192-.2888-.262s-.2575-.129-.4125-.177c-.1525-.05-.31-.1-.4725-.15-.16-.052-.3175-.112-.4725-.18-.1525-.067-.2887-.155-.4087-.262-.12-.108-.2175-.241-.2925-.401-.0725-.163-.1088-.363-.1088-.6 0-.19.0363-.374.1088-.552.075-.177.1825-.335.3225-.472.14-.138.3125-.248.5175-.33.2075-.083.445-.124.7125-.124.3 0 .5737.048.8212.143.248.095.464.232.649.412zm2.27 4.594c-.3 0-.531-.084-.693-.251-.16-.168-.24-.409-.24-.724v-2.325h-.458c-.04 0-.074-.011-.101-.034-.028-.025-.041-.062-.041-.112v-.267l.622-.078.154-1.174c.005-.038.021-.068.049-.09.027-.025.062-.038.105-.038h.337v1.309h1.088v.484h-1.088v2.28c0 .16.039.279.116.356.078.078.178.116.3.116.07 0 .13-.008.18-.026.053-.02.098-.041.135-.064.038-.022.069-.042.094-.06.028-.02.051-.03.071-.03.035 0 .067.022.094.064l.195.319c-.115.107-.254.192-.416.255-.163.06-.33.09-.503.09zm4.437-.06h-.296c-.065 0-.118-.01-.158-.03s-.066-.063-.079-.128l-.075-.352c-.1.09-.197.171-.292.244-.095.07-.195.13-.3.18-.105.047-.218.083-.338.108-.117.025-.248.038-.393.038-.148 0-.287-.02-.417-.06-.127-.043-.238-.105-.333-.188-.095-.082-.172-.186-.229-.311-.055-.127-.083-.277-.083-.45 0-.15.042-.294.124-.431.083-.14.215-.264.398-.371.185-.108.426-.195.723-.263.298-.07.662-.11 1.092-.12v-.296c0-.295-.064-.518-.192-.668-.125-.152-.311-.228-.558-.228-.163 0-.3.021-.413.063-.11.04-.206.087-.289.139-.08.05-.15.096-.21.139-.057.04-.115.06-.172.06-.045 0-.085-.011-.12-.034-.033-.025-.059-.055-.079-.09l-.12-.214c.21-.202.436-.353.679-.453.242-.1.511-.15.806-.15.213 0 .401.035.566.105s.304.167.417.292c.112.125.197.276.255.454.057.177.086.372.086.585zm-1.733-.409c.118 0 .225-.011.323-.034.097-.025.189-.058.274-.101.087-.045.17-.099.247-.161.08-.063.158-.134.233-.214v-.791c-.308.01-.569.035-.784.075-.215.037-.39.087-.525.15-.135.062-.234.136-.296.221-.06.085-.09.18-.09.285 0 .1.016.186.048.259.033.072.077.132.132.18.055.045.12.079.195.101.075.02.156.03.243.03zm3.895.469c-.3 0-.531-.084-.693-.251-.16-.168-.24-.409-.24-.724v-2.325h-.458c-.04 0-.074-.011-.101-.034-.028-.025-.041-.062-.041-.112v-.267l.622-.078.154-1.174c.005-.038.021-.068.049-.09.027-.025.062-.038.105-.038h.337v1.309h1.088v.484h-1.088v2.28c0 .16.039.279.116.356.078.078.178.116.3.116.07 0 .13-.008.18-.026.053-.02.098-.041.135-.064.038-.022.069-.042.094-.06.028-.02.051-.03.071-.03.035 0 .067.022.094.064l.195.319c-.115.107-.254.192-.416.255-.163.06-.33.09-.503.09zm3.151-3.919c.227 0 .437.039.63.116.192.075.359.185.499.33.14.143.248.32.326.533.08.21.12.45.12.72 0 .105-.011.175-.034.21-.022.035-.065.052-.127.052h-2.528c.005.24.038.449.098.627.06.177.142.326.247.446.105.117.23.206.375.266.145.058.308.086.488.086.167 0 .311-.018.431-.056.122-.04.227-.082.315-.127.087-.045.16-.087.217-.124.06-.04.112-.06.154-.06.055 0 .098.021.128.064l.187.243c-.082.1-.181.188-.296.263-.115.072-.239.132-.371.18-.13.047-.265.082-.405.105-.14.025-.279.037-.417.037-.262 0-.505-.043-.727-.131-.22-.09-.411-.22-.574-.39-.16-.172-.285-.385-.375-.637-.09-.253-.135-.543-.135-.87 0-.265.04-.513.12-.743.083-.23.2-.429.353-.596.152-.17.338-.303.558-.398.22-.097.468-.146.743-.146zm.015.491c-.323 0-.576.094-.761.282-.185.185-.3.442-.345.772h2.066c0-.155-.021-.296-.064-.424-.042-.13-.105-.241-.187-.333-.083-.095-.184-.168-.304-.218-.118-.052-.253-.079-.405-.079zm4.589.195c-.03.055-.076.083-.139.083-.037 0-.08-.014-.127-.041-.048-.028-.106-.058-.176-.09-.068-.035-.149-.067-.244-.094-.095-.03-.208-.045-.338-.045-.112 0-.213.015-.303.045-.09.027-.168.066-.233.116-.062.05-.111.109-.146.176-.033.065-.049.137-.049.214 0 .098.028.179.083.244.057.065.132.121.225.169.092.047.197.09.315.127.117.035.237.074.36.116.125.04.246.085.363.135.118.05.223.113.315.188.093.075.167.167.222.277.057.108.086.238.086.39 0 .175-.031.338-.094.488-.062.147-.155.276-.277.386-.123.108-.273.193-.45.255-.178.063-.383.094-.615.094-.265 0-.505-.043-.72-.128-.215-.087-.398-.198-.548-.333l.158-.255c.02-.033.043-.058.071-.075.027-.018.064-.027.109-.027s.092.018.142.053.11.074.18.116c.073.043.159.081.259.116.102.035.23.053.382.053.13 0 .244-.016.342-.049.097-.035.178-.081.243-.139.065-.057.113-.123.143-.198.032-.075.049-.155.049-.24 0-.105-.029-.192-.087-.259-.055-.07-.128-.129-.221-.176-.092-.05-.199-.093-.319-.128-.117-.037-.238-.076-.363-.116-.123-.04-.244-.085-.364-.135-.118-.053-.223-.118-.315-.195-.093-.078-.168-.173-.225-.285-.055-.115-.083-.254-.083-.416 0-.145.03-.284.09-.417.06-.135.148-.252.263-.352.115-.103.256-.184.424-.244.167-.06.358-.09.573-.09.25 0 .474.04.672.12.2.078.372.185.517.323z" fill="#202323"/><path d="m164.15 106.796c-.137 0-.265-.063-.347-.17l-3.195-4.179c-.057-.074-.004-.182.09-.182h.741c.071 0 .138.033.18.089l2.531 3.309 2.53-3.309c.043-.056.109-.089.18-.089h.741c.094 0 .147.108.09.182l-3.195 4.179c-.082.107-.21.17-.346.17z" fill="#737777"/><rect height="5.41211" opacity=".4" rx=".675" stroke="#737777" stroke-width=".65" width="5.42843" x="68.325" y="154.151"/></svg>