<svg fill="none" height="244" viewBox="0 0 310 244" width="310" xmlns="http://www.w3.org/2000/svg" xmlns:xlink="http://www.w3.org/1999/xlink"><linearGradient id="a" gradientUnits="userSpaceOnUse" x1="248" x2="18.4329" y1=".000019" y2="174.477"><stop offset="0" stop-color="#dff2ff"/><stop offset="1" stop-color="#eae5f0"/></linearGradient><clipPath id="b"><path d="m249.385 112.908h10.8345v10.8055h-10.8345z"/></clipPath><clipPath id="c"><path d="m249.385 137.963h10.8345v10.8055h-10.8345z"/></clipPath><mask id="d" height="244" maskUnits="userSpaceOnUse" width="310" x="0" y="0"><path d="m0 0h310v244h-310z" fill="url(#a)"/></mask><path d="m0 0h310v244h-310z" fill="url(#a)"/><g mask="url(#d)"><g opacity=".2"><path d="m386.74 259.288h.325v-.325-221.2303c0-3.0232-2.45-5.474-5.474-5.474h-343.0104c-3.0232 0-5.474 2.4508-5.474 5.474v221.2303.325h.325z" fill="#fff" stroke="#202323" stroke-width=".65"/><path d="m386.74 37.7327c0-2.8437-2.305-5.149-5.149-5.149h-171.021v226.3793h176.17z" fill="#3a68ce"/><path d="m270.582 185.293h81.309" stroke="#fcfcfc" stroke-opacity=".2" stroke-width=".440753"/><path d="m270.582 157.78h81.309" stroke="#fcfcfc" stroke-opacity=".2" stroke-width=".440753"/><g fill="#fcfcfc"><path d="m270.49 110.634c0-.837.679-1.516 1.516-1.516h93.464c.837 0 1.515.679 1.515 1.516s-.678 1.515-1.515 1.515h-93.464c-.837 0-1.516-.678-1.516-1.515z" fill-opacity=".2"/><path d="m270.49 135.689c0-.838.679-1.516 1.516-1.516h93.464c.837 0 1.515.678 1.515 1.516 0 .837-.678 1.515-1.515 1.515h-93.464c-.837 0-1.516-.678-1.516-1.515z" fill-opacity=".2"/><path d="m270.49 122c0-.837.679-1.516 1.516-1.516h11.405c.837 0 1.516.679 1.516 1.516s-.679 1.516-1.516 1.516h-11.405c-.837 0-1.516-.679-1.516-1.516z" fill-opacity=".2"/><path d="m270.49 147.055c0-.837.679-1.516 1.516-1.516h11.405c.837 0 1.516.679 1.516 1.516s-.679 1.515-1.516 1.515h-11.405c-.837 0-1.516-.678-1.516-1.515z" fill-opacity=".2"/><path d="m245.416 89.4162c0-.837.679-1.5156 1.516-1.5156h28.12c.837 0 1.516.6786 1.516 1.5156s-.679 1.5155-1.516 1.5155h-28.12c-.837 0-1.516-.6785-1.516-1.5155z" fill-opacity=".2"/><path d="m270.49 165.858c0-.837.679-1.516 1.516-1.516h16.724c.837 0 1.515.679 1.515 1.516s-.678 1.515-1.515 1.515h-16.724c-.837 0-1.516-.678-1.516-1.515z" fill-opacity=".2"/><path d="m270.49 177.982c0-.837.679-1.515 1.516-1.515h6.086c.837 0 1.516.678 1.516 1.515s-.679 1.516-1.516 1.516h-6.086c-.837 0-1.516-.679-1.516-1.516z" fill-opacity=".2"/><path d="m270.49 191.622c0-.837.679-1.516 1.516-1.516h22.042c.837 0 1.516.679 1.516 1.516s-.679 1.515-1.516 1.515h-22.042c-.837 0-1.516-.678-1.516-1.515z" fill-opacity=".2"/></g><path d="m245.412 108.945h18.4187v18.3693h-18.4187z" fill="#d9d9d9"/><path d="m245 109h19v19h-19z" fill="#d5e2ff"/><g clip-path="url(#b)"><path d="m250.8 122.324c-.874-1.005-1.355-2.293-1.355-3.625 0-3.153 2.263-5.53 5.264-5.53 3.055 0 5.449 2.421 5.449 5.512 0 1.299-.447 2.407-1.406 3.488l-.531-.468c.837-.944 1.228-1.904 1.228-3.02 0-2.694-2.082-4.805-4.74-4.805-2.596 0-4.555 2.073-4.555 4.823 0 1.162.42 2.285 1.182 3.162z" fill="#0e1414" fill-opacity=".6"/><path d="m251.744 118.326c.683 0 1.241.557 1.241 1.238v2.911c0 .681-.558 1.238-1.241 1.238" fill="#f44f7e"/><path d="m251.1 123.713h.675v-5.387h-.585c-.05 0-.09.041-.09.091z" fill="#0e1414"/><path d="m251.094 122.511h-.661c-.051 0-.091-.04-.091-.09v-2.796c0-.05.04-.091.091-.091h.661z" fill="#3a68ce"/><path d="m257.839 118.326c-.683 0-1.241.557-1.241 1.238v2.911c0 .681.558 1.238 1.241 1.238" fill="#f44f7e"/><path d="m258.397 123.713h-.585v-5.387h.585c.05 0 .091.041.091.091v5.206c0 .05-.041.09-.091.09z" fill="#0e1414"/><path d="m258.49 122.511h.662c.05 0 .091-.04.091-.09v-2.796c0-.05-.041-.091-.091-.091h-.662z" fill="#3a68ce"/><path d="m259.617 115.613c-1.014-1.674-2.836-2.705-4.805-2.705-1.998 0-3.829 1.032-4.828 2.708-.057.095-.02.219.077.272l.828.451c.094.051.209.017.265-.074.763-1.253 2.147-2.023 3.658-2.023 1.487 0 2.864.772 3.641 2.028.056.091.171.124.265.072l.824-.457c.097-.054.133-.178.075-.272z" fill="#0e1414"/></g><path d="m245.412 134h18.4187v18.3693h-18.4187z" fill="#d5e2ff"/><g clip-path="url(#c)"><path d="m250.8 147.379c-.874-1.005-1.355-2.293-1.355-3.625 0-3.153 2.263-5.53 5.264-5.53 3.055 0 5.449 2.421 5.449 5.512 0 1.299-.447 2.407-1.406 3.488l-.531-.468c.837-.944 1.228-1.904 1.228-3.02 0-2.694-2.082-4.805-4.74-4.805-2.596 0-4.555 2.073-4.555 4.823 0 1.162.42 2.285 1.182 3.162z" fill="#0e1414" fill-opacity=".6"/><path d="m251.744 143.381c.683 0 1.241.557 1.241 1.238v2.911c0 .681-.558 1.238-1.241 1.238" fill="#f44f7e"/><path d="m251.1 148.768h.675v-5.387h-.585c-.05 0-.09.041-.09.091z" fill="#0e1414"/><path d="m251.094 147.566h-.661c-.051 0-.091-.04-.091-.09v-2.796c0-.05.04-.091.091-.091h.661z" fill="#3a68ce"/><path d="m257.839 143.381c-.683 0-1.241.557-1.241 1.238v2.911c0 .681.558 1.238 1.241 1.238" fill="#f44f7e"/><path d="m258.397 148.768h-.585v-5.387h.585c.05 0 .091.041.091.091v5.206c0 .05-.041.09-.091.09z" fill="#0e1414"/><path d="m258.49 147.566h.662c.05 0 .091-.04.091-.09v-2.796c0-.05-.041-.091-.091-.091h-.662z" fill="#3a68ce"/><path d="m259.617 140.667c-1.014-1.673-2.836-2.704-4.805-2.704-1.998 0-3.829 1.032-4.828 2.708-.057.095-.02.219.077.272l.828.451c.094.051.209.017.265-.074.763-1.253 2.147-2.023 3.658-2.023 1.487 0 2.864.772 3.641 2.028.056.091.171.124.265.072l.824-.457c.097-.054.133-.178.075-.273z" fill="#0e1414"/></g><path d="m245 134h19v19h-19z" fill="#d5e2ff"/><path d="m252.053 142.12v-1.496c0-1.298 1.052-2.35 2.35-2.35 1.298 0 2.351 1.052 2.351 2.35v1.496" stroke="#5d6672" stroke-width=".8"/><path clip-rule="evenodd" d="m250.982 142.62c0-.276.224-.5.5-.5h5.838c.276 0 .5.224.5.5v5.41c0 .277-.224.5-.5.5h-5.838c-.276 0-.5-.223-.5-.5zm3.42.782c-.473 0-.855.382-.855.855 0 .334.191.623.47.763v1.374h.769v-1.373c.279-.141.47-.43.47-.764 0-.473-.381-.855-.854-.855z" fill="#0e1414" fill-rule="evenodd"/><path d="m250.984 147.676v.355c0 .276.224.5.5.5h5.838c.276 0 .5-.224.5-.5v-.355z" fill="#f44f7e"/><path d="m249.584 79.9228c.467-.0618.82-.2182 1.058-.4695.242-.2556.363-.5884.363-.9983 0-.1674-.031-.3129-.092-.4363-.058-.1278-.141-.2402-.252-.3372-.105-.0969-.231-.1807-.376-.2512-.146-.0705-.304-.1366-.476-.1983zm-.423-6.9882c-.247.0309-.456.0838-.628.1587-.172.0705-.313.1587-.423.2644-.111.1058-.192.2248-.245.357-.049.1323-.073.2711-.073.4166 0 .1674.029.3151.086.4429.062.1234.143.2358.245.3372.106.097.229.1851.37.2644.141.075.295.1455.463.2116zm.773 2.7701c.318.097.633.205.946.324.313.1146.592.2645.839.4496.252.1851.454.4165.609.6942.154.2732.231.617.231 1.0313 0 .4099-.068.7956-.205 1.157-.137.357-.337.6743-.602.952-.264.2733-.588.4981-.972.6744-.383.1719-.822.2732-1.315.3041l-.08.9718c-.004.1014-.048.194-.132.2777-.079.0882-.18.1322-.304.1322h-.601l.119-1.4148c-.516-.0705-1.001-.2115-1.455-.4231s-.84-.4738-1.157-.7867l.503-.7471c.044-.0661.101-.119.171-.1587.075-.0441.155-.0661.238-.0661.097 0 .201.0353.311.1058.11.0661.236.1454.377.238.141.0881.302.1785.483.2711.18.0925.394.1608.641.2049l.245-2.9552c-.313-.0882-.624-.1918-.933-.3108-.304-.119-.579-.2754-.826-.4694-.242-.1983-.439-.4473-.588-.7471-.15-.2997-.225-.6743-.225-1.1239 0-.3349.066-.6611.198-.9784.132-.3218.326-.6083.582-.8595.26-.2512.577-.4584.952-.6215.375-.163.804-.2556 1.289-.2776l.073-.8331c.009-.1057.053-.2005.132-.2843.079-.0837.183-.1256.311-.1256h.601l-.105 1.2958c.467.075.87.2094 1.209.4033.34.1896.633.4033.88.6413l-.397.6017c-.057.0881-.117.1542-.178.1983-.062.0441-.137.0661-.225.0661-.066 0-.146-.0198-.238-.0595-.093-.0441-.196-.0948-.311-.1521-.114-.0617-.245-.1234-.39-.1851-.141-.0617-.297-.1124-.469-.152zm3.862-1.4015c.066-.4584.194-.8595.384-1.2033.189-.3482.425-.6369.707-.8661.287-.2336.613-.4077.979-.5223.37-.119.767-.1785 1.19-.1785.44 0 .837.0639 1.19.1917.357.1235.661.2976.912.5223.251.2204.443.4805.575.7802.137.2997.205.6236.205.9718 0 .3042-.035.573-.106.8066-.066.2292-.163.4297-.291.6016-.127.1719-.286.3174-.476.4364-.189.119-.403.2182-.641.2975.573.1807 1.001.4562 1.283.8264s.423.8352.423 1.395c0 .476-.088.8969-.265 1.2627-.176.3659-.414.6744-.714.9256-.299.2468-.647.4342-1.044.562-.392.1278-.809.1917-1.25.1917-.48 0-.899-.0551-1.256-.1653s-.668-.2732-.932-.4892-.489-.4804-.674-.7934c-.186-.3129-.344-.6743-.476-1.0842l.72-.2975c.19-.0794.366-.0992.529-.0595.168.0352.289.1234.364.2644.079.1543.165.3064.258.4562.097.1499.211.2843.343.4033.133.1146.287.2094.463.2843.181.0705.395.1058.641.1058.278 0 .521-.0441.728-.1323.207-.0925.379-.2115.515-.357.141-.1454.245-.3063.311-.4826.071-.1807.106-.3614.106-.5421 0-.2292-.024-.4364-.073-.6215-.048-.1895-.15-.3504-.304-.4826s-.377-.2358-.668-.3107c-.286-.075-.672-.1124-1.157-.1124v-1.1636c.401-.0044.734-.0419.999-.1124.264-.0705.473-.1675.628-.2909.158-.1278.269-.2799.33-.4562.062-.1763.093-.3702.093-.5818 0-.4495-.126-.7911-.377-1.0247s-.586-.3504-1.005-.3504c-.194 0-.372.0286-.535.0859-.164.0529-.311.13-.443.2314-.128.097-.236.2116-.324.3438-.089.1322-.155.2777-.199.4363-.075.2028-.174.3372-.297.4033-.119.0661-.289.0816-.509.0463zm7.737 8.5153c-.08-.0661-.119-.1477-.119-.2446 0-.0353.011-.0749.033-.119.026-.0441.057-.0838.092-.119.049-.0529.108-.119.179-.1984.07-.0749.141-.163.211-.2644.071-.097.135-.205.192-.324.062-.1146.108-.238.139-.3702-.141 0-.269-.0242-.384-.0727-.114-.0529-.213-.1234-.297-.2116-.08-.0881-.143-.1917-.192-.3107-.044-.119-.066-.249-.066-.3901 0-.1234.022-.238.066-.3438.049-.1102.115-.2049.198-.2843.084-.0837.186-.1476.305-.1917.119-.0485.249-.0727.39-.0727.167 0 .313.0308.436.0925.128.0573.231.1389.311.2447.083.1013.145.2203.185.357.044.1322.066.2732.066.4231 0 .2116-.033.4341-.099.6677-.062.2336-.155.4672-.278.7008s-.278.4606-.463.681c-.18.2204-.388.4231-.621.6082zm5.77-7.7088-.331.4099c.185-.0925.383-.163.595-.2115.216-.0529.447-.0794.694-.0794.362 0 .712.0595 1.051.1785.344.119.646.2998.906.5422.26.238.469.5355.628.8925s.238.7735.238 1.2495c0 .4452-.081.8639-.244 1.2562-.164.3878-.393.7272-.688 1.0181s-.652.5201-1.071.6876c-.414.1675-.873.2512-1.375.2512-.511 0-.97-.0815-1.375-.2446-.406-.1631-.752-.3901-1.038-.681-.287-.2953-.507-.6479-.661-1.0578-.15-.4143-.225-.8727-.225-1.3751 0-.4496.09-.9102.271-1.3818.185-.476.469-.9696.853-1.4809l2.281-3.061c.079-.1058.194-.1962.343-.2711.155-.0749.331-.1124.529-.1124h1.455zm.37 4.8593c.26 0 .498-.044.714-.1322.22-.0881.407-.2116.562-.3702.158-.1587.282-.3438.37-.5554.088-.2159.132-.4495.132-.7008 0-.2732-.042-.5179-.125-.7338-.084-.2204-.203-.4055-.357-.5554-.155-.1542-.34-.271-.556-.3504-.216-.0793-.454-.119-.714-.119s-.496.0441-.707.1322c-.212.0882-.392.2116-.542.3703-.15.1542-.267.3394-.351.5553-.083.2116-.125.4408-.125.6876 0 .2645.035.5069.105.7272.075.216.183.4011.324.5554.146.1543.324.2755.536.3636.211.0838.456.1256.734.1256zm11.187-3.5502c0 .833-.09 1.558-.271 2.1751-.176.6126-.423 1.1195-.74 1.5206-.313.4011-.686.7008-1.118.8991-.427.1939-.89.2909-1.388.2909s-.961-.097-1.388-.2909c-.424-.1983-.792-.498-1.105-.8991s-.557-.908-.733-1.5206c-.177-.6171-.265-1.3421-.265-2.1751 0-.8375.088-1.5625.265-2.1751.176-.6127.42-1.1196.733-1.5206.313-.4011.681-.6986 1.105-.8926.427-.1983.89-.2975 1.388-.2975s.961.0992 1.388.2975c.432.194.805.4915 1.118.8926.317.401.564.9079.74 1.5206.181.6126.271 1.3376.271 2.1751zm-1.686 0c0-.692-.05-1.265-.152-1.719-.101-.4539-.238-.8154-.41-1.0842-.167-.2689-.361-.4562-.582-.562-.22-.1102-.449-.1653-.687-.1653-.234 0-.461.0551-.681.1653-.216.1058-.408.2931-.575.562-.168.2688-.302.6303-.404 1.0842-.097.454-.145 1.027-.145 1.719 0 .6919.048 1.2649.145 1.7189.102.454.236.8154.404 1.0843.167.2688.359.4583.575.5685.22.1058.447.1587.681.1587.238 0 .467-.0529.687-.1587.221-.1102.415-.2997.582-.5685.172-.2689.309-.6303.41-1.0843.102-.454.152-1.027.152-1.7189zm9.356 0c0 .833-.09 1.558-.271 2.1751-.176.6126-.423 1.1195-.74 1.5206-.313.4011-.686.7008-1.118.8991-.427.1939-.89.2909-1.388.2909s-.961-.097-1.388-.2909c-.423-.1983-.792-.498-1.104-.8991-.313-.4011-.558-.908-.734-1.5206-.177-.6171-.265-1.3421-.265-2.1751 0-.8375.088-1.5625.265-2.1751.176-.6127.421-1.1196.734-1.5206.312-.4011.681-.6986 1.104-.8926.427-.1983.89-.2975 1.388-.2975s.961.0992 1.388.2975c.432.194.805.4915 1.118.8926.317.401.564.9079.74 1.5206.181.6126.271 1.3376.271 2.1751zm-1.686 0c0-.692-.05-1.265-.152-1.719-.101-.4539-.238-.8154-.41-1.0842-.167-.2689-.361-.4562-.581-.562-.221-.1102-.45-.1653-.688-.1653-.234 0-.461.0551-.681.1653-.216.1058-.408.2931-.575.562-.168.2688-.302.6303-.403 1.0842-.097.454-.146 1.027-.146 1.719 0 .6919.049 1.2649.146 1.7189.101.454.235.8154.403 1.0843.167.2688.359.4583.575.5685.22.1058.447.1587.681.1587.238 0 .467-.0529.688-.1587.22-.1102.414-.2997.581-.5685.172-.2689.309-.6303.41-1.0843.102-.454.152-1.027.152-1.7189zm2.586 3.8808c0-.1366.025-.2667.073-.3901.053-.1234.124-.2292.212-.3173.088-.0882.194-.1587.317-.2116s.256-.0793.397-.0793.271.0264.39.0793c.123.0529.229.1234.317.2116.093.0881.165.1939.218.3173s.08.2535.08.3901c0 .141-.027.2733-.08.3967-.053.119-.125.2226-.218.3107-.088.0882-.194.1565-.317.205-.119.0528-.249.0793-.39.0793s-.274-.0265-.397-.0793c-.123-.0485-.229-.1168-.317-.205-.088-.0881-.159-.1917-.212-.3107-.048-.1234-.073-.2557-.073-.3967zm9.908-3.8808c0 .833-.09 1.558-.271 2.1751-.176.6126-.423 1.1195-.74 1.5206-.313.4011-.686.7008-1.118.8991-.427.1939-.89.2909-1.388.2909s-.961-.097-1.388-.2909c-.424-.1983-.792-.498-1.105-.8991-.312-.4011-.557-.908-.733-1.5206-.177-.6171-.265-1.3421-.265-2.1751 0-.8375.088-1.5625.265-2.1751.176-.6127.421-1.1196.733-1.5206.313-.4011.681-.6986 1.105-.8926.427-.1983.89-.2975 1.388-.2975s.961.0992 1.388.2975c.432.194.805.4915 1.118.8926.317.401.564.9079.74 1.5206.181.6126.271 1.3376.271 2.1751zm-1.686 0c0-.692-.05-1.265-.152-1.719-.101-.4539-.238-.8154-.41-1.0842-.167-.2689-.361-.4562-.582-.562-.22-.1102-.449-.1653-.687-.1653-.234 0-.461.0551-.681.1653-.216.1058-.408.2931-.575.562-.168.2688-.302.6303-.404 1.0842-.096.454-.145 1.027-.145 1.719 0 .6919.049 1.2649.145 1.7189.102.454.236.8154.404 1.0843.167.2688.359.4583.575.5685.22.1058.447.1587.681.1587.238 0 .467-.0529.687-.1587.221-.1102.415-.2997.582-.5685.172-.2689.309-.6303.41-1.0843.102-.454.152-1.027.152-1.7189zm9.356 0c0 .833-.09 1.558-.271 2.1751-.176.6126-.423 1.1195-.74 1.5206-.313.4011-.686.7008-1.118.8991-.427.1939-.89.2909-1.388.2909s-.961-.097-1.388-.2909c-.423-.1983-.791-.498-1.104-.8991s-.558-.908-.734-1.5206c-.177-.6171-.265-1.3421-.265-2.1751 0-.8375.088-1.5625.265-2.1751.176-.6127.421-1.1196.734-1.5206.313-.4011.681-.6986 1.104-.8926.427-.1983.89-.2975 1.388-.2975s.961.0992 1.388.2975c.432.194.805.4915 1.118.8926.317.401.564.9079.74 1.5206.181.6126.271 1.3376.271 2.1751zm-1.686 0c0-.692-.05-1.265-.152-1.719-.101-.4539-.238-.8154-.41-1.0842-.167-.2689-.361-.4562-.581-.562-.221-.1102-.45-.1653-.688-.1653-.234 0-.461.0551-.681.1653-.216.1058-.408.2931-.575.562-.168.2688-.302.6303-.403 1.0842-.097.454-.146 1.027-.146 1.719 0 .6919.049 1.2649.146 1.7189.101.454.235.8154.403 1.0843.167.2688.359.4583.575.5685.22.1058.447.1587.681.1587.238 0 .467-.0529.688-.1587.22-.1102.414-.2997.581-.5685.172-.2689.309-.6303.41-1.0843.102-.454.152-1.027.152-1.7189z" fill="#fcfcfc"/></g></g><g stroke-width=".65"><path d="m58 62.9651v-1.9767h.325v-.6634h.6672v-.325h1.9844v.325h1.9843v-.325h1.9844v.325h1.9844v-.325h1.9844v.325h1.9843v-.325h1.9844v.325h1.9844v-.325h1.9844v.325h1.9843v-.325h1.9844v.325h1.9844v-.325h1.9844v.325h1.9843v-.325h1.9844v.325h1.9844v-.325h1.9844v.325h1.9843v-.325h1.9844v.325h1.9844v-.325h1.9843v.325h1.984v-.325h1.985v.325h1.984v-.325h1.985v.325h1.984v-.325h1.984v.325h1.985v-.325h1.984v.325h1.984v-.325h1.985v.325h1.984v-.325h1.985v.325h1.984v-.325h1.984v.325h1.985v-.325h1.984v.325h1.984v-.325h1.985v.325h1.984v-.325h1.985v.325h1.984v-.325h1.984v.325h1.985v-.325h1.984v.325h1.984v-.325h1.985v.325h1.984v-.325h1.985v.325h1.984v-.325h1.984v.325h1.985v-.325h1.984v.325h1.984v-.325h1.985v.325h1.984v-.325h1.985v.325h1.984v-.325h1.984v.325h1.985v-.325h1.984v.325h1.984v-.325h1.985v.325h.667v.6633h.325v1.9767h-.325v1.9768h.325v1.9767h-.325v1.9768h.325v1.9767h-.325v1.9768h.325v1.9767h-.325v1.9767h.325v1.9768h-.325v1.9767h.325v1.9768h-.325v1.9767h.325v1.9768h-.325v1.9767h.325v1.9768h-.325v1.9767h.325v1.9768h-.325v1.9767h.325v1.9767h-.325v1.9766h.325v1.977h-.325v1.977h.325v1.976h-.325v1.977h.325v1.977h-.325v1.977h.325v1.976h-.325v1.977h.325v1.977h-.325v1.977h.325v1.976h-.325v1.977h.325v1.977h-.325v1.977h.325v1.976h-.325v1.977h.325v1.977h-.325v1.977h.325v1.976h-.325v1.977h.325v1.977h-.325v1.977h.325v1.976h-.325v1.977h.325v1.977h-.325v1.977h.325v1.976h-.325v1.977h.325v1.977h-.325v1.977h.325v1.976h-.325v1.977h.325v1.977h-.325v1.977h.325v1.976h-.325v1.977h.325v1.977h-.325v1.977h.325v1.976h-.325v1.977h.325v1.977h-.325v1.977h.325v1.976h-.325v1.977h.325v1.977h-.325v1.976h.325v1.977h-.325v1.977h.325v1.977h-.325v1.976h.325v1.977h-.325v1.977h.325v1.977h-.325v1.976h.325v1.977h-.325v1.977h.325v1.977h-.325v1.976h.325v1.977h-.325v1.977h.325v1.977h-.325v1.976h.325v1.977h-.325v1.977h.325v1.977h-.325v.663h-.667v.325h-1.985v-.325h-1.984v.325h-1.984v-.325h-1.985v.325h-1.984v-.325h-1.984v.325h-1.985v-.325h-1.984v.325h-1.985v-.325h-1.984v.325h-1.984v-.325h-1.985v.325h-1.984v-.325h-1.984v.325h-1.985v-.325h-1.984v.325h-1.985v-.325h-1.984v.325h-1.984v-.325h-1.985v.325h-1.984v-.325h-1.984v.325h-1.985v-.325h-1.984v.325h-1.985v-.325h-1.984v.325h-1.984v-.325h-1.985v.325h-1.984v-.325h-1.984v.325h-1.985v-.325h-1.984v.325h-1.985v-.325h-1.984v.325h-1.984v-.325h-1.985v.325h-1.984v-.325h-1.984v.325h-1.985v-.325h-1.984v.325h-1.985v-.325h-1.984v.325h-1.9843v-.325h-1.9844v.325h-1.9844v-.325h-1.9843v.325h-1.9844v-.325h-1.9844v.325h-1.9844v-.325h-1.9843v.325h-1.9844v-.325h-1.9844v.325h-1.9844v-.325h-1.9843v.325h-1.9844v-.325h-1.9844v.325h-1.9844v-.325h-1.9843v.325h-1.9844v-.325h-1.9844v.325h-1.9844v-.325h-1.9843v.325h-1.9844v-.325h-.6672v-.663h-.325v-1.977h.325v-1.977h-.325v-1.977h.325v-1.976h-.325v-1.977h.325v-1.977h-.325v-1.977h.325v-1.976h-.325v-1.977h.325v-1.977h-.325v-1.976h.325v-1.977h-.325v-1.977h.325v-1.977h-.325v-1.976h.325v-1.977h-.325v-1.977h.325v-1.977h-.325v-1.976h.325v-1.977h-.325v-1.977h.325v-1.977h-.325v-1.976h.325v-1.977h-.325v-1.977h.325v-1.977h-.325v-1.976h.325v-1.977h-.325v-1.977h.325v-1.977h-.325v-1.976h.325v-1.977h-.325v-1.977h.325v-1.977h-.325v-1.976h.325v-1.977h-.325v-1.977h.325v-1.977h-.325v-1.976h.325v-1.977h-.325v-1.977h.325v-1.977h-.325v-1.976h.325v-1.977h-.325v-1.977h.325v-1.977h-.325v-1.976h.325v-1.977h-.325v-1.977h.325v-1.977h-.325v-1.976h.325v-1.977h-.325v-1.977h.325v-1.977h-.325v-1.976h.325v-1.977h-.325v-1.977h.325v-1.977h-.325v-1.976h.325v-1.977h-.325v-1.977h.325v-1.977h-.325v-1.976h.325v-1.977h-.325v-1.977h.325v-1.9765h-.325v-1.9767h.325v-1.9768h-.325v-1.9767h.325v-1.9768h-.325v-1.9767h.325v-1.9768h-.325v-1.9767h.325v-1.9767h-.325v-1.9768h.325v-1.9767h-.325v-1.9768h.325v-1.9767h-.325v-1.9768h.325v-1.9767h-.325v-1.9768h.325v-1.9767h-.325v-1.9767h.325v-1.9768z" fill="#fff" stroke="#000" stroke-dasharray="2 2"/><path d="m184.699 49.7v10.6188h10.619" stroke="#202323"/><path d="m47.6992 60.3 10.6189.0001v-10.6189" stroke="#202323"/><path d="m58.3496 240.3v-10.619h-10.6189" stroke="#202323"/><path d="m195.301 229.7h-10.619v10.619" stroke="#202323"/></g><rect fill="#bbbfbf" height="4.54658" opacity=".4" rx="1.87143" width="91.9363" x="82.8184" y="153.826"/><rect fill="#bbbfbf" height="4.54658" opacity=".4" rx="1.87143" width="40.2696" x="82.8184" y="161.404"/><path d="m68.3809 206.824c0-2.067 1.6757-3.743 3.7428-3.743h98.8873c2.067 0 3.742 1.676 3.742 3.743v9.185c0 2.067-1.675 3.743-3.742 3.743h-98.8873c-2.0671 0-3.7428-1.676-3.7428-3.743z" fill="#3a68ce"/><path d="m109.761 212.636c.058 0 .11.023.156.068l.424.46c-.235.291-.524.513-.868.668-.342.155-.752.232-1.232.232-.43 0-.816-.073-1.16-.22-.342-.147-.634-.351-.876-.612-.243-.261-.43-.573-.56-.936-.128-.363-.192-.759-.192-1.188 0-.435.069-.832.208-1.192.138-.363.333-.675.584-.936.253-.261.554-.464.904-.608.349-.147.736-.22 1.16-.22.421 0 .794.069 1.12.208.328.139.606.32.836.544l-.36.5c-.022.032-.05.06-.084.084-.032.024-.078.036-.136.036-.04 0-.082-.011-.124-.032-.043-.024-.09-.052-.14-.084-.051-.035-.11-.072-.176-.112-.067-.04-.144-.076-.232-.108-.088-.035-.191-.063-.308-.084-.115-.024-.248-.036-.4-.036-.259 0-.496.047-.712.14-.214.091-.398.224-.552.4-.155.173-.275.387-.36.64-.086.251-.128.537-.128.86 0 .325.045.615.136.868.093.253.218.467.376.64.157.173.342.307.556.4.213.091.442.136.688.136.146 0 .278-.008.396-.024.12-.016.229-.041.328-.076.101-.035.196-.079.284-.132.09-.056.18-.124.268-.204.026-.024.054-.043.084-.056.029-.016.06-.024.092-.024zm2.891-2.804c.304 0 .58.049.828.148.25.099.464.239.64.42.178.181.316.403.412.664s.144.553.144.876c0 .325-.048.619-.144.88s-.234.484-.412.668c-.176.184-.39.325-.64.424-.248.099-.524.148-.828.148-.307 0-.586-.049-.836-.148-.251-.099-.466-.24-.644-.424-.176-.184-.314-.407-.412-.668-.096-.261-.144-.555-.144-.88 0-.323.048-.615.144-.876.098-.261.236-.483.412-.664.178-.181.393-.321.644-.42.25-.099.529-.148.836-.148zm0 3.468c.341 0 .593-.115.756-.344.165-.229.248-.565.248-1.008s-.083-.78-.248-1.012c-.163-.232-.415-.348-.756-.348-.347 0-.604.117-.772.352-.166.232-.248.568-.248 1.008s.082.776.248 1.008c.168.229.425.344.772.344zm3.701-2.9c.083-.083.17-.159.26-.228.094-.072.191-.132.292-.18.104-.051.215-.089.332-.116.118-.029.246-.044.384-.044.224 0 .423.039.596.116.174.075.318.181.432.32.118.136.206.3.264.492.062.189.092.399.092.628v2.612h-.988v-2.612c0-.251-.057-.444-.172-.58-.114-.139-.289-.208-.524-.208-.17 0-.33.039-.48.116-.149.077-.29.183-.424.316v2.968h-.988v-4.104h.604c.128 0 .212.06.252.18zm7.677 3.6h-.988v-3.364h-1.904v2.224c0 .128.031.228.092.3.064.072.151.108.26.108.062 0 .112-.007.152-.02.043-.016.079-.032.108-.048.032-.016.06-.031.084-.044.024-.016.048-.024.072-.024.03 0 .054.008.072.024.019.013.039.035.06.064l.296.48c-.144.12-.309.211-.496.272-.186.061-.38.092-.58.092-.357 0-.632-.1-.824-.3-.189-.203-.284-.481-.284-.836v-2.292h-.42c-.053 0-.098-.017-.136-.052-.037-.035-.056-.087-.056-.156v-.392l.66-.112.208-1.116c.014-.053.039-.095.076-.124.038-.029.086-.044.144-.044h.512v1.292h2.892zm.172-5.316c0 .085-.017.167-.052.244-.034.075-.081.14-.14.196-.056.056-.124.101-.204.136-.077.032-.16.048-.248.048-.085 0-.165-.016-.24-.048-.074-.035-.14-.08-.196-.136s-.101-.121-.136-.196c-.032-.077-.048-.159-.048-.244 0-.088.016-.169.048-.244.035-.077.08-.144.136-.2.056-.059.122-.104.196-.136.075-.035.155-.052.24-.052.088 0 .171.017.248.052.08.032.148.077.204.136.059.056.106.123.14.2.035.075.052.156.052.244zm1.761 1.716c.082-.083.169-.159.26-.228.093-.072.19-.132.292-.18.104-.051.214-.089.332-.116.117-.029.245-.044.384-.044.224 0 .422.039.596.116.173.075.317.181.432.32.117.136.205.3.264.492.061.189.092.399.092.628v2.612h-.988v-2.612c0-.251-.058-.444-.172-.58-.115-.139-.29-.208-.524-.208-.171 0-.331.039-.48.116-.15.077-.291.183-.424.316v2.968h-.988v-4.104h.604c.128 0 .212.06.252.18zm7.127-.504v4.104h-.604c-.13 0-.213-.06-.248-.18l-.068-.328c-.168.171-.353.309-.556.416-.202.104-.441.156-.716.156-.224 0-.422-.037-.596-.112-.17-.077-.314-.185-.432-.324-.117-.139-.206-.303-.268-.492-.058-.192-.088-.403-.088-.632v-2.608h.988v2.608c0 .251.058.445.172.584.118.136.292.204.524.204.171 0 .331-.037.48-.112.15-.077.291-.183.424-.316v-2.968zm3.624 1.58c0-.128-.019-.248-.056-.36-.035-.115-.088-.215-.16-.3s-.164-.152-.276-.2c-.109-.051-.237-.076-.384-.076-.285 0-.511.081-.676.244-.163.163-.267.393-.312.692zm-1.884.596c.016.211.053.393.112.548.059.152.136.279.232.38.096.099.209.173.34.224.133.048.28.072.44.072s.297-.019.412-.056c.117-.037.219-.079.304-.124.088-.045.164-.087.228-.124.067-.037.131-.056.192-.056.083 0 .144.031.184.092l.284.36c-.109.128-.232.236-.368.324-.136.085-.279.155-.428.208-.147.051-.297.087-.452.108-.152.021-.3.032-.444.032-.285 0-.551-.047-.796-.14-.245-.096-.459-.236-.64-.42-.181-.187-.324-.416-.428-.688-.104-.275-.156-.592-.156-.952 0-.28.045-.543.136-.788.091-.248.22-.463.388-.644.171-.184.377-.329.62-.436.245-.107.521-.16.828-.16.259 0 .497.041.716.124s.407.204.564.364c.157.157.28.352.368.584.091.229.136.492.136.788 0 .149-.016.251-.048.304-.032.051-.093.076-.184.076z" fill="#fff"/><rect height="16.0208" opacity=".4" rx="3.41786" stroke="#737777" stroke-width=".65" width="106.35" x="68.325" y="124.126"/><path d="m74.3093 131.34c0 .17.0237.323.0712.458.05.132.12.245.21.337.0925.093.2038.163.3338.21.1325.048.28.072.4425.072.18 0 .3387-.029.4762-.087.14-.06.2575-.138.3525-.236.095-.097.1675-.21.2175-.337.05-.128.075-.26.075-.398 0-.167-.0275-.319-.0825-.454-.0525-.137-.1262-.253-.2212-.348s-.2088-.168-.3413-.218c-.13-.052-.2737-.079-.4312-.079-.165 0-.315.028-.45.083-.135.052-.2513.126-.3488.221s-.1725.209-.225.341c-.0525.133-.0787.278-.0787.435zm1.56 1.654c.055-.072.1062-.141.1537-.206s.0925-.13.135-.195c-.1375.11-.2925.194-.465.251-.1725.058-.355.086-.5475.086-.2025 0-.395-.033-.5775-.101-.18-.067-.3387-.166-.4762-.296-.1375-.133-.2475-.294-.33-.484-.08-.192-.12-.412-.12-.66 0-.235.0437-.455.1312-.66s.21-.384.3675-.536c.1575-.153.345-.273.5625-.36.2175-.088.4563-.131.7163-.131.2575 0 .4912.042.7012.127s.39.204.54.356c.15.153.265.335.345.548.0825.212.1238.447.1238.705 0 .155-.015.302-.045.442-.0275.138-.0688.274-.1238.409-.0525.133-.1175.265-.195.398-.0775.13-.165.263-.2625.401l-1.3087 1.89c-.0325.047-.0788.086-.1388.116-.06.028-.1287.041-.2062.041h-.615zm3.9043 1.669c.175 0 .3313-.024.4688-.071.14-.05.2575-.119.3525-.207.0975-.09.1712-.196.2212-.318.0525-.125.0788-.263.0788-.413 0-.185-.0313-.342-.0938-.472-.06-.133-.1425-.24-.2475-.323-.1025-.082-.2212-.142-.3562-.18-.135-.04-.2763-.06-.4238-.06s-.2887.02-.4237.06c-.135.038-.255.098-.36.18-.1025.083-.185.19-.2475.323-.06.13-.09.287-.09.472 0 .15.025.288.075.413.0525.122.1262.228.2212.318.0975.088.215.157.3525.207.14.047.2975.071.4725.071zm0-4.444c-.16 0-.3012.024-.4237.071-.12.048-.2213.113-.3038.195-.08.083-.1412.179-.1837.289-.04.11-.06.228-.06.353 0 .122.0175.241.0525.356s.0912.217.1687.307c.0775.088.1775.159.3.214.125.053.275.079.45.079s.3238-.026.4463-.079c.125-.055.2262-.126.3037-.214.0775-.09.1338-.192.1688-.307s.0525-.234.0525-.356c0-.125-.0213-.243-.0638-.353-.04-.11-.1012-.206-.1837-.289-.08-.082-.1813-.147-.3038-.195-.12-.047-.26-.071-.42-.071zm.7688 2.115c.335.095.5925.254.7725.476.18.223.27.508.27.855 0 .235-.045.448-.135.638-.0875.187-.2113.347-.3713.48-.1575.132-.3475.235-.57.307-.2225.07-.4675.105-.735.105s-.5125-.035-.735-.105c-.2225-.072-.4137-.175-.5737-.307-.16-.133-.2838-.293-.3713-.48-.0875-.19-.1312-.403-.1312-.638 0-.347.09-.632.27-.855.18-.222.4375-.381.7725-.476-.2825-.105-.4963-.261-.6413-.469-.1425-.21-.2137-.46-.2137-.75 0-.197.0387-.382.1162-.555.0775-.172.1875-.322.33-.45.1425-.127.3125-.227.51-.3.2-.072.4225-.108.6675-.108.2425 0 .4638.036.6638.108.2.073.3712.173.5137.3.1425.128.2525.278.33.45.0775.173.1163.358.1163.555 0 .29-.0725.54-.2175.75-.1425.208-.355.364-.6375.469zm5.2243 2.291v.51h-2.88v-.51h1.1513v-3.663c0-.11.0037-.222.0112-.334l-.9562.821c-.0325.028-.065.045-.0975.053-.0325.005-.0625.005-.09 0s-.0538-.015-.0788-.03c-.0225-.015-.04-.032-.0525-.049l-.21-.289 1.6013-1.384h.5437v4.875zm4.6581-2.175c0 .47-.0512.878-.1537 1.223-.1.342-.2375.626-.4125.851s-.3825.393-.6225.503c-.2375.11-.4925.165-.765.165-.275 0-.5313-.055-.7688-.165-.235-.11-.44-.278-.615-.503s-.3125-.509-.4125-.851c-.1-.345-.15-.753-.15-1.223s.05-.877.15-1.222.2375-.63.4125-.855c.175-.228.38-.396.615-.506.2375-.11.4938-.165.7688-.165.2725 0 .5275.055.765.165.24.11.4475.278.6225.506.175.225.3125.51.4125.855.1025.345.1537.752.1537 1.222zm-.6937 0c0-.41-.035-.753-.105-1.031-.0675-.28-.16-.505-.2775-.675-.115-.17-.2488-.291-.4013-.364-.1525-.075-.3112-.112-.4762-.112s-.3238.037-.4763.112c-.1525.073-.2862.194-.4012.364s-.2075.395-.2775.675c-.0675.278-.1013.621-.1013 1.031s.0338.754.1013 1.032c.07.277.1625.501.2775.671s.2487.292.4012.367c.1525.073.3113.109.4763.109s.3237-.036.4762-.109c.1525-.075.2863-.197.4013-.367.1175-.17.21-.394.2775-.671.07-.278.105-.622.105-1.032zm1.9805-1.11c0 .17.0238.323.0713.458.05.132.12.245.21.337.0925.093.2037.163.3337.21.1325.048.28.072.4425.072.18 0 .3388-.029.4763-.087.14-.06.2575-.138.3525-.236.095-.097.1675-.21.2175-.337.05-.128.075-.26.075-.398 0-.167-.0275-.319-.0825-.454-.0525-.137-.1263-.253-.2213-.348s-.2087-.168-.3412-.218c-.13-.052-.2738-.079-.4313-.079-.165 0-.315.028-.45.083-.135.052-.2512.126-.3487.221s-.1725.209-.225.341c-.0525.133-.0788.278-.0788.435zm1.56 1.654c.055-.072.1063-.141.1538-.206s.0925-.13.135-.195c-.1375.11-.2925.194-.465.251-.1725.058-.355.086-.5475.086-.2025 0-.395-.033-.5775-.101-.18-.067-.3388-.166-.4763-.296-.1375-.133-.2475-.294-.33-.484-.08-.192-.12-.412-.12-.66 0-.235.0438-.455.1313-.66s.21-.384.3675-.536c.1575-.153.345-.273.5625-.36.2175-.088.4562-.131.7162-.131.2575 0 .4913.042.7013.127s.39.204.54.356c.15.153.265.335.345.548.0825.212.1237.447.1237.705 0 .155-.015.302-.045.442-.0275.138-.0687.274-.1237.409-.0525.133-.1175.265-.195.398-.0775.13-.165.263-.2625.401l-1.3088 1.89c-.0325.047-.0787.086-.1387.116-.06.028-.1288.041-.2063.041h-.615z" fill="#202323"/><rect height="16.0208" opacity=".4" rx="3.41786" stroke="#737777" stroke-width=".65" width="106.35" x="68.325" y="70.325"/><path d="m75.9893 77.3553c-.03.055-.0763.0825-.1388.0825-.0375 0-.08-.0137-.1275-.0412s-.1062-.0575-.1762-.09c-.0675-.035-.1488-.0663-.2438-.0938-.095-.03-.2075-.045-.3375-.045-.1125 0-.2137.015-.3037.045-.09.0275-.1675.0663-.2325.1163-.0625.05-.1113.1087-.1463.1762-.0325.065-.0487.1363-.0487.2138 0 .0975.0275.1787.0825.2437.0575.065.1325.1213.225.1688s.1975.09.315.1275c.1175.035.2375.0737.36.1162.125.04.2462.085.3637.135s.2225.1125.315.1875.1663.1675.2213.2775c.0575.1075.0862.2375.0862.39 0 .175-.0312.3375-.0937.4875-.0625.1475-.155.2763-.2775.3863-.1225.1075-.2725.1925-.45.255s-.3825.0937-.615.0937c-.265 0-.505-.0425-.72-.1275-.215-.0875-.3975-.1987-.5475-.3337l.1575-.255c.02-.0325.0437-.0575.0712-.075s.0625-.0263.105-.0263c.045 0 .0925.0175.1425.0525s.11.0738.18.1163c.0725.0425.16.0812.2625.1162s.23.0525.3825.0525c.13 0 .2438-.0162.3413-.0487.0975-.035.1787-.0813.2437-.1388s.1125-.1237.1425-.1987c.0325-.075.0488-.155.0488-.24 0-.105-.0288-.1913-.0863-.2588-.055-.07-.1287-.1287-.2212-.1762-.0925-.05-.1988-.0925-.3188-.1275-.1175-.0375-.2387-.0763-.3637-.1163-.1225-.04-.2438-.085-.3638-.135-.1175-.0525-.2225-.1175-.315-.195s-.1675-.1725-.225-.285c-.055-.115-.0825-.2537-.0825-.4162 0-.145.03-.2838.09-.4163.06-.135.1475-.2525.2625-.3525.115-.1025.2563-.1837.4238-.2437s.3587-.09.5737-.09c.25 0 .4738.04.6713.12.2.0775.3725.185.5175.3225zm2.6334-.6862c.2775 0 .5275.0462.75.1387s.4125.2238.57.3938.2775.3762.36.6187c.085.24.1275.5088.1275.8063 0 .3-.0425.57-.1275.81-.0825.24-.2025.445-.36.615s-.3475.3012-.57.3937c-.2225.09-.4725.135-.75.135-.28 0-.5325-.045-.7575-.135-.2225-.0925-.4125-.2237-.57-.3937s-.2788-.375-.3638-.615c-.0825-.24-.1237-.51-.1237-.81 0-.2975.0412-.5663.1237-.8063.085-.2425.2063-.4487.3638-.6187s.3475-.3013.57-.3938c.225-.0925.4775-.1387.7575-.1387zm0 3.39c.375 0 .655-.125.84-.375.185-.2525.2775-.6038.2775-1.0538 0-.4525-.0925-.805-.2775-1.0575s-.465-.3787-.84-.3787c-.19 0-.3563.0325-.4988.0975-.14.065-.2575.1587-.3525.2812-.0925.1225-.1625.2738-.21.4538-.045.1775-.0675.3787-.0675.6037 0 .45.0925.8013.2775 1.0538.1875.25.4713.375.8513.375zm2.6541.4687v-3.7987h.4012c.095 0 .1538.0462.1763.1387l.0487.39c.14-.1725.2975-.3137.4725-.4237s.3775-.165.6075-.165c.255 0 .4613.0712.6188.2137.16.1425.275.335.345.5775.055-.1375.125-.2562.21-.3562.0875-.1.185-.1825.2925-.2475s.2212-.1125.3412-.1425c.1225-.03.2463-.045.3713-.045.2 0 .3775.0325.5325.0975.1575.0625.29.155.3975.2775.11.1225.1937.2737.2512.4537.0575.1775.0863.3813.0863.6113v2.4187h-.6713v-2.4187c0-.2975-.065-.5225-.195-.675-.13-.155-.3175-.2325-.5625-.2325-.11 0-.215.02-.315.06-.0975.0375-.1837.0937-.2587.1687s-.135.17-.18.285c-.0425.1125-.0638.2438-.0638.3938v2.4187h-.6712v-2.4187c0-.305-.0613-.5325-.1838-.6825s-.3012-.225-.5362-.225c-.165 0-.3175.045-.4575.135-.14.0875-.2688.2075-.3863.36v2.8312zm8.7095-2.3137c0-.155-.0225-.2963-.0675-.4238-.0425-.13-.1063-.2412-.1913-.3337-.0825-.095-.1837-.1675-.3037-.2175-.12-.0525-.2563-.0788-.4088-.0788-.32 0-.5737.0938-.7612.2813-.185.185-.3.4425-.345.7725zm.54 1.7812c-.0825.1-.1813.1875-.2963.2625-.115.0725-.2387.1325-.3712.18-.13.0475-.265.0825-.405.105-.14.025-.2788.0375-.4163.0375-.2625 0-.505-.0437-.7275-.1312-.22-.09-.4112-.22-.5737-.39-.16-.1725-.285-.385-.375-.6375s-.135-.5425-.135-.87c0-.265.04-.5125.12-.7425.0825-.23.2-.4288.3525-.5963.1525-.17.3387-.3025.5587-.3975.22-.0975.4675-.1462.7425-.1462.2275 0 .4375.0387.63.1162.195.075.3625.185.5025.33.1425.1425.2538.32.3338.5325.08.21.12.45.12.72 0 .105-.0113.175-.0338.21s-.065.0525-.1275.0525h-2.5387c.0075.24.04.4488.0975.6263.06.1775.1425.3262.2475.4462.105.1175.23.2063.375.2663.145.0575.3075.0862.4875.0862.1675 0 .3112-.0187.4312-.0562.1225-.04.2275-.0825.315-.1275s.16-.0863.2175-.1238c.06-.04.1113-.06.1538-.06.055 0 .0975.0213.1275.0638zm2.4811-3.3262c.2775 0 .5275.0462.75.1387s.4125.2238.57.3938.2775.3762.36.6187c.085.24.1275.5088.1275.8063 0 .3-.0425.57-.1275.81-.0825.24-.2025.445-.36.615s-.3475.3012-.57.3937c-.2225.09-.4725.135-.75.135-.28 0-.5325-.045-.7575-.135-.2225-.0925-.4125-.2237-.57-.3937s-.2787-.375-.3637-.615c-.0825-.24-.1238-.51-.1238-.81 0-.2975.0413-.5663.1238-.8063.085-.2425.2062-.4487.3637-.6187s.3475-.3013.57-.3938c.225-.0925.4775-.1387.7575-.1387zm0 3.39c.375 0 .655-.125.84-.375.185-.2525.2775-.6038.2775-1.0538 0-.4525-.0925-.805-.2775-1.0575s-.465-.3787-.84-.3787c-.19 0-.3562.0325-.4987.0975-.14.065-.2575.1587-.3525.2812-.0925.1225-.1625.2738-.21.4538-.045.1775-.0675.3787-.0675.6037 0 .45.0925.8013.2775 1.0538.1875.25.4712.375.8512.375zm3.2842-2.7788c.0825-.0925.17-.1762.2625-.2512s.19-.1388.2925-.1913c.105-.055.215-.0962.33-.1237.1175-.03.2437-.045.3787-.045.2075 0 .39.035.5475.105.16.0675.2925.165.3975.2925.1075.125.1888.2762.2438.4537s.0825.3738.0825.5888v2.4187h-.6713v-2.4187c0-.2875-.0662-.51-.1987-.6675-.13-.16-.3288-.24-.5963-.24-.1975 0-.3825.0475-.555.1425-.17.095-.3275.2237-.4725.3862v2.7975h-.6712v-3.7987h.4012c.095 0 .1538.0462.1763.1387zm6.0944.9338c0-.155-.022-.2963-.067-.4238-.043-.13-.107-.2412-.192-.3337-.082-.095-.183-.1675-.303-.2175-.12-.0525-.257-.0788-.409-.0788-.32 0-.574.0938-.761.2813-.185.185-.3.4425-.345.7725zm.54 1.7812c-.082.1-.181.1875-.296.2625-.115.0725-.239.1325-.371.18-.13.0475-.265.0825-.405.105-.14.025-.279.0375-.417.0375-.262 0-.505-.0437-.727-.1312-.22-.09-.411-.22-.574-.39-.1598-.1725-.2848-.385-.3748-.6375s-.135-.5425-.135-.87c0-.265.04-.5125.12-.7425.0825-.23.2-.4288.3528-.5963.152-.17.338-.3025.558-.3975.22-.0975.468-.1462.743-.1462.227 0 .437.0387.63.1162.195.075.362.185.502.33.143.1425.254.32.334.5325.08.21.12.45.12.72 0 .105-.011.175-.034.21-.022.035-.065.0525-.127.0525h-2.539c.008.24.04.4488.098.6263.06.1775.142.3262.247.4462.105.1175.23.2063.375.2663.145.0575.308.0862.488.0862.167 0 .311-.0187.431-.0562.122-.04.227-.0825.315-.1275.087-.045.16-.0863.217-.1238.06-.04.112-.06.154-.06.055 0 .098.0213.128.0638zm4.308-2.55c-.098-.0225-.205-.0337-.323-.0337-.187 0-.36.04-.517.12-.155.0775-.289.18-.402.3075-.112.1275-.201.2737-.266.4387-.062.165-.094.3338-.094.5063 0 .18.042.325.124.435.083.1075.205.1612.368.1612.077 0 .155-.0125.232-.0375.08-.025.156-.0687.229-.1312.075-.0625.144-.1475.206-.255.063-.1075.115-.2425.158-.405zm.232 1.0463c-.05.19-.074.345-.071.465.002.1175.021.21.056.2775.038.0675.089.1137.154.1387.065.0225.136.0338.214.0338.122 0 .238-.035.348-.105s.207-.1688.289-.2963c.085-.1275.151-.28.199-.4575.05-.18.075-.3787.075-.5962 0-.345-.055-.6475-.165-.9075s-.263-.4763-.458-.6488c-.192-.175-.421-.305-.686-.39-.262-.0875-.546-.1312-.851-.1312-.335 0-.649.0637-.941.1912-.293.1275-.548.3038-.765.5288-.218.225-.39.4912-.518.7987-.125.3075-.187.6425-.187 1.005 0 .425.066.7988.198 1.1213.135.32.318.5887.548.8062.232.2175.505.3813.817.4913.313.11.648.165 1.005.165.38 0 .715-.0413 1.005-.1238.293-.0825.545-.1875.758-.315.05-.03.094-.0387.131-.0262.038.01.065.0375.083.0825l.097.2475c-.27.18-.576.3212-.919.4237-.34.1025-.725.1538-1.155.1538-.435 0-.838-.0688-1.211-.2063-.372-.1375-.696-.3362-.971-.5962-.273-.2575-.488-.5738-.645-.9488-.155-.375-.233-.8-.233-1.275 0-.2725.034-.535.102-.7875.07-.2525.167-.4875.292-.705.125-.22.275-.42.45-.6.175-.1825.37-.3375.585-.465.215-.13.446-.23.694-.3.25-.0725.51-.1087.78-.1087.23 0 .455.025.675.075s.427.1237.622.2212c.198.0975.378.2188.54.3638.165.1425.308.3075.428.495.12.185.212.3925.277.6225.068.2275.102.475.102.7425 0 .27-.039.52-.117.75-.075.2275-.18.425-.315.5925-.132.1675-.29.2987-.472.3937-.183.095-.379.1425-.589.1425-.19 0-.347-.0462-.472-.1387-.123-.095-.202-.2388-.237-.4313-.142.2-.298.3438-.468.4313s-.354.1312-.552.1312c-.147 0-.277-.025-.39-.075-.11-.0525-.201-.1237-.273-.2137-.073-.0925-.128-.2013-.165-.3263-.035-.125-.053-.26-.053-.405 0-.2125.04-.4262.12-.6412.083-.2175.204-.4125.364-.585.16-.175.359-.3175.596-.4275.238-.11.513-.165.825-.165.168 0 .315.0137.443.0412.127.025.247.0625.36.1125zm3.288 1.1212c.123.165.256.2813.401.3488s.308.1012.488.1012c.355 0 .627-.1262.817-.3787s.285-.6125.285-1.08c0-.2475-.022-.46-.067-.6375-.043-.1775-.105-.3225-.188-.435-.082-.115-.183-.1988-.303-.2513s-.257-.0787-.409-.0787c-.218 0-.409.05-.574.15-.162.1-.312.2412-.45.4237zm-.034-2.295c.16-.1975.345-.3562.555-.4762s.45-.18.72-.18c.22 0 .419.0425.597.1275.177.0825.328.2062.453.3712.125.1625.222.365.289.6075.068.2425.101.5213.101.8363 0 .28-.037.5412-.112.7837-.075.24-.184.4488-.326.6263-.14.175-.313.3137-.518.4162-.202.1-.431.15-.686.15-.233 0-.433-.0387-.6-.1162-.165-.08-.311-.19-.439-.33v1.68h-.671v-5.085h.401c.095 0 .154.0462.176.1387zm5.626 1.5c-.308.01-.57.035-.788.075-.215.0375-.391.0875-.528.15-.135.0625-.234.1363-.297.2213-.06.085-.09.18-.09.285 0 .1.017.1862.049.2587.033.0725.076.1325.131.18.058.045.124.0788.199.1013.078.02.16.03.248.03.117 0 .225-.0113.322-.0338.098-.025.189-.06.274-.105.087-.045.17-.0987.247-.1612.08-.0625.158-.1338.233-.2138zm-2.156-1.5525c.21-.2025.436-.3537.678-.4537.243-.1.512-.15.807-.15.212 0 .401.035.566.105s.304.1675.416.2925c.113.125.198.2762.255.4537.058.1775.086.3725.086.585v2.43h-.296c-.065 0-.115-.01-.15-.03-.035-.0225-.062-.065-.082-.1275l-.075-.36c-.1.0925-.198.175-.293.2475-.095.07-.195.13-.3.18-.105.0475-.217.0838-.337.1088-.118.0275-.249.0412-.394.0412-.148 0-.286-.02-.416-.06-.13-.0425-.244-.105-.342-.1875-.095-.0825-.171-.1862-.228-.3112-.055-.1275-.083-.2775-.083-.45 0-.15.041-.2938.124-.4313.082-.14.216-.2637.401-.3712s.426-.195.724-.2625c.297-.07.662-.11 1.095-.12v-.2963c0-.295-.064-.5175-.191-.6675-.128-.1525-.314-.2287-.559-.2287-.165 0-.304.0212-.416.0637-.11.04-.207.0863-.289.1388-.08.05-.15.0962-.21.1387-.058.04-.115.06-.173.06-.045 0-.083-.0112-.116-.0337-.032-.025-.06-.055-.082-.09zm6.3.3675c-.125-.1675-.26-.2837-.405-.3487-.145-.0675-.307-.1013-.487-.1013-.353 0-.624.1263-.814.3788s-.285.6125-.285 1.08c0 .2475.021.46.064.6375.042.175.105.32.187.435.083.1125.184.195.304.2475s.256.0787.409.0787c.22 0 .411-.05.573-.15.165-.1.317-.2412.454-.4237zm.668-2.6287v5.5237h-.398c-.095 0-.155-.0462-.18-.1387l-.06-.4613c-.162.195-.347.3525-.555.4725-.207.12-.447.18-.72.18-.217 0-.415-.0412-.592-.1237-.178-.085-.329-.2088-.454-.3713s-.221-.365-.289-.6075c-.067-.2425-.101-.5212-.101-.8362 0-.28.037-.54.112-.78.075-.2425.183-.4525.323-.63s.311-.3163.514-.4163c.205-.1025.435-.1537.69-.1537.232 0 .431.04.596.12.167.0775.316.1862.446.3262v-2.1037zm3.529 2.6287c-.125-.1675-.26-.2837-.405-.3487-.145-.0675-.308-.1013-.488-.1013-.352 0-.623.1263-.813.3788s-.285.6125-.285 1.08c0 .2475.021.46.063.6375.043.175.105.32.188.435.082.1125.184.195.304.2475s.256.0787.408.0787c.22 0 .412-.05.574-.15.165-.1.316-.2412.454-.4237zm.667-2.6287v5.5237h-.397c-.095 0-.155-.0462-.18-.1387l-.06-.4613c-.163.195-.348.3525-.555.4725-.208.12-.448.18-.72.18-.218 0-.415-.0412-.593-.1237-.177-.085-.328-.2088-.453-.3713s-.222-.365-.289-.6075c-.068-.2425-.101-.5212-.101-.8362 0-.28.037-.54.112-.78.075-.2425.183-.4525.323-.63s.311-.3163.513-.4163c.205-.1025.435-.1537.69-.1537.233 0 .432.04.597.12.167.0775.316.1862.446.3262v-2.1037zm1.745 0v5.5237h-.668v-5.5237zm3.625 3.21c0-.155-.023-.2963-.068-.4238-.042-.13-.106-.2412-.191-.3337-.083-.095-.184-.1675-.304-.2175-.12-.0525-.256-.0788-.409-.0788-.32 0-.573.0938-.761.2813-.185.185-.3.4425-.345.7725zm.54 1.7812c-.083.1-.182.1875-.297.2625-.115.0725-.238.1325-.371.18-.13.0475-.265.0825-.405.105-.14.025-.279.0375-.416.0375-.263 0-.505-.0437-.728-.1312-.22-.09-.411-.22-.573-.39-.16-.1725-.285-.385-.375-.6375s-.135-.5425-.135-.87c0-.265.04-.5125.12-.7425.082-.23.2-.4288.352-.5963.153-.17.339-.3025.559-.3975.22-.0975.467-.1462.742-.1462.228 0 .438.0387.63.1162.195.075.363.185.503.33.142.1425.254.32.334.5325.08.21.12.45.12.72 0 .105-.012.175-.034.21-.023.035-.065.0525-.128.0525h-2.538c.007.24.04.4488.097.6263.06.1775.143.3262.248.4462.105.1175.23.2063.375.2663.145.0575.307.0862.487.0862.168 0 .311-.0187.431-.0562.123-.04.228-.0825.315-.1275.088-.045.16-.0863.218-.1238.06-.04.111-.06.154-.06.055 0 .097.0213.127.0638zm.767.12c0-.065.011-.1262.034-.1837.025-.0575.057-.1075.097-.15.043-.0425.093-.0763.15-.1013.058-.025.119-.0375.184-.0375s.126.0125.184.0375c.057.025.107.0588.15.1013.042.0425.076.0925.101.15s.037.1187.037.1837c0 .0675-.012.13-.037.1875-.025.055-.059.1038-.101.1463-.043.0425-.093.075-.15.0975-.058.025-.119.0375-.184.0375s-.126-.0125-.184-.0375c-.057-.0225-.107-.055-.15-.0975-.04-.0425-.072-.0913-.097-.1463-.023-.0575-.034-.12-.034-.1875zm4.529-2.7112c-.02.0275-.04.0487-.06.0637s-.048.0225-.083.0225c-.037 0-.079-.015-.124-.045-.045-.0325-.101-.0675-.168-.105-.065-.0375-.147-.0712-.244-.1012-.095-.0325-.213-.0488-.353-.0488-.187 0-.352.0338-.495.1013-.142.065-.262.16-.36.285-.095.125-.167.2762-.217.4537-.048.1775-.071.3763-.071.5963 0 .23.026.435.078.615.053.1775.127.3275.222.45.097.12.213.2125.348.2775.138.0625.292.0937.462.0937.162 0 .296-.0187.401-.0562.105-.04.191-.0838.259-.1313.07-.0475.127-.09.172-.1275.048-.04.094-.06.139-.06.055 0 .097.0213.127.0638l.188.2437c-.083.1025-.176.19-.281.2625s-.219.1338-.342.1838c-.12.0475-.246.0825-.378.105-.133.0225-.268.0337-.405.0337-.238 0-.459-.0437-.664-.1312-.203-.0875-.379-.2138-.529-.3788-.15-.1675-.267-.3725-.352-.615s-.128-.5187-.128-.8287c0-.2825.039-.5438.116-.7838.08-.24.195-.4462.345-.6187.153-.175.339-.3113.559-.4088.223-.0975.478-.1462.765-.1462.268 0 .503.0437.705.1312.205.085.386.2063.544.3638zm2.473-.735c.277 0 .527.0462.75.1387.222.0925.412.2238.57.3938.157.17.277.3762.36.6187.085.24.127.5088.127.8063 0 .3-.042.57-.127.81-.083.24-.203.445-.36.615-.158.17-.348.3012-.57.3937-.223.09-.473.135-.75.135-.28 0-.533-.045-.758-.135-.222-.0925-.412-.2237-.57-.3937-.157-.17-.278-.375-.363-.615-.083-.24-.124-.51-.124-.81 0-.2975.041-.5663.124-.8063.085-.2425.206-.4487.363-.6187.158-.17.348-.3013.57-.3938.225-.0925.478-.1387.758-.1387zm0 3.39c.375 0 .655-.125.84-.375.185-.2525.277-.6038.277-1.0538 0-.4525-.092-.805-.277-1.0575s-.465-.3787-.84-.3787c-.19 0-.356.0325-.499.0975-.14.065-.257.1587-.352.2812-.093.1225-.163.2738-.21.4538-.045.1775-.068.3787-.068.6037 0 .45.093.8013.278 1.0538.187.25.471.375.851.375zm2.654.4687v-3.7987h.401c.095 0 .154.0462.176.1387l.049.39c.14-.1725.298-.3137.473-.4237s.377-.165.607-.165c.255 0 .461.0712.619.2137.16.1425.275.335.345.5775.055-.1375.125-.2562.21-.3562.087-.1.185-.1825.292-.2475.108-.065.222-.1125.342-.1425.122-.03.246-.045.371-.045.2 0 .377.0325.532.0975.158.0625.29.155.398.2775.11.1225.194.2737.251.4537.058.1775.086.3813.086.6113v2.4187h-.671v-2.4187c0-.2975-.065-.5225-.195-.675-.13-.155-.317-.2325-.562-.2325-.11 0-.215.02-.315.06-.098.0375-.184.0937-.259.1687s-.135.17-.18.285c-.043.1125-.064.2438-.064.3938v2.4187h-.671v-2.4187c0-.305-.061-.5325-.184-.6825-.122-.15-.301-.225-.536-.225-.165 0-.318.045-.458.135-.14.0875-.268.2075-.386.36v2.8312z" fill="#202323"/><rect height="16.0208" opacity=".4" rx="3.41786" stroke="#737777" stroke-width=".65" width="106.35" x="68.325" y="96.089"/><path d="m75.76 105.891c.2225 0 .4213-.037.5963-.112s.3225-.18.4425-.315c.1225-.135.215-.297.2775-.484.065-.188.0975-.394.0975-.619v-3.266h.7237v3.266c0 .31-.05.598-.15.863-.0975.265-.2387.495-.4238.69-.1824.192-.4062.343-.6712.453s-.5625.165-.8925.165-.6275-.055-.8925-.165-.49-.261-.675-.453c-.185-.195-.3275-.425-.4275-.69-.0975-.265-.1462-.553-.1462-.863v-3.266h.7237v3.262c0 .225.0313.432.0938.619.065.188.1575.349.2775.484.1225.135.2712.241.4462.319.1775.075.3775.112.6.112zm3.804-2.67c.0825-.092.17-.176.2625-.251s.19-.139.2925-.191c.105-.055.215-.097.33-.124.1175-.03.2438-.045.3788-.045.2075 0 .39.035.5475.105.16.067.2925.165.3975.292.1075.125.1887.277.2437.454.055.178.0825.374.0825.589v2.419h-.6712v-2.419c0-.288-.0663-.51-.1988-.668-.13-.16-.3287-.24-.5962-.24-.1975 0-.3825.048-.555.143-.17.095-.3275.224-.4725.386v2.798h-.6713v-3.799h.4013c.095 0 .1537.046.1762.139zm4.2572-.551v3.799h-.6675v-3.799zm.1425-1.193c0 .065-.0138.127-.0413.184-.025.055-.06.105-.105.15-.0425.043-.0937.076-.1537.101-.0575.025-.1188.038-.1838.038s-.1262-.013-.1837-.038c-.055-.025-.1038-.058-.1463-.101-.0425-.045-.0762-.095-.1012-.15-.025-.057-.0375-.119-.0375-.184s.0125-.126.0375-.183c.025-.06.0587-.112.1012-.154.0425-.045.0913-.08.1463-.105.0575-.025.1187-.038.1837-.038s.1263.013.1838.038c.06.025.1112.06.1537.105.045.042.08.094.105.154.0275.057.0413.118.0413.183zm2.1205 5.052c-.3 0-.5313-.084-.6938-.252-.16-.167-.24-.408-.24-.723v-2.325h-.4575c-.04 0-.0737-.012-.1012-.034-.0275-.025-.0413-.063-.0413-.113v-.266l.6225-.079.1538-1.173c.0075-.038.0237-.068.0487-.09.0275-.025.0625-.038.105-.038h.3375v1.309h1.0988v.484h-1.0988v2.28c0 .16.0388.278.1163.356.0775.077.1775.116.3.116.07 0 .13-.009.18-.026.0525-.02.0975-.041.135-.064.0375-.022.0687-.042.0937-.06.0275-.02.0513-.03.0713-.03.035 0 .0662.021.0937.064l.195.319c-.115.107-.2537.192-.4162.255-.1625.06-.33.09-.5025.09zm4.0422-2.374c0-.155-.0225-.296-.0675-.424-.0425-.13-.1062-.241-.1912-.334-.0825-.095-.1838-.167-.3038-.217-.12-.053-.2562-.079-.4087-.079-.32 0-.5738.094-.7613.281-.185.185-.3.443-.345.773zm.54 1.781c-.0825.1-.1812.188-.2962.263-.115.072-.2388.132-.3713.18-.13.047-.265.082-.405.105-.14.025-.2787.037-.4162.037-.2625 0-.505-.044-.7275-.131-.22-.09-.4113-.22-.5738-.39-.16-.173-.285-.385-.375-.638-.09-.252-.135-.542-.135-.87 0-.265.04-.512.12-.742.0825-.23.2-.429.3525-.596.1525-.17.3388-.303.5588-.398.22-.097.4675-.146.7425-.146.2275 0 .4375.039.63.116.195.075.3625.185.5025.33.1425.143.2537.32.3337.533.08.21.12.45.12.72 0 .105-.0112.175-.0337.21s-.065.052-.1275.052h-2.5388c.0075.24.04.449.0975.626.06.178.1425.327.2475.447.105.117.23.206.375.266.145.057.3075.086.4875.086.1675 0 .3113-.019.4313-.056.1225-.04.2275-.083.315-.128s.16-.086.2175-.123c.06-.04.1112-.06.1537-.06.055 0 .0975.021.1275.063zm3.3549-2.362c-.125-.168-.26-.284-.405-.349-.145-.068-.3075-.101-.4875-.101-.3525 0-.6237.126-.8137.378-.19.253-.285.613-.285 1.08 0 .248.0212.46.0637.638.0425.175.105.32.1875.435.0825.112.1838.195.3038.247.12.053.2562.079.4087.079.22 0 .4113-.05.5738-.15.165-.1.3162-.241.4537-.424zm.6675-2.629v5.524h-.3975c-.095 0-.155-.047-.18-.139l-.06-.461c-.1625.195-.3475.352-.555.472s-.4475.18-.72.18c-.2175 0-.415-.041-.5925-.124-.1775-.085-.3287-.208-.4537-.371-.125-.162-.2213-.365-.2888-.607-.0675-.243-.1012-.522-.1012-.837 0-.28.0375-.54.1125-.78.075-.242.1825-.452.3225-.63.14-.177.3112-.316.5137-.416.205-.102.435-.154.69-.154.2325 0 .4313.04.5963.12.1675.078.3162.187.4462.327v-2.104zm5.8792.99c-.022.037-.047.066-.075.086-.025.018-.056.026-.093.026-.043 0-.093-.021-.15-.063-.058-.043-.13-.089-.218-.139-.0849-.053-.1887-.1-.3112-.143-.12-.042-.2662-.063-.4387-.063-.1625 0-.3063.022-.4313.067-.1225.043-.2262.101-.3112.176-.0825.075-.145.164-.1875.267-.0425.1-.0638.208-.0638.326 0 .15.0363.275.1088.375.075.097.1725.181.2925.251.1225.07.26.131.4125.184.155.05.3125.102.4725.157.1625.055.32.118.4724.188.155.067.293.154.413.259.122.105.22.233.292.386.075.152.113.34.113.562 0 .235-.04.457-.12.664-.08.205-.198.384-.353.536-.152.153-.341.273-.5662.36-.2225.088-.4762.132-.7612.132-.35 0-.6675-.063-.9525-.188-.285-.127-.5288-.299-.7313-.514l.21-.345c.02-.027.0438-.05.0713-.067.03-.02.0625-.03.0975-.03.0325 0 .0687.014.1087.041.0425.025.09.058.1425.098s.1125.083.18.131c.0675.047.1438.091.2288.131.0875.04.1862.074.2962.101.11.025.2338.038.3713.038.1725 0 .3262-.024.4612-.071.135-.048.2488-.114.3413-.199.095-.088.1674-.191.2174-.311s.075-.254.075-.402c0-.162-.037-.295-.112-.397-.0729-.105-.1692-.193-.2892-.263s-.2575-.128-.4125-.176c-.155-.05-.3125-.1-.4725-.15-.16-.052-.3175-.112-.4725-.18-.155-.067-.2925-.155-.4125-.262-.12-.108-.2175-.242-.2925-.402-.0725-.162-.1087-.362-.1087-.6 0-.19.0362-.373.1087-.551.075-.177.1825-.335.3225-.472.1425-.138.3163-.248.5213-.33.2075-.083.445-.124.7125-.124.3 0 .5725.047.8174.142.248.095.465.233.653.413zm2.164 4.594c-.3 0-.531-.084-.694-.252-.16-.167-.24-.408-.24-.723v-2.325h-.457c-.04 0-.074-.012-.101-.034-.028-.025-.042-.063-.042-.113v-.266l.623-.079.154-1.173c.007-.038.023-.068.048-.09.028-.025.063-.038.105-.038h.338v1.309h1.099v.484h-1.099v2.28c0 .16.039.278.116.356.078.077.178.116.3.116.07 0 .13-.009.18-.026.053-.02.098-.041.135-.064.038-.022.069-.042.094-.06.027-.02.051-.03.071-.03.035 0 .066.021.094.064l.195.319c-.115.107-.254.192-.416.255-.163.06-.33.09-.503.09zm3.581-1.77c-.308.01-.57.035-.788.075-.215.037-.391.087-.529.15-.135.062-.233.136-.296.221-.06.085-.09.18-.09.285 0 .1.016.186.049.259.032.072.076.132.131.18.058.045.124.078.199.101.077.02.16.03.247.03.118 0 .225-.011.323-.034.097-.025.189-.06.274-.105.087-.045.17-.099.247-.161.08-.063.158-.134.233-.214zm-2.157-1.553c.21-.202.437-.354.679-.454.243-.1.511-.15.806-.15.213 0 .402.035.567.105s.303.168.416.293c.112.125.197.276.255.454.057.177.086.372.086.585v2.43h-.296c-.065 0-.115-.01-.15-.03-.035-.023-.063-.065-.083-.128l-.075-.36c-.1.093-.197.175-.292.248-.095.07-.195.13-.3.18-.105.047-.218.083-.338.108-.117.028-.248.042-.393.042-.148 0-.287-.02-.417-.06-.13-.043-.243-.105-.341-.188-.095-.082-.171-.186-.229-.311-.055-.128-.082-.278-.082-.45 0-.15.041-.294.124-.431.082-.14.216-.264.401-.372.185-.107.426-.195.724-.262.297-.07.662-.11 1.095-.12v-.296c0-.295-.064-.518-.192-.668-.127-.152-.313-.229-.558-.229-.165 0-.304.022-.417.064-.11.04-.206.086-.288.139-.08.05-.15.096-.21.139-.058.04-.115.06-.173.06-.045 0-.084-.012-.116-.034-.033-.025-.06-.055-.083-.09zm4.941 3.323c-.3 0-.531-.084-.694-.252-.16-.167-.24-.408-.24-.723v-2.325h-.457c-.04 0-.074-.012-.102-.034-.027-.025-.041-.063-.041-.113v-.266l.623-.079.153-1.173c.008-.038.024-.068.049-.09.028-.025.063-.038.105-.038h.338v1.309h1.098v.484h-1.098v2.28c0 .16.038.278.116.356.077.077.177.116.3.116.07 0 .13-.009.18-.026.052-.02.097-.041.135-.064.037-.022.069-.042.094-.06.027-.02.051-.03.071-.03.035 0 .066.021.094.064l.195.319c-.115.107-.254.192-.417.255-.162.06-.33.09-.502.09zm4.042-2.374c0-.155-.022-.296-.067-.424-.043-.13-.107-.241-.192-.334-.082-.095-.183-.167-.303-.217-.12-.053-.257-.079-.409-.079-.32 0-.574.094-.761.281-.185.185-.3.443-.345.773zm.54 1.781c-.082.1-.181.188-.296.263-.115.072-.239.132-.371.18-.13.047-.265.082-.405.105-.14.025-.279.037-.417.037-.262 0-.505-.044-.727-.131-.22-.09-.411-.22-.574-.39-.16-.173-.285-.385-.375-.638-.09-.252-.135-.542-.135-.87 0-.265.04-.512.12-.742.083-.23.2-.429.353-.596.152-.17.338-.303.558-.398.22-.097.468-.146.743-.146.227 0 .437.039.63.116.195.075.362.185.502.33.143.143.254.32.334.533.08.21.12.45.12.72 0 .105-.011.175-.034.21-.022.035-.065.052-.127.052h-2.539c.008.24.04.449.098.626.06.178.142.327.247.447.105.117.23.206.375.266.145.057.308.086.488.086.167 0 .311-.019.431-.056.122-.04.227-.083.315-.128.087-.045.16-.086.217-.123.06-.04.112-.06.154-.06.055 0 .098.021.128.063zm3.093-2.64c-.03.055-.077.083-.139.083-.038 0-.08-.014-.128-.042-.047-.027-.106-.057-.176-.09-.067-.035-.149-.066-.244-.093-.095-.03-.207-.045-.337-.045-.113 0-.214.015-.304.045-.09.027-.167.066-.232.116-.063.05-.112.109-.147.176-.032.065-.048.136-.048.214 0 .097.027.179.082.244.058.065.133.121.225.168.093.048.198.09.315.128.118.035.238.074.36.116.125.04.246.085.364.135.117.05.222.113.315.188.092.075.166.167.221.277.058.108.086.238.086.39 0 .175-.031.338-.093.488-.063.147-.155.276-.278.386-.122.107-.272.192-.45.255-.177.062-.382.094-.615.094-.265 0-.505-.043-.72-.128-.215-.087-.397-.199-.547-.334l.157-.255c.02-.032.044-.057.071-.075.028-.017.063-.026.105-.026.045 0 .093.018.143.053s.11.073.18.116c.072.042.16.081.262.116.103.035.23.053.383.053.13 0 .244-.017.341-.049.098-.035.179-.081.244-.139.065-.057.112-.124.142-.199.033-.075.049-.155.049-.24 0-.105-.029-.191-.086-.258-.055-.07-.129-.129-.221-.177-.093-.05-.199-.092-.319-.127-.118-.038-.239-.076-.364-.116-.122-.04-.244-.085-.364-.135-.117-.053-.222-.118-.315-.195-.092-.078-.167-.173-.225-.285-.055-.115-.082-.254-.082-.417 0-.145.03-.283.09-.416.06-.135.147-.252.262-.352.115-.103.257-.184.424-.244.168-.06.359-.09.574-.09.25 0 .474.04.671.12.2.077.373.185.518.322z" fill="#202323"/><path d="m164.15 106.323c-.137 0-.265-.063-.347-.17l-3.195-4.178c-.057-.074-.004-.182.09-.182h.741c.071 0 .138.033.18.089l2.531 3.309 2.53-3.309c.043-.056.109-.089.18-.089h.741c.094 0 .147.108.09.182l-3.195 4.178c-.082.107-.21.17-.346.17z" fill="#737777"/><rect height="5.41211" opacity=".4" rx=".675" stroke="#737777" stroke-width=".65" width="5.42843" x="68.325" y="154.151"/></svg>