<svg fill="none" height="244" viewBox="0 0 310 244" width="310" xmlns="http://www.w3.org/2000/svg" xmlns:xlink="http://www.w3.org/1999/xlink"><linearGradient id="a" gradientUnits="userSpaceOnUse" x1="248" x2="18.4329" y1=".000019" y2="174.477"><stop offset="0" stop-color="#dff2ff"/><stop offset="1" stop-color="#eae5f0"/></linearGradient><clipPath id="b"><path d="m249.385 112.908h10.8345v10.8055h-10.8345z"/></clipPath><clipPath id="c"><path d="m249.385 137.963h10.8345v10.8055h-10.8345z"/></clipPath><mask id="d" height="244" maskUnits="userSpaceOnUse" width="310" x="0" y="0"><path d="m0 0h310v244h-310z" fill="url(#a)"/></mask><path d="m0 0h310v244h-310z" fill="url(#a)"/><g mask="url(#d)"><g opacity=".2"><path d="m386.74 259.288h.325v-.325-221.2303c0-3.0232-2.45-5.474-5.474-5.474h-343.0104c-3.0232 0-5.474 2.4508-5.474 5.474v221.2303.325h.325z" fill="#fff" stroke="#202323" stroke-width=".65"/><path d="m386.74 37.7327c0-2.8437-2.305-5.149-5.149-5.149h-171.021v226.3793h176.17z" fill="#3a68ce"/><path d="m270.582 185.293h81.309" stroke="#fcfcfc" stroke-opacity=".2" stroke-width=".440753"/><path d="m270.582 157.78h81.309" stroke="#fcfcfc" stroke-opacity=".2" stroke-width=".440753"/><g fill="#fcfcfc"><path d="m270.49 110.634c0-.837.679-1.516 1.516-1.516h93.464c.837 0 1.515.679 1.515 1.516 0 .837-.678 1.515-1.515 1.515h-93.464c-.837 0-1.516-.678-1.516-1.515z" fill-opacity=".2"/><path d="m270.49 135.689c0-.838.679-1.516 1.516-1.516h93.464c.837 0 1.515.678 1.515 1.516 0 .837-.678 1.515-1.515 1.515h-93.464c-.837 0-1.516-.678-1.516-1.515z" fill-opacity=".2"/><path d="m270.49 122c0-.837.679-1.516 1.516-1.516h11.405c.837 0 1.516.679 1.516 1.516 0 .837-.679 1.516-1.516 1.516h-11.405c-.837 0-1.516-.679-1.516-1.516z" fill-opacity=".2"/><path d="m270.49 147.055c0-.837.679-1.516 1.516-1.516h11.405c.837 0 1.516.679 1.516 1.516 0 .837-.679 1.515-1.516 1.515h-11.405c-.837 0-1.516-.678-1.516-1.515z" fill-opacity=".2"/><path d="m245.416 89.4162c0-.837.679-1.5156 1.516-1.5156h28.12c.837 0 1.516.6786 1.516 1.5156 0 .837-.679 1.5155-1.516 1.5155h-28.12c-.837 0-1.516-.6785-1.516-1.5155z" fill-opacity=".2"/><path d="m270.49 165.858c0-.837.679-1.516 1.516-1.516h16.724c.837 0 1.515.679 1.515 1.516 0 .837-.678 1.515-1.515 1.515h-16.724c-.837 0-1.516-.678-1.516-1.515z" fill-opacity=".2"/><path d="m270.49 177.982c0-.837.679-1.515 1.516-1.515h6.086c.837 0 1.516.678 1.516 1.515 0 .837-.679 1.516-1.516 1.516h-6.086c-.837 0-1.516-.679-1.516-1.516z" fill-opacity=".2"/><path d="m270.49 191.622c0-.837.679-1.516 1.516-1.516h22.042c.837 0 1.516.679 1.516 1.516 0 .837-.679 1.515-1.516 1.515h-22.042c-.837 0-1.516-.678-1.516-1.515z" fill-opacity=".2"/></g><path d="m245.412 108.945h18.4187v18.3693h-18.4187z" fill="#d9d9d9"/><path d="m245 109h19v19h-19z" fill="#d5e2ff"/><g clip-path="url(#b)"><path d="m250.8 122.324c-.874-1.005-1.355-2.293-1.355-3.625 0-3.153 2.263-5.53 5.264-5.53 3.055 0 5.449 2.421 5.449 5.512 0 1.299-.447 2.407-1.406 3.488l-.531-.468c.837-.944 1.228-1.904 1.228-3.02 0-2.694-2.082-4.805-4.74-4.805-2.596 0-4.555 2.073-4.555 4.823 0 1.162.42 2.285 1.182 3.162z" fill="#0e1414" fill-opacity=".6"/><path d="m251.744 118.326c.683 0 1.241.557 1.241 1.238v2.911c0 .681-.558 1.238-1.241 1.238" fill="#f44f7e"/><path d="m251.1 123.713h.675v-5.387h-.585c-.05 0-.09.041-.09.091z" fill="#0e1414"/><path d="m251.094 122.511h-.661c-.051 0-.091-.04-.091-.09v-2.796c0-.05.04-.091.091-.091h.661z" fill="#3a68ce"/><path d="m257.839 118.326c-.683 0-1.241.557-1.241 1.238v2.911c0 .681.558 1.238 1.241 1.238" fill="#f44f7e"/><path d="m258.397 123.713h-.585v-5.387h.585c.05 0 .091.041.091.091v5.206c0 .05-.041.09-.091.09z" fill="#0e1414"/><path d="m258.49 122.511h.662c.05 0 .091-.04.091-.09v-2.796c0-.05-.041-.091-.091-.091h-.662z" fill="#3a68ce"/><path d="m259.617 115.613c-1.014-1.674-2.836-2.705-4.805-2.705-1.998 0-3.829 1.032-4.828 2.708-.057.095-.02.219.077.272l.828.451c.094.051.209.017.265-.074.763-1.253 2.147-2.023 3.658-2.023 1.487 0 2.864.772 3.641 2.028.056.091.171.124.265.072l.824-.457c.097-.054.133-.178.075-.272z" fill="#0e1414"/></g><path d="m245.412 134h18.4187v18.3693h-18.4187z" fill="#d5e2ff"/><g clip-path="url(#c)"><path d="m250.8 147.379c-.874-1.005-1.355-2.293-1.355-3.625 0-3.153 2.263-5.53 5.264-5.53 3.055 0 5.449 2.421 5.449 5.512 0 1.299-.447 2.407-1.406 3.488l-.531-.468c.837-.944 1.228-1.904 1.228-3.02 0-2.694-2.082-4.805-4.74-4.805-2.596 0-4.555 2.073-4.555 4.823 0 1.162.42 2.285 1.182 3.162z" fill="#0e1414" fill-opacity=".6"/><path d="m251.744 143.381c.683 0 1.241.557 1.241 1.238v2.911c0 .681-.558 1.238-1.241 1.238" fill="#f44f7e"/><path d="m251.1 148.768h.675v-5.387h-.585c-.05 0-.09.041-.09.091z" fill="#0e1414"/><path d="m251.094 147.566h-.661c-.051 0-.091-.04-.091-.09v-2.796c0-.05.04-.091.091-.091h.661z" fill="#3a68ce"/><path d="m257.839 143.381c-.683 0-1.241.557-1.241 1.238v2.911c0 .681.558 1.238 1.241 1.238" fill="#f44f7e"/><path d="m258.397 148.768h-.585v-5.387h.585c.05 0 .091.041.091.091v5.206c0 .05-.041.09-.091.09z" fill="#0e1414"/><path d="m258.49 147.566h.662c.05 0 .091-.04.091-.09v-2.796c0-.05-.041-.091-.091-.091h-.662z" fill="#3a68ce"/><path d="m259.617 140.667c-1.014-1.673-2.836-2.704-4.805-2.704-1.998 0-3.829 1.032-4.828 2.708-.057.095-.02.219.077.272l.828.451c.094.051.209.017.265-.074.763-1.253 2.147-2.023 3.658-2.023 1.487 0 2.864.772 3.641 2.028.056.091.171.124.265.072l.824-.457c.097-.054.133-.178.075-.273z" fill="#0e1414"/></g><path d="m245 134h19v19h-19z" fill="#d5e2ff"/><path d="m252.053 142.12v-1.496c0-1.298 1.052-2.35 2.35-2.35 1.298 0 2.351 1.052 2.351 2.35v1.496" stroke="#5d6672" stroke-width=".8"/><path clip-rule="evenodd" d="m250.982 142.62c0-.276.224-.5.5-.5h5.838c.276 0 .5.224.5.5v5.41c0 .277-.224.5-.5.5h-5.838c-.276 0-.5-.223-.5-.5zm3.42.782c-.473 0-.855.382-.855.855 0 .334.191.623.47.763v1.374h.769v-1.373c.279-.141.47-.43.47-.764 0-.473-.381-.855-.854-.855z" fill="#0e1414" fill-rule="evenodd"/><path d="m250.984 147.676v.355c0 .276.224.5.5.5h5.838c.276 0 .5-.224.5-.5v-.355z" fill="#f44f7e"/><path d="m248.473 81.2582c-.516-.0705-1-.2115-1.454-.4231-.45-.2116-.833-.4738-1.151-.7867l.503-.7471c.044-.0661.101-.119.172-.1587.075-.0441.152-.0661.231-.0661.097 0 .201.0353.311.1058.11.0661.236.1454.377.238s.302.1851.482.2777c.181.0925.395.1608.642.2049l.251-2.9618c-.313-.0882-.624-.1918-.932-.3108-.305-.119-.58-.2754-.827-.4694-.242-.1983-.438-.4473-.588-.7471-.15-.2997-.225-.6743-.225-1.1239 0-.3349.066-.6611.198-.9784.137-.3218.333-.6083.589-.8595.255-.2512.57-.4584.945-.6215.375-.163.804-.2556 1.289-.2776l.073-.8331c.009-.1057.053-.2005.132-.2843.08-.0837.183-.1256.311-.1256h.602l-.113 1.3025c.467.0749.871.2071 1.21.3966.339.1896.635.4033.886.6413l-.397.6017c-.061.0881-.123.1542-.185.1983-.061.0441-.136.0661-.225.0661-.066 0-.145-.0198-.238-.0595-.088-.0441-.191-.0948-.31-.1521-.115-.0617-.243-.1234-.384-.1851s-.297-.1124-.469-.152l-.232 2.737c.318.097.631.205.939.324.313.1146.593.2645.84.4496.251.1851.454.4165.608.6942.154.2732.232.617.232 1.0313 0 .4099-.069.7956-.205 1.157-.137.357-.338.6743-.602.952-.26.2733-.582.4959-.965.6678-.384.1719-.822.2754-1.316.3107l-.079.9718c-.009.1014-.053.194-.133.2777-.079.0882-.182.1322-.31.1322h-.602zm2.545-2.8032c0-.1674-.03-.3129-.092-.4363-.057-.1278-.141-.2402-.251-.3372-.106-.0969-.232-.1807-.377-.2512-.146-.0705-.304-.1344-.476-.1917l-.225 2.6842c.467-.0618.82-.2182 1.058-.4695.242-.2556.363-.5884.363-.9983zm-3.213-4.3237c0 .1674.029.3151.086.4429.058.1278.137.2424.238.3438.106.097.23.1851.371.2645.141.0749.295.1432.462.2049l.205-2.4462c-.242.0309-.449.0838-.621.1587-.172.0705-.313.1587-.423.2644-.11.1058-.192.2248-.245.3571-.048.1278-.073.2644-.073.4099zm9.409-2.5983c.441 0 .838.0639 1.19.1917.357.1235.661.2976.913.5223.251.2204.443.4805.575.7802.137.2997.205.6236.205.9718 0 .3042-.035.573-.106.8066-.066.2292-.165.4297-.297.6016-.128.1719-.287.3174-.476.4364-.186.119-.397.2182-.635.2975.573.1807 1 .4562 1.282.8264.283.3702.424.8352.424 1.395 0 .476-.089.8969-.265 1.2627-.176.3659-.414.6744-.714.9256-.3.2468-.648.4342-1.045.562-.392.1278-.808.1917-1.249.1917-.48 0-.899-.0551-1.256-.1653s-.668-.2732-.932-.4892c-.265-.216-.49-.4804-.675-.7934-.185-.3129-.344-.6743-.476-1.0842l.721-.2975c.123-.0529.249-.0794.377-.0794.114 0 .216.0243.304.0728.092.0484.163.119.211.2115.08.1543.166.3064.258.4562.097.1499.212.2843.344.4033.132.1146.287.2094.463.2843.181.0705.394.1058.641.1058.278 0 .52-.0441.727-.1323.208-.0925.379-.2115.516-.357.141-.1454.245-.3063.311-.4826.07-.1807.106-.3614.106-.5421 0-.2292-.025-.4364-.073-.6215-.049-.1895-.15-.3504-.304-.4826-.155-.1322-.377-.2358-.668-.3107-.287-.075-.672-.1124-1.157-.1124v-1.1636c.401-.0044.734-.0419.998-.1124.265-.0705.474-.1675.628-.2909.159-.1278.269-.2799.331-.4562s.093-.3702.093-.5818c0-.454-.124-.7955-.371-1.0247-.247-.2336-.584-.3504-1.011-.3504-.388 0-.71.1035-.966.3107-.255.2027-.434.465-.535.7867-.053.1675-.126.2887-.218.3637-.093.0705-.214.1057-.364.1057-.07 0-.145-.0066-.225-.0198l-.859-.152c.066-.4584.194-.8595.383-1.2033.19-.3482.426-.6369.708-.8661.286-.2336.612-.4077.978-.5223.37-.119.767-.1785 1.19-.1785zm4.067 8.6608c0-.1234.022-.238.066-.3438.049-.1102.115-.2049.199-.2843.083-.0837.185-.1476.304-.1917.119-.0485.249-.0727.39-.0727.167 0 .313.0308.436.0925.124.0573.227.1389.311.2447.084.1013.145.2203.185.357.04.1322.06.2732.06.4231 0 .2116-.033.4341-.1.6677-.061.2336-.154.4672-.277.7008-.124.2336-.276.4606-.456.681-.181.2204-.388.4231-.622.6082l-.284-.2578c-.079-.0661-.119-.1477-.119-.2446 0-.0353.011-.0749.033-.119.026-.0441.057-.0838.092-.119.049-.0529.108-.119.179-.1984.07-.0749.141-.163.212-.2644.07-.097.134-.205.191-.324.062-.1146.106-.238.132-.3702-.136 0-.262-.0242-.376-.0727-.115-.0529-.214-.1234-.298-.2116-.079-.0881-.143-.1917-.192-.3107-.044-.119-.066-.249-.066-.3901zm6.871-4.9651c.361 0 .712.0595 1.051.1785.344.119.646.2998.906.5422.26.238.469.5355.628.8925s.238.7735.238 1.2495c0 .4452-.082.8639-.245 1.2562-.163.3878-.392.7272-.687 1.0181-.296.2909-.653.5201-1.071.6876-.415.1675-.873.2512-1.375.2512-.512 0-.97-.0815-1.376-.2446-.405-.1631-.751-.3901-1.038-.681-.286-.2953-.506-.6479-.661-1.0578-.15-.4143-.225-.8727-.225-1.3751 0-.4496.091-.9102.272-1.3818.185-.476.469-.9696.852-1.4809l2.281-3.061c.08-.1058.194-.1962.344-.2711.154-.0749.331-.1124.529-.1124h1.454l-2.836 3.4709c-.061.075-.121.1455-.178.2116-.053.0661-.106.1344-.159.2049.185-.0925.383-.1652.595-.2181.216-.0529.45-.0794.701-.0794zm-2.288 2.9685c0 .2645.036.5069.106.7272.075.216.183.4011.324.5554.146.1543.324.2755.536.3636.211.0838.456.1256.733.1256.26 0 .499-.044.714-.1322.221-.0881.408-.2116.562-.3702.159-.1587.283-.3438.371-.5554.088-.2159.132-.4495.132-.7008 0-.2732-.042-.5179-.126-.7338-.083-.2204-.202-.4055-.357-.5554-.154-.1542-.339-.271-.555-.3504-.216-.0793-.454-.119-.714-.119s-.496.0441-.708.1322c-.211.0882-.394.2116-.548.3703-.15.1542-.267.3394-.351.5553-.079.2116-.119.4408-.119.6876zm12.867-1.7784c0 .833-.09 1.558-.271 2.1751-.176.6126-.423 1.1195-.741 1.5206-.313.4011-.685.7008-1.117.8991-.427.1939-.89.2909-1.388.2909s-.961-.097-1.389-.2909c-.423-.1983-.791-.498-1.104-.8991s-.557-.908-.734-1.5206c-.176-.6171-.264-1.3421-.264-2.1751 0-.8375.088-1.5625.264-2.1751.177-.6127.421-1.1196.734-1.5206.313-.4011.681-.6986 1.104-.8926.428-.1983.891-.2975 1.389-.2975s.961.0992 1.388.2975c.432.194.804.4915 1.117.8926.318.401.565.9079.741 1.5206.181.6126.271 1.3376.271 2.1751zm-1.686 0c0-.692-.051-1.265-.152-1.719-.101-.4539-.238-.8154-.41-1.0842-.167-.2689-.361-.4562-.582-.562-.22-.1102-.449-.1653-.687-.1653-.234 0-.461.0551-.681.1653-.216.1058-.408.2931-.575.562-.168.2688-.302.6303-.404 1.0842-.097.454-.145 1.027-.145 1.719 0 .6919.048 1.2649.145 1.7189.102.454.236.8154.404 1.0843.167.2688.359.4583.575.5685.22.1058.447.1587.681.1587.238 0 .467-.0529.687-.1587.221-.1102.415-.2997.582-.5685.172-.2689.309-.6303.41-1.0843s.152-1.027.152-1.7189zm9.356 0c0 .833-.09 1.558-.271 2.1751-.176.6126-.423 1.1195-.74 1.5206-.313.4011-.686.7008-1.118.8991-.427.1939-.89.2909-1.388.2909s-.961-.097-1.388-.2909c-.424-.1983-.792-.498-1.105-.8991s-.557-.908-.733-1.5206c-.177-.6171-.265-1.3421-.265-2.1751 0-.8375.088-1.5625.265-2.1751.176-.6127.42-1.1196.733-1.5206.313-.4011.681-.6986 1.105-.8926.427-.1983.89-.2975 1.388-.2975s.961.0992 1.388.2975c.432.194.805.4915 1.118.8926.317.401.564.9079.74 1.5206.181.6126.271 1.3376.271 2.1751zm-1.686 0c0-.692-.05-1.265-.152-1.719-.101-.4539-.238-.8154-.41-1.0842-.167-.2689-.361-.4562-.582-.562-.22-.1102-.449-.1653-.687-.1653-.234 0-.461.0551-.681.1653-.216.1058-.408.2931-.575.562-.168.2688-.302.6303-.404 1.0842-.097.454-.145 1.027-.145 1.719 0 .6919.048 1.2649.145 1.7189.102.454.236.8154.404 1.0843.167.2688.359.4583.575.5685.22.1058.447.1587.681.1587.238 0 .467-.0529.687-.1587.221-.1102.415-.2997.582-.5685.172-.2689.309-.6303.41-1.0843.102-.454.152-1.027.152-1.7189zm2.5 3.8808c0-.1366.025-.2667.073-.3901.053-.1234.123-.2292.212-.3173.092-.0882.2-.1587.324-.2116.123-.0529.255-.0793.396-.0793.137 0 .267.0264.39.0793.124.0529.229.1234.318.2116.088.0881.158.1939.211.3173s.08.2535.08.3901c0 .141-.027.2733-.08.3967-.053.119-.123.2226-.211.3107-.089.0882-.194.1565-.318.205-.123.0528-.253.0793-.39.0793-.141 0-.273-.0265-.396-.0793-.124-.0485-.232-.1168-.324-.205-.089-.0881-.159-.1917-.212-.3107-.048-.1234-.073-.2557-.073-.3967zm9.826-3.8808c0 .833-.09 1.558-.271 2.1751-.176.6126-.423 1.1195-.74 1.5206-.313.4011-.686.7008-1.118.8991-.427.1939-.89.2909-1.388.2909s-.961-.097-1.388-.2909c-.424-.1983-.792-.498-1.105-.8991-.312-.4011-.557-.908-.733-1.5206-.177-.6171-.265-1.3421-.265-2.1751 0-.8375.088-1.5625.265-2.1751.176-.6127.421-1.1196.733-1.5206.313-.4011.681-.6986 1.105-.8926.427-.1983.89-.2975 1.388-.2975s.961.0992 1.388.2975c.432.194.805.4915 1.118.8926.317.401.564.9079.74 1.5206.181.6126.271 1.3376.271 2.1751zm-1.686 0c0-.692-.05-1.265-.152-1.719-.101-.4539-.238-.8154-.41-1.0842-.167-.2689-.361-.4562-.581-.562-.221-.1102-.45-.1653-.688-.1653-.234 0-.461.0551-.681.1653-.216.1058-.408.2931-.575.562-.168.2688-.302.6303-.404 1.0842-.096.454-.145 1.027-.145 1.719 0 .6919.049 1.2649.145 1.7189.102.454.236.8154.404 1.0843.167.2688.359.4583.575.5685.22.1058.447.1587.681.1587.238 0 .467-.0529.688-.1587.22-.1102.414-.2997.581-.5685.172-.2689.309-.6303.41-1.0843.102-.454.152-1.027.152-1.7189zm9.356 0c0 .833-.09 1.558-.271 2.1751-.176.6126-.423 1.1195-.74 1.5206-.313.4011-.686.7008-1.118.8991-.427.1939-.89.2909-1.388.2909s-.961-.097-1.388-.2909c-.423-.1983-.791-.498-1.104-.8991s-.558-.908-.734-1.5206c-.177-.6171-.265-1.3421-.265-2.1751 0-.8375.088-1.5625.265-2.1751.176-.6127.421-1.1196.734-1.5206.313-.4011.681-.6986 1.104-.8926.427-.1983.89-.2975 1.388-.2975s.961.0992 1.388.2975c.432.194.805.4915 1.118.8926.317.401.564.9079.74 1.5206.181.6126.271 1.3376.271 2.1751zm-1.686 0c0-.692-.05-1.265-.152-1.719-.101-.4539-.238-.8154-.41-1.0842-.167-.2689-.361-.4562-.581-.562-.221-.1102-.45-.1653-.688-.1653-.234 0-.461.0551-.681.1653-.216.1058-.408.2931-.575.562-.168.2688-.302.6303-.403 1.0842-.097.454-.146 1.027-.146 1.719 0 .6919.049 1.2649.146 1.7189.101.454.235.8154.403 1.0843.167.2688.359.4583.575.5685.22.1058.447.1587.681.1587.238 0 .467-.0529.688-.1587.22-.1102.414-.2997.581-.5685.172-.2689.309-.6303.41-1.0843.102-.454.152-1.027.152-1.7189z" fill="#fcfcfc"/></g></g><path d="m58 62.9651v-1.9767h.325v-.6634h.6672v-.325h1.9844v.325h1.9843v-.325h1.9844v.325h1.9844v-.325h1.9844v.325h1.9843v-.325h1.9844v.325h1.9844v-.325h1.9844v.325h1.9843v-.325h1.9844v.325h1.9844v-.325h1.9844v.325h1.9843v-.325h1.9844v.325h1.9844v-.325h1.9844v.325h1.9843v-.325h1.9844v.325h1.9844v-.325h1.9843v.325h1.984v-.325h1.985v.325h1.984v-.325h1.985v.325h1.984v-.325h1.984v.325h1.985v-.325h1.984v.325h1.984v-.325h1.985v.325h1.984v-.325h1.985v.325h1.984v-.325h1.984v.325h1.985v-.325h1.984v.325h1.984v-.325h1.985v.325h1.984v-.325h1.985v.325h1.984v-.325h1.984v.325h1.985v-.325h1.984v.325h1.984v-.325h1.985v.325h1.984v-.325h1.985v.325h1.984v-.325h1.984v.325h1.985v-.325h1.984v.325h1.984v-.325h1.985v.325h1.984v-.325h1.985v.325h1.984v-.325h1.984v.325h1.985v-.325h1.984v.325h1.984v-.325h1.985v.325h.667v.6633h.325v1.9767h-.325v1.9768h.325v1.9767h-.325v1.9768h.325v1.9767h-.325v1.9768h.325v1.9767h-.325v1.9767h.325v1.9768h-.325v1.9767h.325v1.9768h-.325v1.9767h.325v1.9768h-.325v1.9767h.325v1.9768h-.325v1.9767h.325v1.9768h-.325v1.9767h.325v1.9768h-.325v1.9765h.325v1.977h-.325v1.977h.325v1.976h-.325v1.977h.325v1.977h-.325v1.977h.325v1.976h-.325v1.977h.325v1.977h-.325v1.977h.325v1.976h-.325v1.977h.325v1.977h-.325v1.977h.325v1.976h-.325v1.977h.325v1.977h-.325v1.977h.325v1.976h-.325v1.977h.325v1.977h-.325v1.977h.325v1.976h-.325v1.977h.325v1.977h-.325v1.977h.325v1.976h-.325v1.977h.325v1.977h-.325v1.977h.325v1.976h-.325v1.977h.325v1.977h-.325v1.977h.325v1.976h-.325v1.977h.325v1.977h-.325v1.977h.325v1.976h-.325v1.977h.325v1.977h-.325v1.977h.325v1.976h-.325v1.977h.325v1.977h-.325v1.976h.325v1.977h-.325v1.977h.325v1.977h-.325v1.976h.325v1.977h-.325v1.977h.325v1.977h-.325v1.976h.325v1.977h-.325v1.977h.325v1.977h-.325v1.976h.325v1.977h-.325v1.977h.325v1.977h-.325v1.976h.325v1.977h-.325v1.977h.325v1.977h-.325v.663h-.667v.325h-1.985v-.325h-1.984v.325h-1.984v-.325h-1.985v.325h-1.984v-.325h-1.984v.325h-1.985v-.325h-1.984v.325h-1.985v-.325h-1.984v.325h-1.984v-.325h-1.985v.325h-1.984v-.325h-1.984v.325h-1.985v-.325h-1.984v.325h-1.985v-.325h-1.984v.325h-1.984v-.325h-1.985v.325h-1.984v-.325h-1.984v.325h-1.985v-.325h-1.984v.325h-1.985v-.325h-1.984v.325h-1.984v-.325h-1.985v.325h-1.984v-.325h-1.984v.325h-1.985v-.325h-1.984v.325h-1.985v-.325h-1.984v.325h-1.984v-.325h-1.985v.325h-1.984v-.325h-1.984v.325h-1.985v-.325h-1.984v.325h-1.985v-.325h-1.984v.325h-1.9843v-.325h-1.9844v.325h-1.9844v-.325h-1.9843v.325h-1.9844v-.325h-1.9844v.325h-1.9844v-.325h-1.9843v.325h-1.9844v-.325h-1.9844v.325h-1.9844v-.325h-1.9843v.325h-1.9844v-.325h-1.9844v.325h-1.9844v-.325h-1.9843v.325h-1.9844v-.325h-1.9844v.325h-1.9844v-.325h-1.9843v.325h-1.9844v-.325h-.6672v-.663h-.325v-1.977h.325v-1.977h-.325v-1.977h.325v-1.976h-.325v-1.977h.325v-1.977h-.325v-1.977h.325v-1.976h-.325v-1.977h.325v-1.977h-.325v-1.976h.325v-1.977h-.325v-1.977h.325v-1.977h-.325v-1.976h.325v-1.977h-.325v-1.977h.325v-1.977h-.325v-1.976h.325v-1.977h-.325v-1.977h.325v-1.977h-.325v-1.976h.325v-1.977h-.325v-1.977h.325v-1.977h-.325v-1.976h.325v-1.977h-.325v-1.977h.325v-1.977h-.325v-1.976h.325v-1.977h-.325v-1.977h.325v-1.977h-.325v-1.976h.325v-1.977h-.325v-1.977h.325v-1.977h-.325v-1.976h.325v-1.977h-.325v-1.977h.325v-1.977h-.325v-1.976h.325v-1.977h-.325v-1.977h.325v-1.977h-.325v-1.976h.325v-1.977h-.325v-1.977h.325v-1.977h-.325v-1.976h.325v-1.977h-.325v-1.977h.325v-1.977h-.325v-1.976h.325v-1.977h-.325v-1.977h.325v-1.977h-.325v-1.976h.325v-1.977h-.325v-1.977h.325v-1.977h-.325v-1.976h.325v-1.977h-.325v-1.977h.325v-1.9765h-.325v-1.9767h.325v-1.9768h-.325v-1.9767h.325v-1.9768h-.325v-1.9767h.325v-1.9768h-.325v-1.9767h.325v-1.9767h-.325v-1.9768h.325v-1.9767h-.325v-1.9768h.325v-1.9767h-.325v-1.9768h.325v-1.9767h-.325v-1.9768h.325v-1.9767h-.325v-1.9767h.325v-1.9768z" fill="#fff" stroke="#000" stroke-dasharray="2 2" stroke-width=".65"/><rect height="16.0657" opacity=".4" rx="3.41786" stroke="#737777" stroke-width=".65" width="106.35" x="68.325" y="126.109"/><rect height="16.0657" opacity=".4" rx="3.41786" stroke="#737777" stroke-width=".65" width="106.35" x="68.325" y="177.016"/><path d="m77.156 136.385h-.705c-.0575 0-.1037-.015-.1387-.045-.0325-.032-.0588-.066-.0788-.101l-.9187-1.451c-.0125.037-.025.073-.0375.108s-.0288.068-.0488.098l-.8437 1.245c-.025.035-.0538.069-.0863.101-.0325.03-.075.045-.1275.045h-.6525l1.3275-1.961-1.275-1.849h.705c.0575 0 .0988.009.1238.026.0275.018.0512.044.0712.079l.9038 1.391c.0125-.037.0262-.073.0412-.108.015-.038.035-.077.06-.117l.7763-1.151c.045-.08.105-.12.18-.12h.6712l-1.275 1.815zm3.7793 0h-.705c-.0575 0-.1037-.015-.1387-.045-.0325-.032-.0588-.066-.0788-.101l-.9187-1.451c-.0125.037-.025.073-.0375.108s-.0288.068-.0488.098l-.8437 1.245c-.025.035-.0538.069-.0863.101-.0325.03-.075.045-.1275.045h-.6525l1.3275-1.961-1.275-1.849h.705c.0575 0 .0988.009.1238.026.0275.018.0512.044.0712.079l.9038 1.391c.0125-.037.0262-.073.0412-.108.015-.038.035-.077.06-.117l.7763-1.151c.045-.08.105-.12.18-.12h.6712l-1.275 1.815zm3.7793 0h-.705c-.0575 0-.1037-.015-.1387-.045-.0325-.032-.0588-.066-.0788-.101l-.9187-1.451c-.0125.037-.025.073-.0375.108s-.0288.068-.0488.098l-.8437 1.245c-.025.035-.0538.069-.0863.101-.0325.03-.075.045-.1275.045h-.6525l1.3275-1.961-1.275-1.849h.705c.0575 0 .0988.009.1238.026.0275.018.0512.044.0712.079l.9038 1.391c.0125-.037.0262-.073.0412-.108.015-.038.035-.077.06-.117l.7763-1.151c.045-.08.105-.12.18-.12h.6712l-1.275 1.815zm3.7793 0h-.705c-.0575 0-.1037-.015-.1387-.045-.0325-.032-.0588-.066-.0788-.101l-.9187-1.451c-.0125.037-.025.073-.0375.108s-.0288.068-.0488.098l-.8437 1.245c-.025.035-.0538.069-.0863.101-.0325.03-.075.045-.1275.045h-.6525l1.3275-1.961-1.275-1.849h.705c.0575 0 .0988.009.1238.026.0275.018.0512.044.0712.079l.9038 1.391c.0125-.037.0262-.073.0412-.108.015-.038.035-.077.06-.117l.7763-1.151c.045-.08.105-.12.18-.12h.6712l-1.275 1.815zm5.6763 0h-.705c-.0575 0-.1038-.015-.1388-.045-.0325-.032-.0587-.066-.0787-.101l-.9188-1.451c-.0125.037-.025.073-.0375.108s-.0287.068-.0487.098l-.8438 1.245c-.025.035-.0537.069-.0862.101-.0325.03-.075.045-.1275.045h-.6525l1.3275-1.961-1.275-1.849h.705c.0575 0 .0987.009.1237.026.0275.018.0513.044.0713.079l.9037 1.391c.0125-.037.0263-.073.0413-.108.015-.038.035-.077.06-.117l.7762-1.151c.045-.08.105-.12.18-.12h.6713l-1.275 1.815zm3.7793 0h-.705c-.0575 0-.1038-.015-.1388-.045-.0325-.032-.0587-.066-.0787-.101l-.9188-1.451c-.0125.037-.025.073-.0375.108s-.0287.068-.0487.098l-.8438 1.245c-.025.035-.0537.069-.0862.101-.0325.03-.075.045-.1275.045h-.6525l1.3275-1.961-1.275-1.849h.705c.0575 0 .0987.009.1237.026.0275.018.0513.044.0713.079l.9037 1.391c.0125-.037.0263-.073.0413-.108.015-.038.035-.077.06-.117l.7762-1.151c.045-.08.105-.12.18-.12h.6713l-1.275 1.815zm3.7795 0h-.705c-.058 0-.104-.015-.139-.045-.032-.032-.059-.066-.079-.101l-.9185-1.451c-.0125.037-.025.073-.0375.108s-.0287.068-.0487.098l-.8438 1.245c-.025.035-.0537.069-.0862.101-.0325.03-.075.045-.1275.045h-.6525l1.3275-1.961-1.275-1.849h.705c.0575 0 .0987.009.1237.026.0275.018.0513.044.0713.079l.9037 1.391c.0125-.037.0263-.073.0413-.108.0152-.038.0352-.077.0602-.117l.776-1.151c.045-.08.105-.12.18-.12h.671l-1.275 1.815zm3.779 0h-.705c-.057 0-.104-.015-.139-.045-.032-.032-.058-.066-.078-.101l-.919-1.451c-.013.037-.025.073-.038.108-.012.035-.028.068-.048.098l-.844 1.245c-.025.035-.054.069-.086.101-.033.03-.075.045-.128.045h-.652l1.327-1.961-1.275-1.849h.705c.058 0 .099.009.124.026.027.018.051.044.071.079l.904 1.391c.012-.037.026-.073.041-.108.015-.038.035-.077.06-.117l.776-1.151c.045-.08.105-.12.18-.12h.672l-1.275 1.815zm5.676 0h-.705c-.057 0-.103-.015-.138-.045-.033-.032-.059-.066-.079-.101l-.919-1.451c-.012.037-.025.073-.037.108-.013.035-.029.068-.049.098l-.844 1.245c-.025.035-.054.069-.086.101-.033.03-.075.045-.128.045h-.652l1.327-1.961-1.275-1.849h.705c.058 0 .099.009.124.026.028.018.051.044.071.079l.904 1.391c.013-.037.026-.073.041-.108.015-.038.035-.077.06-.117l.777-1.151c.045-.08.105-.12.18-.12h.671l-1.275 1.815zm3.78 0h-.705c-.058 0-.104-.015-.139-.045-.033-.032-.059-.066-.079-.101l-.919-1.451c-.012.037-.025.073-.037.108-.013.035-.029.068-.049.098l-.844 1.245c-.025.035-.053.069-.086.101-.032.03-.075.045-.127.045h-.653l1.328-1.961-1.275-1.849h.705c.057 0 .098.009.123.026.028.018.052.044.072.079l.903 1.391c.013-.037.027-.073.042-.108.015-.038.035-.077.06-.117l.776-1.151c.045-.08.105-.12.18-.12h.671l-1.275 1.815zm3.779 0h-.705c-.058 0-.104-.015-.139-.045-.032-.032-.059-.066-.079-.101l-.918-1.451c-.013.037-.025.073-.038.108-.012.035-.029.068-.049.098l-.843 1.245c-.025.035-.054.069-.087.101-.032.03-.075.045-.127.045h-.653l1.328-1.961-1.275-1.849h.705c.057 0 .099.009.124.026.027.018.051.044.071.079l.904 1.391c.012-.037.026-.073.041-.108.015-.038.035-.077.06-.117l.776-1.151c.045-.08.105-.12.18-.12h.671l-1.275 1.815zm3.779 0h-.705c-.057 0-.104-.015-.139-.045-.032-.032-.058-.066-.078-.101l-.919-1.451c-.013.037-.025.073-.038.108-.012.035-.028.068-.048.098l-.844 1.245c-.025.035-.054.069-.086.101-.033.03-.075.045-.128.045h-.652l1.327-1.961-1.275-1.849h.705c.058 0 .099.009.124.026.027.018.051.044.071.079l.904 1.391c.012-.037.026-.073.041-.108.015-.038.035-.077.06-.117l.776-1.151c.045-.08.105-.12.18-.12h.672l-1.275 1.815zm5.676 0h-.705c-.057 0-.103-.015-.138-.045-.033-.032-.059-.066-.079-.101l-.919-1.451c-.012.037-.025.073-.037.108-.013.035-.029.068-.049.098l-.844 1.245c-.025.035-.054.069-.086.101-.033.03-.075.045-.128.045h-.652l1.327-1.961-1.275-1.849h.705c.058 0 .099.009.124.026.028.018.051.044.071.079l.904 1.391c.013-.037.026-.073.041-.108.015-.038.035-.077.06-.117l.777-1.151c.045-.08.105-.12.18-.12h.671l-1.275 1.815zm3.78 0h-.705c-.058 0-.104-.015-.139-.045-.032-.032-.059-.066-.079-.101l-.918-1.451c-.013.037-.025.073-.038.108-.012.035-.029.068-.049.098l-.843 1.245c-.025.035-.054.069-.087.101-.032.03-.075.045-.127.045h-.653l1.328-1.961-1.275-1.849h.705c.057 0 .099.009.124.026.027.018.051.044.071.079l.904 1.391c.012-.037.026-.073.041-.108.015-.038.035-.077.06-.117l.776-1.151c.045-.08.105-.12.18-.12h.671l-1.275 1.815zm3.779 0h-.705c-.057 0-.104-.015-.139-.045-.032-.032-.058-.066-.078-.101l-.919-1.451c-.013.037-.025.073-.038.108-.012.035-.028.068-.048.098l-.844 1.245c-.025.035-.054.069-.086.101-.033.03-.075.045-.128.045h-.652l1.327-1.961-1.275-1.849h.705c.058 0 .099.009.124.026.027.018.051.044.071.079l.904 1.391c.012-.037.026-.073.041-.108.015-.038.035-.077.06-.117l.776-1.151c.045-.08.105-.12.18-.12h.672l-1.275 1.815zm3.779 0h-.705c-.057 0-.103-.015-.138-.045-.033-.032-.059-.066-.079-.101l-.919-1.451c-.012.037-.025.073-.037.108-.013.035-.029.068-.049.098l-.844 1.245c-.025.035-.054.069-.086.101-.033.03-.075.045-.128.045h-.652l1.327-1.961-1.275-1.849h.705c.058 0 .099.009.124.026.028.018.051.044.071.079l.904 1.391c.013-.037.026-.073.041-.108.015-.038.035-.077.06-.117l.777-1.151c.045-.08.105-.12.18-.12h.671l-1.275 1.815z" fill="#737777" opacity=".8"/><path d="m160.93 130.705h6.819c.257 0 .465.208.465.465v4.339c0 .256-.208.464-.465.464h-6.819c-.256 0-.464-.208-.464-.464v-4.339c0-.257.208-.465.464-.465z" fill="#e9e9e9" stroke="#7b7b7b" stroke-width=".309931"/><path d="m161.24 132.099h1.23972v.929792h-1.23972z" fill="#c4c4c4"/><path d="m161.24 134.269h1.23972v.309931h-1.23972z" fill="#7b7b7b"/><path d="m162.893 134.269h1.23972v.309931h-1.23972z" fill="#7b7b7b"/><path d="m164.543 134.269h1.23972v.309931h-1.23972z" fill="#7b7b7b"/><path d="m166.199 134.269h1.23972v.309931h-1.23972z" fill="#7b7b7b"/><path d="m160.62 156.705h6.818c.257 0 .465.208.465.465v4.339c0 .256-.208.464-.465.464h-6.818c-.257 0-.465-.208-.465-.464v-4.339c0-.257.208-.465.465-.465z" fill="#e9e9e9" stroke="#7b7b7b" stroke-width=".309931"/><path d="m160 157.479h8.05821v1.23972h-8.05821z" fill="#7b7b7b"/><path d="m160.93 159.339h6.50855v.619862h-6.50855z" fill="#c4c4c4"/><path d="m168.524 158.564c0 1.37-1.11 2.48-2.479 2.48-1.37 0-2.48-1.11-2.48-2.48 0-1.369 1.11-2.479 2.48-2.479 1.369 0 2.479 1.11 2.479 2.479z" fill="#fff" stroke="#7b7b7b" stroke-width=".309931"/><path clip-rule="evenodd" d="m167.903 159.959c.292-.389.465-.871.465-1.395 0-.523-.173-1.006-.465-1.394h-3.72c-.291.388-.464.871-.464 1.394 0 .524.173 1.006.464 1.395z" fill="#e9e9e9" fill-rule="evenodd"/><path d="m165.161 159.116v.208h-.772v-.208h.26v-.683c0-.018.001-.035.001-.052.001-.018.002-.036.003-.054l-.154.128c-.014.011-.027.017-.041.02-.013.001-.026.001-.037 0-.012-.003-.023-.007-.032-.012-.009-.007-.016-.013-.02-.019l-.091-.121.422-.354h.238v1.147zm1.195-.052c.031 0 .055.009.073.026s.027.039.027.067v.167h-.952v-.093c0-.017.004-.037.011-.057.008-.021.021-.039.039-.056l.391-.393c.033-.034.062-.066.087-.096s.045-.06.062-.089c.016-.03.028-.059.036-.089.008-.029.012-.061.012-.094 0-.053-.013-.095-.039-.123-.026-.029-.065-.044-.117-.044-.043 0-.079.012-.109.035-.029.022-.049.05-.061.083-.013.034-.03.057-.051.068s-.051.014-.09.008l-.152-.027c.01-.068.028-.127.056-.177.029-.05.064-.092.105-.126.043-.033.091-.058.145-.074.053-.017.111-.025.173-.025.067 0 .127.01.181.03.054.019.1.046.137.081.038.034.067.076.087.124s.031.101.031.158c0 .05-.008.096-.022.138-.013.042-.032.082-.057.121-.024.037-.052.074-.084.11s-.066.072-.102.108l-.264.272c.034-.011.067-.019.101-.025.033-.005.064-.008.093-.008zm.439-.707c.01-.068.029-.127.056-.177.029-.05.064-.092.106-.126.042-.033.09-.058.144-.074.054-.017.112-.025.174-.025.066 0 .126.009.178.029.052.018.096.044.132.076s.063.07.082.112c.018.043.028.087.028.134 0 .043-.005.081-.013.114-.009.032-.022.06-.039.084s-.038.044-.064.061c-.024.016-.053.03-.085.041.15.052.225.155.225.307 0 .071-.013.134-.039.187-.026.054-.061.098-.105.133-.044.036-.094.062-.152.08-.057.018-.117.026-.18.026-.065 0-.122-.006-.172-.02s-.095-.036-.134-.065c-.039-.03-.073-.068-.103-.114-.029-.046-.055-.1-.076-.163l.128-.052c.033-.013.064-.017.093-.011.028.007.049.021.061.043.028.052.058.089.089.113.031.023.068.034.11.034.032 0 .06-.005.084-.016s.044-.025.059-.042c.016-.017.029-.036.037-.058s.012-.044.012-.066c0-.029-.002-.055-.007-.078-.004-.024-.015-.044-.033-.061-.019-.016-.047-.029-.085-.038-.037-.009-.089-.014-.156-.014v-.199c.056 0 .102-.004.137-.013.034-.008.061-.02.08-.035.019-.016.031-.034.038-.056.006-.022.009-.045.009-.071 0-.054-.013-.095-.039-.123-.025-.029-.065-.044-.117-.044-.043 0-.079.012-.109.035-.029.022-.049.05-.06.083-.013.034-.031.057-.052.068s-.051.014-.09.008z" fill="#7b7b7b"/><path d="m71.7429 151.943h44.1811c1.887 0 3.418 1.53 3.418 3.418v9.23c0 1.887-1.531 3.417-3.418 3.417h-44.1811c-1.8877 0-3.4179-1.53-3.4179-3.417v-9.23c0-1.888 1.5302-3.418 3.4179-3.418z" opacity=".4" stroke="#737777" stroke-width=".65"/><path d="m79.3518 157.28v5.026h-.651v-3.577c0-.054.0011-.111.0035-.171.0046-.061.0093-.123.014-.186l-1.673 3.07c-.0584.114-.1482.171-.2695.171h-.105c-.1214 0-.21-.057-.266-.171l-1.7045-3.08c.014.13.021.253.021.367v3.577h-.6545v-5.026h.553c.0653 0 .1155.007.1505.021.0373.012.0723.047.105.105l1.68 3.01c.0326.061.063.125.091.193.028.067.0548.135.0805.203.049-.138.1061-.271.1715-.399l1.6485-3.007c.0303-.058.063-.093.098-.105.0373-.014.0886-.021.154-.021zm6.5283 0v5.026h-.651v-3.577c0-.054.0012-.111.0035-.171.0047-.061.0093-.123.014-.186l-1.673 3.07c-.0583.114-.1482.171-.2695.171h-.105c-.1213 0-.21-.057-.266-.171l-1.7045-3.08c.014.13.021.253.021.367v3.577h-.6545v-5.026h.553c.0653 0 .1155.007.1505.021.0373.012.0723.047.105.105l1.68 3.01c.0327.061.063.125.091.193.028.067.0548.135.0805.203.049-.138.1062-.271.1715-.399l1.6485-3.007c.0303-.058.063-.093.098-.105.0373-.014.0887-.021.154-.021zm3.2798 5.082c-.0327.089-.084.154-.154.196-.07.044-.1423.067-.217.067h-.287l2.086-5.236c.0327-.08.0793-.14.14-.182.063-.045.1353-.067.217-.067h.2905zm6.3731-2.044v1.988h-.742v-1.988l-1.841-3.038h.6545c.0654 0 .1179.016.1575.049.0397.03.0724.071.098.123l1.092 1.879c.0444.086.084.168.119.245.0374.077.07.153.098.228.0257-.075.0549-.151.0875-.228.035-.077.0747-.159.119-.245l1.0885-1.879c.0234-.042.0549-.081.0945-.116.042-.037.0945-.056.1575-.056h.658zm4.4092 0v1.988h-.742v-1.988l-1.841-3.038h.6545c.0653 0 .1178.016.1575.049.0397.03.0723.071.098.123l1.092 1.879c.0443.086.084.168.119.245.0373.077.07.153.098.228.0257-.075.0548-.151.0875-.228.035-.077.0747-.159.119-.245l1.0883-1.879c.024-.042.055-.081.095-.116.042-.037.094-.056.157-.056h.658zm4.4088 0v1.988h-.742v-1.988l-1.841-3.038h.655c.065 0 .118.016.157.049.04.03.073.071.098.123l1.092 1.879c.045.086.084.168.119.245.038.077.07.153.098.228.026-.075.055-.151.088-.228.035-.077.075-.159.119-.245l1.088-1.879c.024-.042.055-.081.095-.116.042-.037.094-.056.157-.056h.658zm4.41 0v1.988h-.742v-1.988l-1.841-3.038h.654c.065 0 .118.016.158.049.039.03.072.071.098.123l1.092 1.879c.044.086.084.168.119.245.037.077.07.153.098.228.025-.075.054-.151.087-.228.035-.077.075-.159.119-.245l1.089-1.879c.023-.042.054-.081.094-.116.042-.037.095-.056.158-.056h.658z" fill="#737777" opacity=".8"/><path d="m126.743 151.943h44.181c1.887 0 3.418 1.53 3.418 3.418v9.23c0 1.887-1.531 3.417-3.418 3.417h-44.181c-1.888 0-3.418-1.53-3.418-3.417v-9.23c0-1.888 1.53-3.418 3.418-3.418z" opacity=".4" stroke="#737777" stroke-width=".65"/><path d="m132.396 161.228c.042 0 .078.016.108.049l.294.322c-.205.243-.456.431-.752.564-.294.133-.649.199-1.064.199-.364 0-.695-.063-.991-.189-.294-.126-.546-.302-.756-.528-.208-.227-.369-.497-.483-.812s-.171-.662-.171-1.04.059-.724.178-1.039c.121-.315.291-.586.508-.812.217-.227.476-.403.777-.529.303-.126.638-.189 1.004-.189.357 0 .674.058.952.175s.519.272.725.466l-.245.346c-.017.026-.038.047-.063.063-.024.016-.055.025-.095.025-.044 0-.097-.023-.157-.067-.059-.044-.137-.093-.235-.147-.096-.056-.215-.106-.357-.15-.142-.045-.32-.067-.532-.067-.25 0-.478.044-.686.133-.208.086-.387.212-.539.378-.149.163-.266.365-.35.606-.082.238-.122.507-.122.808 0 .306.043.578.129.816s.205.439.357.605.33.292.536.378c.205.086.427.13.665.13.144 0 .274-.009.388-.025.117-.019.223-.045.319-.08.098-.035.19-.08.276-.133.086-.056.172-.123.256-.2.018-.016.038-.029.059-.038.021-.012.043-.018.067-.018zm5.295-3.948-2.044 5.026h-.668l-2.044-5.026h.595c.065 0 .118.016.157.049.042.033.074.075.095.126l1.358 3.416c.032.084.064.176.094.277.033.1.062.205.088.315.023-.11.049-.215.077-.315.028-.101.058-.193.091-.277l1.354-3.416c.017-.047.046-.087.088-.122.044-.035.098-.053.161-.053zm4.772 0-2.044 5.026h-.669l-2.044-5.026h.595c.066 0 .118.016.158.049.042.033.073.075.094.126l1.358 3.416c.033.084.064.176.095.277.032.1.062.205.087.315.024-.11.049-.215.077-.315.028-.101.059-.193.091-.277l1.355-3.416c.016-.047.045-.087.087-.122.045-.035.098-.053.161-.053z" fill="#737777" opacity=".8"/><path d="m68 205.907c0-2.067 1.6757-3.743 3.7429-3.743h98.8871c2.067 0 3.742 1.676 3.742 3.743v9.23c0 2.067-1.675 3.743-3.742 3.743h-98.8871c-2.0672 0-3.7429-1.676-3.7429-3.743z" fill="#3a68ce"/><path d="m102.856 210.987v2.036h-1.076v-5.784h1.884c.387 0 .721.045 1.004.136s.516.217.7.38.32.357.408.584.132.475.132.744c0 .28-.047.537-.14.772-.093.232-.233.432-.42.6s-.42.299-.7.392-.608.14-.984.14zm0-.84h.808c.197 0 .369-.024.516-.072.147-.051.268-.121.364-.212.096-.093.168-.205.216-.336.048-.133.072-.281.072-.444 0-.155-.024-.295-.072-.42s-.12-.232-.216-.32-.217-.155-.364-.2c-.147-.048-.319-.072-.516-.072h-.808zm6.845 2.876h-.444c-.093 0-.167-.013-.22-.04-.053-.029-.093-.087-.12-.172l-.088-.292c-.104.093-.207.176-.308.248-.099.069-.201.128-.308.176s-.22.084-.34.108-.253.036-.4.036c-.173 0-.333-.023-.48-.068-.147-.048-.273-.119-.38-.212-.104-.093-.185-.209-.244-.348s-.088-.3-.088-.484c0-.155.04-.307.12-.456.083-.152.219-.288.408-.408.189-.123.441-.224.756-.304s.705-.125 1.172-.136v-.24c0-.275-.059-.477-.176-.608-.115-.133-.283-.2-.504-.2-.16 0-.293.019-.4.056s-.2.08-.28.128c-.077.045-.149.087-.216.124s-.14.056-.22.056c-.067 0-.124-.017-.172-.052s-.087-.077-.116-.128l-.18-.316c.472-.432 1.041-.648 1.708-.648.24 0 .453.04.64.12.189.077.349.187.48.328.131.139.229.305.296.5.069.195.104.408.104.64zm-1.92-.616c.101 0 .195-.009.28-.028s.165-.047.24-.084c.077-.037.151-.083.22-.136.072-.056.144-.121.216-.196v-.692c-.288.013-.529.039-.724.076-.192.035-.347.08-.464.136s-.201.121-.252.196c-.048.075-.072.156-.072.244 0 .173.051.297.152.372.104.075.239.112.404.112zm4.207 1.744c-.029.069-.068.121-.116.156-.045.037-.116.056-.212.056h-.736l.768-1.644-1.66-3.8h.864c.08 0 .141.019.184.056s.075.08.096.128l.876 2.128c.029.069.055.141.076.216s.04.149.056.224c.021-.077.044-.152.068-.224.027-.072.055-.145.084-.22l.824-2.124c.021-.053.056-.097.104-.132.051-.035.107-.052.168-.052h.792zm5.68-1.092c-.312-.043-.605-.128-.88-.256-.272-.128-.504-.287-.696-.476l.304-.452c.027-.04.062-.072.104-.096.046-.027.092-.04.14-.04.059 0 .122.021.188.064.067.04.143.088.228.144.086.056.183.112.292.168.11.056.239.097.388.124l.152-1.792c-.189-.053-.377-.116-.564-.188-.184-.072-.35-.167-.5-.284-.146-.12-.265-.271-.356-.452-.09-.181-.136-.408-.136-.68 0-.203.04-.4.12-.592.083-.195.202-.368.356-.52.155-.152.346-.277.572-.376.227-.099.487-.155.78-.168l.044-.504c.006-.064.032-.121.08-.172s.111-.076.188-.076h.364l-.068.788c.283.045.527.125.732.24.206.115.384.244.536.388l-.24.364c-.037.053-.074.093-.112.12-.037.027-.082.04-.136.04-.04 0-.088-.012-.144-.036-.053-.027-.116-.057-.188-.092-.069-.037-.146-.075-.232-.112-.085-.037-.18-.068-.284-.092l-.14 1.656c.192.059.382.124.568.196.19.069.359.16.508.272.152.112.275.252.368.42.094.165.14.373.14.624 0 .248-.041.481-.124.7-.082.216-.204.408-.364.576-.157.165-.352.3-.584.404s-.497.167-.796.188l-.048.588c-.005.061-.032.117-.08.168-.048.053-.11.08-.188.08h-.364zm1.54-1.696c0-.101-.018-.189-.056-.264-.034-.077-.085-.145-.152-.204-.064-.059-.14-.109-.228-.152s-.184-.081-.288-.116l-.136 1.624c.283-.037.496-.132.64-.284.147-.155.22-.356.22-.604zm-1.944-2.616c0 .101.018.191.052.268.035.077.083.147.144.208.064.059.139.112.224.16.086.045.179.087.28.124l.124-1.48c-.146.019-.272.051-.376.096-.104.043-.189.096-.256.16-.066.064-.116.136-.148.216-.029.077-.044.16-.044.248zm5.693-1.572c.267 0 .507.039.72.116.216.075.4.18.552.316.152.133.268.291.348.472.083.181.124.377.124.588 0 .184-.021.347-.064.488-.04.139-.1.26-.18.364-.077.104-.173.192-.288.264-.112.072-.24.132-.384.18.347.109.605.276.776.5s.256.505.256.844c0 .288-.053.543-.16.764s-.251.408-.432.56c-.181.149-.392.263-.632.34-.237.077-.489.116-.756.116-.291 0-.544-.033-.76-.1s-.404-.165-.564-.296-.296-.291-.408-.48-.208-.408-.288-.656l.436-.18c.075-.032.151-.048.228-.048.069 0 .131.015.184.044.056.029.099.072.128.128.048.093.1.185.156.276.059.091.128.172.208.244.08.069.173.127.28.172.109.043.239.064.388.064.168 0 .315-.027.44-.08.125-.056.229-.128.312-.216.085-.088.148-.185.188-.292.043-.109.064-.219.064-.328 0-.139-.015-.264-.044-.376-.029-.115-.091-.212-.184-.292s-.228-.143-.404-.188c-.173-.045-.407-.068-.7-.068v-.704c.243-.003.444-.025.604-.068s.287-.101.38-.176c.096-.077.163-.169.2-.276s.056-.224.056-.352c0-.275-.075-.481-.224-.62-.149-.141-.353-.212-.612-.212-.235 0-.429.063-.584.188-.155.123-.263.281-.324.476-.032.101-.076.175-.132.22-.056.043-.129.064-.22.064-.043 0-.088-.004-.136-.012l-.52-.092c.04-.277.117-.52.232-.728.115-.211.257-.385.428-.524.173-.141.371-.247.592-.316.224-.072.464-.108.72-.108zm4.821 2.236c.218 0 .43.036.636.108.208.072.39.181.548.328.157.144.284.324.38.54s.144.468.144.756c0 .269-.05.523-.148.76-.099.235-.238.44-.416.616-.179.176-.395.315-.648.416-.251.101-.528.152-.832.152-.31 0-.587-.049-.832-.148-.246-.099-.455-.236-.628-.412-.174-.179-.307-.392-.4-.64-.091-.251-.136-.528-.136-.832 0-.272.054-.551.164-.836.112-.288.284-.587.516-.896l1.38-1.852c.048-.064.117-.119.208-.164.093-.045.2-.068.32-.068h.88l-1.716 2.1c-.038.045-.074.088-.108.128-.032.04-.064.081-.096.124.112-.056.232-.1.36-.132.13-.032.272-.048.424-.048zm-1.384 1.796c0 .16.021.307.064.44.045.131.11.243.196.336.088.093.196.167.324.22.128.051.276.076.444.076.157 0 .301-.027.432-.08.133-.053.246-.128.34-.224.096-.096.17-.208.224-.336.053-.131.08-.272.08-.424 0-.165-.026-.313-.076-.444-.051-.133-.123-.245-.216-.336-.094-.093-.206-.164-.336-.212-.131-.048-.275-.072-.432-.072-.158 0-.3.027-.428.08s-.239.128-.332.224c-.091.093-.162.205-.212.336-.048.128-.072.267-.072.416zm7.784-1.076c0 .504-.054.943-.164 1.316-.106.371-.256.677-.448.92-.189.243-.414.424-.676.544-.258.117-.538.176-.84.176-.301 0-.581-.059-.84-.176-.256-.12-.478-.301-.668-.544-.189-.243-.337-.549-.444-.92-.106-.373-.16-.812-.16-1.316 0-.507.054-.945.16-1.316.107-.371.255-.677.444-.92.19-.243.412-.423.668-.54.259-.12.539-.18.84-.18.302 0 .582.06.84.18.262.117.487.297.676.54.192.243.342.549.448.92.11.371.164.809.164 1.316zm-1.02 0c0-.419-.03-.765-.092-1.04-.061-.275-.144-.493-.248-.656-.101-.163-.218-.276-.352-.34-.133-.067-.272-.1-.416-.1-.141 0-.278.033-.412.1-.13.064-.246.177-.348.34-.101.163-.182.381-.244.656-.058.275-.088.621-.088 1.04s.03.765.088 1.04c.062.275.143.493.244.656.102.163.218.277.348.344.134.064.271.096.412.096.144 0 .283-.032.416-.096.134-.067.251-.181.352-.344.104-.163.187-.381.248-.656.062-.275.092-.621.092-1.04zm5.661 0c0 .504-.055.943-.164 1.316-.107.371-.256.677-.448.92-.189.243-.415.424-.676.544-.259.117-.539.176-.84.176s-.581-.059-.84-.176c-.256-.12-.479-.301-.668-.544s-.337-.549-.444-.92c-.107-.373-.16-.812-.16-1.316 0-.507.053-.945.16-1.316s.255-.677.444-.92.412-.423.668-.54c.259-.12.539-.18.84-.18s.581.06.84.18c.261.117.487.297.676.54.192.243.341.549.448.92.109.371.164.809.164 1.316zm-1.02 0c0-.419-.031-.765-.092-1.04s-.144-.493-.248-.656c-.101-.163-.219-.276-.352-.34-.133-.067-.272-.1-.416-.1-.141 0-.279.033-.412.1-.131.064-.247.177-.348.34s-.183.381-.244.656c-.059.275-.088.621-.088 1.04s.029.765.088 1.04c.061.275.143.493.244.656s.217.277.348.344c.133.064.271.096.412.096.144 0 .283-.032.416-.096.133-.067.251-.181.352-.344.104-.163.187-.381.248-.656s.092-.621.092-1.04z" fill="#fff"/><path d="m68 116.667h106.373v-.57h-106.373z" fill="#d2d4de"/><rect height="16.0657" opacity=".4" rx="3.41786" stroke="#737777" stroke-width=".65" width="106.35" x="68.325" y="70.325"/><rect height="16.0657" opacity=".4" rx="3.41786" stroke="#737777" stroke-width=".65" width="106.35" x="68.325" y="92.7779"/><g fill="#0e1414"><path d="m115.106 75.1102c.237-.2947.397-.6903.355-1.0946-.347.0172-.77.2275-1.015.5224-.22.2525-.414.6647-.364 1.052.39.0336.778-.1934 1.024-.4798z"/><path d="m115.461 75.6662c-.565-.0335-1.046.319-1.316.319s-.683-.3021-1.13-.294c-.582.0085-1.122.3357-1.417.8562-.607 1.0411-.16 2.5854.43 3.4334.287.4195.633.8814 1.088.8648.431-.0168.599-.2772 1.122-.2772s.675.2772 1.13.2688c.473-.0084.768-.4197 1.055-.8397.329-.4782.463-.9399.472-.9653-.009-.0084-.911-.3527-.919-1.3851-.009-.8645.708-1.2757.742-1.3012-.405-.5957-1.038-.6628-1.257-.6797z"/><path d="m120.391 74.4976c1.228 0 2.084.842 2.084 2.0679 0 1.2304-.873 2.0768-2.115 2.0768h-1.36v2.1509h-.982v-6.2956zm-1.391 3.3244h1.128c.855 0 1.342-.458 1.342-1.2521 0-.794-.487-1.2477-1.338-1.2477h-1.132z"/><path d="m122.717 79.4883c0-.803.618-1.2961 1.715-1.3572l1.264-.0741v-.3535c0-.5106-.347-.816-.926-.816-.548 0-.891.2617-.974.672h-.895c.053-.8292.763-1.4401 1.904-1.4401 1.119 0 1.834.5891 1.834 1.5099v3.1638h-.908v-.7549h-.022c-.268.5105-.851.8334-1.457.8334-.903 0-1.535-.5585-1.535-1.3833zm2.979-.4145v-.3622l-1.137.0698c-.566.0393-.886.288-.886.6808 0 .4014.334.6632.843.6632.662 0 1.18-.4538 1.18-1.0516z"/><path d="m127.517 82.4795v-.7635c.07.0174.228.0174.307.0174.439 0 .675-.1832.82-.6544 0-.0088.084-.2792.084-.2836l-1.667-4.5941h1.026l1.167 3.7346h.018l1.167-3.7346h1l-1.729 4.8296c-.394 1.1126-.851 1.4704-1.807 1.4704-.079 0-.316-.0088-.386-.0218z"/></g><path d="m116.559 98.5895h-1.943c-.125 0-.25.0991-.274.223l-.773 4.9555c-.025.1.05.174.15.174h.921c.125 0 .25-.099.275-.223l.199-1.338c.025-.124.124-.223.274-.223h.623c1.27 0 2.017-.62 2.217-1.834.075-.5203 0-.9416-.249-1.2389-.274-.3222-.773-.4956-1.42-.4956zm.224 1.8085c-.1.694-.648.694-1.146.694h-.299l.199-1.2883c0-.0743.075-.1239.15-.1239h.124c.349 0 .673 0 .847.1982.125.0992.175.273.125.52z" fill="#003087"/><path d="m122.325 100.371h-.922c-.075 0-.15.049-.15.124l-.049.248-.075-.1c-.199-.297-.648-.396-1.096-.396-1.022 0-1.893.768-2.068 1.858-.1.546.025 1.066.349 1.413.274.322.697.471 1.171.471.822 0 1.295-.521 1.295-.521l-.05.248c-.025.099.05.198.15.198h.847c.124 0 .249-.099.274-.223l.498-3.171c.025-.05-.075-.149-.174-.149zm-1.271 1.784c-.099.52-.498.892-1.046.892-.274 0-.473-.074-.623-.248-.149-.173-.199-.396-.149-.644.074-.52.523-.892 1.046-.892.274 0 .473.099.623.248.124.173.174.396.149.644z" fill="#003087"/><path d="m127.298 100.372h-.922c-.1 0-.175.049-.224.124l-1.296 1.883-.548-1.809c-.025-.124-.149-.198-.249-.198h-.922c-.099 0-.199.099-.149.223l1.021 2.998-.971 1.338c-.075.099 0 .248.124.248h.922c.1 0 .174-.049.224-.124l3.114-4.46c.075-.074 0-.223-.124-.223z" fill="#003087"/><path d="m130.379 98.5894h-1.943c-.125 0-.249.0991-.274.223l-.772 4.9316c-.025.099.049.173.149.173h.997c.099 0 .174-.074.174-.149l.224-1.412c.025-.124.125-.223.274-.223h.623c1.27 0 2.018-.62 2.217-1.834.075-.5202 0-.9415-.249-1.2388-.299-.2974-.772-.4708-1.42-.4708zm.224 1.8086c-.099.694-.648.694-1.146.694h-.299l.2-1.2884c0-.0744.074-.1239.149-.1239h.125c.348 0 .672 0 .847.1982.124.0991.149.2721.124.5201z" fill="#0ae"/><path d="m136.153 100.371h-.922c-.075 0-.149.049-.149.124l-.05.248-.075-.1c-.199-.297-.648-.396-1.096-.396-1.021 0-1.893.768-2.068 1.858-.099.546.025 1.066.349 1.413.274.322.698.471 1.171.471.822 0 1.295-.521 1.295-.521l-.05.248c-.024.099.05.198.15.198h.847c.124 0 .249-.099.274-.223l.498-3.171c0-.05-.075-.149-.174-.149zm-1.296 1.784c-.099.52-.498.892-1.046.892-.274 0-.473-.074-.623-.248-.149-.173-.199-.396-.149-.644.075-.52.523-.892 1.046-.892.274 0 .473.099.623.248.149.173.199.396.149.644z" fill="#0ae"/><path d="m137.263 98.7133-.797 5.0307c-.025.099.05.173.149.173h.797c.125 0 .25-.099.274-.223l.798-4.9312c.025-.0991-.05-.1734-.15-.1734h-.897c-.099 0-.149.0495-.174.1239z" fill="#0ae"/><path d="m109.789 98.8238c.086-.6487 0-1.0811-.349-1.4827-.379-.4325-1.047-.6487-1.89-.6487h-2.472c-.146 0-.32.1544-.349.3089l-1.018 6.8577c0 .124.087.278.233.278h1.512l-.088.68c-.029.123.058.216.175.216h1.279c.146 0 .291-.093.32-.247v-.093l.262-1.606v-.062c.029-.155.174-.278.32-.278h.175c1.25 0 2.209-.525 2.5-2.07.146-.648.088-1.1736-.261-1.5443-.088-.1235-.233-.2162-.349-.3089z" fill="#0ae"/><path d="m109.789 98.8238c.086-.6487 0-1.0811-.349-1.4827-.379-.4325-1.047-.6487-1.89-.6487h-2.472c-.146 0-.32.1544-.349.3089l-1.018 6.8577c0 .124.087.278.233.278h1.512l.407-2.564-.029.093c.029-.186.174-.309.349-.309h.726c1.426 0 2.531-.618 2.88-2.3478-.029-.0927 0-.1236 0-.1854z" fill="#012169"/><path d="m106.241 98.8238c.029-.0927.087-.1853.175-.2471.057 0 .086-.0309.145-.0309h1.919c.233 0 .465.0309.64.0618.058 0 .116 0 .174.0309s.116.0309.146.0618h.087c.087.0308.174.0926.262.1235.086-.6487 0-1.0811-.349-1.5136s-1.018-.6178-1.862-.6178h-2.5c-.146 0-.32.1235-.349.3089l-1.018 6.8577c0 .124.087.278.233.278h1.512l.407-2.564z" fill="#003087"/><path d="m184.699 49.7v10.6188h10.619" stroke="#202323" stroke-width=".65"/><path d="m47.6992 60.3 10.6189.0001v-10.6189" stroke="#202323" stroke-width=".65"/><path d="m58.3496 240.3v-10.619h-10.6189" stroke="#202323" stroke-width=".65"/><path d="m195.301 229.7h-10.619v10.619" stroke="#202323" stroke-width=".65"/></svg>