<svg fill="none" height="244" viewBox="0 0 310 244" width="310" xmlns="http://www.w3.org/2000/svg" xmlns:xlink="http://www.w3.org/1999/xlink"><linearGradient id="a" gradientUnits="userSpaceOnUse" x1="248" x2="18.4329" y1=".000019" y2="174.477"><stop offset="0" stop-color="#dff2ff"/><stop offset="1" stop-color="#eae5f0"/></linearGradient><clipPath id="b"><path d="m249.385 112.908h10.8345v10.8055h-10.8345z"/></clipPath><clipPath id="c"><path d="m249.385 137.963h10.8345v10.8055h-10.8345z"/></clipPath><mask id="d" height="244" maskUnits="userSpaceOnUse" width="310" x="0" y="0"><path d="m0 0h310v244h-310z" fill="url(#a)"/></mask><path d="m0 0h310v244h-310z" fill="url(#a)"/><g mask="url(#d)"><g opacity=".2"><path d="m386.74 259.288h.325v-.325-221.2303c0-3.0232-2.45-5.474-5.474-5.474h-343.0104c-3.0232 0-5.474 2.4508-5.474 5.474v221.2303.325h.325z" fill="#fff" stroke="#202323" stroke-width=".65"/><path d="m386.74 37.7327c0-2.8437-2.305-5.149-5.149-5.149h-171.021v226.3793h176.17z" fill="#3a68ce"/><path d="m270.582 185.293h81.309" stroke="#fcfcfc" stroke-opacity=".2" stroke-width=".440753"/><path d="m270.582 157.78h81.309" stroke="#fcfcfc" stroke-opacity=".2" stroke-width=".440753"/><g fill="#fcfcfc"><path d="m270.49 110.634c0-.837.679-1.516 1.516-1.516h93.464c.837 0 1.515.679 1.515 1.516s-.678 1.515-1.515 1.515h-93.464c-.837 0-1.516-.678-1.516-1.515z" fill-opacity=".2"/><path d="m270.49 135.688c0-.837.679-1.515 1.516-1.515h93.464c.837 0 1.515.678 1.515 1.515s-.678 1.516-1.515 1.516h-93.464c-.837 0-1.516-.679-1.516-1.516z" fill-opacity=".2"/><path d="m270.49 122c0-.837.679-1.516 1.516-1.516h11.405c.837 0 1.516.679 1.516 1.516s-.679 1.515-1.516 1.515h-11.405c-.837 0-1.516-.678-1.516-1.515z" fill-opacity=".2"/><path d="m270.49 147.055c0-.837.679-1.515 1.516-1.515h11.405c.837 0 1.516.678 1.516 1.515s-.679 1.516-1.516 1.516h-11.405c-.837 0-1.516-.679-1.516-1.516z" fill-opacity=".2"/><path d="m245.416 89.4162c0-.837.679-1.5156 1.516-1.5156h28.12c.837 0 1.516.6786 1.516 1.5156s-.679 1.5155-1.516 1.5155h-28.12c-.837 0-1.516-.6785-1.516-1.5155z" fill-opacity=".2"/><path d="m270.49 165.858c0-.837.679-1.516 1.516-1.516h16.724c.837 0 1.515.679 1.515 1.516s-.678 1.515-1.515 1.515h-16.724c-.837 0-1.516-.678-1.516-1.515z" fill-opacity=".2"/><path d="m270.49 177.982c0-.837.679-1.515 1.516-1.515h6.086c.837 0 1.516.678 1.516 1.515s-.679 1.516-1.516 1.516h-6.086c-.837 0-1.516-.679-1.516-1.516z" fill-opacity=".2"/><path d="m270.49 191.622c0-.837.679-1.516 1.516-1.516h22.042c.837 0 1.516.679 1.516 1.516s-.679 1.516-1.516 1.516h-22.042c-.837 0-1.516-.679-1.516-1.516z" fill-opacity=".2"/></g><path d="m245.412 108.945h18.4187v18.3693h-18.4187z" fill="#d9d9d9"/><path d="m245 109h19v19h-19z" fill="#d5e2ff"/><g clip-path="url(#b)"><path d="m250.8 122.324c-.874-1.005-1.355-2.293-1.355-3.625 0-3.153 2.263-5.53 5.264-5.53 3.055 0 5.449 2.421 5.449 5.512 0 1.299-.447 2.407-1.406 3.488l-.531-.468c.837-.944 1.228-1.904 1.228-3.02 0-2.694-2.082-4.805-4.74-4.805-2.596 0-4.555 2.073-4.555 4.823 0 1.162.42 2.285 1.182 3.162z" fill="#0e1414" fill-opacity=".6"/><path d="m251.744 118.326c.683 0 1.241.557 1.241 1.238v2.911c0 .681-.558 1.238-1.241 1.238" fill="#f44f7e"/><path d="m251.1 123.713h.675v-5.387h-.585c-.05 0-.09.041-.09.091z" fill="#0e1414"/><path d="m251.094 122.511h-.661c-.051 0-.091-.04-.091-.09v-2.796c0-.05.04-.091.091-.091h.661z" fill="#3a68ce"/><path d="m257.839 118.326c-.683 0-1.241.557-1.241 1.238v2.911c0 .681.558 1.238 1.241 1.238" fill="#f44f7e"/><path d="m258.397 123.713h-.585v-5.387h.585c.05 0 .091.041.091.091v5.206c0 .05-.041.09-.091.09z" fill="#0e1414"/><path d="m258.49 122.511h.662c.05 0 .091-.04.091-.09v-2.796c0-.05-.041-.091-.091-.091h-.662z" fill="#3a68ce"/><path d="m259.617 115.613c-1.014-1.674-2.836-2.705-4.805-2.705-1.998 0-3.829 1.032-4.828 2.708-.057.095-.02.219.077.272l.828.451c.094.051.209.017.265-.074.763-1.253 2.147-2.023 3.658-2.023 1.487 0 2.864.772 3.641 2.028.056.091.171.124.265.072l.824-.457c.097-.054.133-.178.075-.272z" fill="#0e1414"/></g><path d="m245.412 134h18.4187v18.3693h-18.4187z" fill="#d5e2ff"/><g clip-path="url(#c)"><path d="m250.8 147.379c-.874-1.005-1.355-2.293-1.355-3.625 0-3.153 2.263-5.53 5.264-5.53 3.055 0 5.449 2.421 5.449 5.512 0 1.299-.447 2.407-1.406 3.488l-.531-.468c.837-.945 1.228-1.904 1.228-3.02 0-2.695-2.082-4.805-4.74-4.805-2.596 0-4.555 2.073-4.555 4.823 0 1.162.42 2.285 1.182 3.162z" fill="#0e1414" fill-opacity=".6"/><path d="m251.744 143.381c.683 0 1.241.557 1.241 1.238v2.911c0 .681-.558 1.238-1.241 1.238" fill="#f44f7e"/><path d="m251.1 148.768h.675v-5.387h-.585c-.05 0-.09.041-.09.091z" fill="#0e1414"/><path d="m251.094 147.566h-.661c-.051 0-.091-.04-.091-.09v-2.796c0-.05.04-.091.091-.091h.661z" fill="#3a68ce"/><path d="m257.839 143.381c-.683 0-1.241.557-1.241 1.238v2.911c0 .681.558 1.238 1.241 1.238" fill="#f44f7e"/><path d="m258.397 148.768h-.585v-5.387h.585c.05 0 .091.041.091.091v5.206c0 .05-.041.09-.091.09z" fill="#0e1414"/><path d="m258.49 147.566h.662c.05 0 .091-.04.091-.09v-2.796c0-.05-.041-.091-.091-.091h-.662z" fill="#3a68ce"/><path d="m259.617 140.667c-1.014-1.673-2.836-2.704-4.805-2.704-1.998 0-3.829 1.032-4.828 2.708-.057.095-.02.219.077.272l.828.451c.094.051.209.017.265-.074.763-1.253 2.147-2.023 3.658-2.023 1.487 0 2.864.772 3.641 2.028.056.091.171.124.265.072l.824-.457c.097-.054.133-.178.075-.273z" fill="#0e1414"/></g><path d="m245 134h19v19h-19z" fill="#d5e2ff"/><path d="m252.053 142.12v-1.496c0-1.298 1.052-2.35 2.35-2.35 1.298 0 2.351 1.052 2.351 2.35v1.496" stroke="#5d6672" stroke-width=".8"/><path clip-rule="evenodd" d="m250.982 142.62c0-.276.224-.5.5-.5h5.838c.276 0 .5.224.5.5v5.41c0 .277-.224.5-.5.5h-5.838c-.276 0-.5-.223-.5-.5zm3.42.782c-.473 0-.855.382-.855.855 0 .334.191.623.47.763v1.374h.769v-1.373c.279-.141.47-.43.47-.764 0-.473-.381-.855-.854-.855z" fill="#0e1414" fill-rule="evenodd"/><path d="m250.984 147.676v.355c0 .276.224.5.5.5h5.838c.276 0 .5-.224.5-.5v-.355z" fill="#f44f7e"/><path d="m249.584 79.9228c.467-.0618.82-.2182 1.058-.4695.242-.2556.363-.5884.363-.9983 0-.1674-.031-.3129-.092-.4363-.058-.1278-.141-.2402-.252-.3372-.105-.0969-.231-.1807-.376-.2512-.146-.0705-.304-.1366-.476-.1983zm-.423-6.9882c-.247.0309-.456.0838-.628.1587-.172.0705-.313.1587-.423.2644-.111.1058-.192.2248-.245.357-.049.1323-.073.2711-.073.4166 0 .1674.029.3151.086.4429.062.1234.143.2358.245.3372.106.097.229.1851.37.2644.141.075.295.1455.463.2116zm.773 2.7701c.318.097.633.205.946.324.313.1146.592.2645.839.4496.252.1851.454.4165.609.6942.154.2732.231.617.231 1.0313 0 .4099-.068.7956-.205 1.157-.137.357-.337.6743-.602.952-.264.2733-.588.4981-.972.6744-.383.1719-.822.2732-1.315.3041l-.08.9718c-.004.1014-.048.194-.132.2777-.079.0882-.18.1322-.304.1322h-.601l.119-1.4148c-.516-.0705-1.001-.2115-1.455-.4231s-.84-.4738-1.157-.7867l.503-.7471c.044-.0661.101-.119.171-.1587.075-.0441.155-.0661.238-.0661.097 0 .201.0353.311.1058.11.0661.236.1454.377.238.141.0881.302.1785.483.2711.18.0925.394.1608.641.2049l.245-2.9552c-.313-.0882-.624-.1918-.933-.3108-.304-.119-.579-.2754-.826-.4694-.242-.1983-.439-.4473-.588-.7471-.15-.2997-.225-.6743-.225-1.1239 0-.3349.066-.6611.198-.9784.132-.3218.326-.6083.582-.8595.26-.2512.577-.4584.952-.6215.375-.163.804-.2556 1.289-.2776l.073-.8331c.009-.1057.053-.2005.132-.2843.079-.0837.183-.1256.311-.1256h.601l-.105 1.2958c.467.075.87.2094 1.209.4033.34.1896.633.4033.88.6413l-.397.6017c-.057.0881-.117.1542-.178.1983-.062.0441-.137.0661-.225.0661-.066 0-.146-.0198-.238-.0595-.093-.0441-.196-.0948-.311-.1521-.114-.0617-.245-.1234-.39-.1851-.141-.0617-.297-.1124-.469-.152zm3.862-1.4015c.066-.4584.194-.8595.384-1.2033.189-.3482.425-.6369.707-.8661.287-.2336.613-.4077.979-.5223.37-.119.767-.1785 1.19-.1785.44 0 .837.0639 1.19.1917.357.1235.661.2976.912.5223.251.2204.443.4805.575.7802.137.2997.205.6236.205.9718 0 .3042-.035.573-.106.8066-.066.2292-.163.4297-.291.6016-.127.1719-.286.3174-.476.4364-.189.119-.403.2182-.641.2975.573.1807 1.001.4562 1.283.8264s.423.8352.423 1.395c0 .476-.088.8969-.265 1.2627-.176.3659-.414.6744-.714.9256-.299.2468-.647.4342-1.044.562-.392.1278-.809.1917-1.25.1917-.48 0-.899-.0551-1.256-.1653s-.668-.2732-.932-.4892-.489-.4804-.674-.7934c-.186-.3129-.344-.6743-.476-1.0842l.72-.2975c.19-.0794.366-.0992.529-.0595.168.0352.289.1234.364.2644.079.1543.165.3064.258.4562.097.1499.211.2843.343.4033.133.1146.287.2094.463.2843.181.0705.395.1058.641.1058.278 0 .521-.0441.728-.1323.207-.0925.379-.2115.515-.357.141-.1454.245-.3063.311-.4826.071-.1807.106-.3614.106-.5421 0-.2292-.024-.4364-.073-.6215-.048-.1895-.15-.3504-.304-.4826s-.377-.2358-.668-.3107c-.286-.075-.672-.1124-1.157-.1124v-1.1636c.401-.0044.734-.0419.999-.1124.264-.0705.473-.1675.628-.2909.158-.1278.269-.2799.33-.4562.062-.1763.093-.3702.093-.5818 0-.4495-.126-.7911-.377-1.0247s-.586-.3504-1.005-.3504c-.194 0-.372.0286-.535.0859-.164.0529-.311.13-.443.2314-.128.097-.236.2116-.324.3438-.089.1322-.155.2777-.199.4363-.075.2028-.174.3372-.297.4033-.119.0661-.289.0816-.509.0463zm7.737 8.5153c-.08-.0661-.119-.1477-.119-.2446 0-.0353.011-.0749.033-.119.026-.0441.057-.0838.092-.119.049-.0529.108-.119.179-.1984.07-.0749.141-.163.211-.2644.071-.097.135-.205.192-.324.062-.1146.108-.238.139-.3702-.141 0-.269-.0242-.384-.0727-.114-.0529-.213-.1234-.297-.2116-.08-.0881-.143-.1917-.192-.3107-.044-.119-.066-.249-.066-.3901 0-.1234.022-.238.066-.3438.049-.1102.115-.2049.198-.2843.084-.0837.186-.1476.305-.1917.119-.0485.249-.0727.39-.0727.167 0 .313.0308.436.0925.128.0573.231.1389.311.2447.083.1013.145.2203.185.357.044.1322.066.2732.066.4231 0 .2116-.033.4341-.099.6677-.062.2336-.155.4672-.278.7008s-.278.4606-.463.681c-.18.2204-.388.4231-.621.6082zm5.77-7.7088-.331.4099c.185-.0925.383-.163.595-.2115.216-.0529.447-.0794.694-.0794.362 0 .712.0595 1.051.1785.344.119.646.2998.906.5422.26.238.469.5355.628.8925s.238.7735.238 1.2495c0 .4452-.081.8639-.244 1.2562-.164.3878-.393.7272-.688 1.0181s-.652.5201-1.071.6876c-.414.1675-.873.2512-1.375.2512-.511 0-.97-.0815-1.375-.2446-.406-.1631-.752-.3901-1.038-.681-.287-.2953-.507-.6479-.661-1.0578-.15-.4143-.225-.8727-.225-1.3751 0-.4496.09-.9102.271-1.3818.185-.476.469-.9696.853-1.4809l2.281-3.061c.079-.1058.194-.1962.343-.2711.155-.0749.331-.1124.529-.1124h1.455zm.37 4.8593c.26 0 .498-.044.714-.1322.22-.0881.407-.2116.562-.3702.158-.1587.282-.3438.37-.5554.088-.2159.132-.4495.132-.7008 0-.2732-.042-.5179-.125-.7338-.084-.2204-.203-.4055-.357-.5554-.155-.1542-.34-.271-.556-.3504-.216-.0793-.454-.119-.714-.119s-.496.0441-.707.1322c-.212.0882-.392.2116-.542.3703-.15.1542-.267.3394-.351.5553-.083.2116-.125.4408-.125.6876 0 .2645.035.5069.105.7272.075.216.183.4011.324.5554.146.1543.324.2755.536.3636.211.0838.456.1256.734.1256zm11.187-3.5502c0 .833-.09 1.558-.271 2.1751-.176.6126-.423 1.1195-.74 1.5206-.313.4011-.686.7008-1.118.8991-.427.1939-.89.2909-1.388.2909s-.961-.097-1.388-.2909c-.424-.1983-.792-.498-1.105-.8991s-.557-.908-.733-1.5206c-.177-.6171-.265-1.3421-.265-2.1751 0-.8375.088-1.5625.265-2.1751.176-.6127.42-1.1196.733-1.5206.313-.4011.681-.6986 1.105-.8926.427-.1983.89-.2975 1.388-.2975s.961.0992 1.388.2975c.432.194.805.4915 1.118.8926.317.401.564.9079.74 1.5206.181.6126.271 1.3376.271 2.1751zm-1.686 0c0-.692-.05-1.265-.152-1.719-.101-.4539-.238-.8154-.41-1.0842-.167-.2689-.361-.4562-.582-.562-.22-.1102-.449-.1653-.687-.1653-.234 0-.461.0551-.681.1653-.216.1058-.408.2931-.575.562-.168.2688-.302.6303-.404 1.0842-.097.454-.145 1.027-.145 1.719 0 .6919.048 1.2649.145 1.7189.102.454.236.8154.404 1.0843.167.2688.359.4583.575.5685.22.1058.447.1587.681.1587.238 0 .467-.0529.687-.1587.221-.1102.415-.2997.582-.5685.172-.2689.309-.6303.41-1.0843.102-.454.152-1.027.152-1.7189zm9.356 0c0 .833-.09 1.558-.271 2.1751-.176.6126-.423 1.1195-.74 1.5206-.313.4011-.686.7008-1.118.8991-.427.1939-.89.2909-1.388.2909s-.961-.097-1.388-.2909c-.423-.1983-.792-.498-1.104-.8991-.313-.4011-.558-.908-.734-1.5206-.177-.6171-.265-1.3421-.265-2.1751 0-.8375.088-1.5625.265-2.1751.176-.6127.421-1.1196.734-1.5206.312-.4011.681-.6986 1.104-.8926.427-.1983.89-.2975 1.388-.2975s.961.0992 1.388.2975c.432.194.805.4915 1.118.8926.317.401.564.9079.74 1.5206.181.6126.271 1.3376.271 2.1751zm-1.686 0c0-.692-.05-1.265-.152-1.719-.101-.4539-.238-.8154-.41-1.0842-.167-.2689-.361-.4562-.581-.562-.221-.1102-.45-.1653-.688-.1653-.234 0-.461.0551-.681.1653-.216.1058-.408.2931-.575.562-.168.2688-.302.6303-.403 1.0842-.097.454-.146 1.027-.146 1.719 0 .6919.049 1.2649.146 1.7189.101.454.235.8154.403 1.0843.167.2688.359.4583.575.5685.22.1058.447.1587.681.1587.238 0 .467-.0529.688-.1587.22-.1102.414-.2997.581-.5685.172-.2689.309-.6303.41-1.0843.102-.454.152-1.027.152-1.7189zm2.586 3.8808c0-.1366.025-.2667.073-.3901.053-.1234.124-.2292.212-.3173.088-.0882.194-.1587.317-.2116s.256-.0793.397-.0793.271.0264.39.0793c.123.0529.229.1234.317.2116.093.0881.165.1939.218.3173s.08.2535.08.3901c0 .141-.027.2733-.08.3967-.053.119-.125.2226-.218.3107-.088.0882-.194.1565-.317.205-.119.0528-.249.0793-.39.0793s-.274-.0265-.397-.0793c-.123-.0485-.229-.1168-.317-.205-.088-.0881-.159-.1917-.212-.3107-.048-.1234-.073-.2557-.073-.3967zm9.908-3.8808c0 .833-.09 1.558-.271 2.1751-.176.6126-.423 1.1195-.74 1.5206-.313.4011-.686.7008-1.118.8991-.427.1939-.89.2909-1.388.2909s-.961-.097-1.388-.2909c-.424-.1983-.792-.498-1.105-.8991-.312-.4011-.557-.908-.733-1.5206-.177-.6171-.265-1.3421-.265-2.1751 0-.8375.088-1.5625.265-2.1751.176-.6127.421-1.1196.733-1.5206.313-.4011.681-.6986 1.105-.8926.427-.1983.89-.2975 1.388-.2975s.961.0992 1.388.2975c.432.194.805.4915 1.118.8926.317.401.564.9079.74 1.5206.181.6126.271 1.3376.271 2.1751zm-1.686 0c0-.692-.05-1.265-.152-1.719-.101-.4539-.238-.8154-.41-1.0842-.167-.2689-.361-.4562-.582-.562-.22-.1102-.449-.1653-.687-.1653-.234 0-.461.0551-.681.1653-.216.1058-.408.2931-.575.562-.168.2688-.302.6303-.404 1.0842-.096.454-.145 1.027-.145 1.719 0 .6919.049 1.2649.145 1.7189.102.454.236.8154.404 1.0843.167.2688.359.4583.575.5685.22.1058.447.1587.681.1587.238 0 .467-.0529.687-.1587.221-.1102.415-.2997.582-.5685.172-.2689.309-.6303.41-1.0843.102-.454.152-1.027.152-1.7189zm9.356 0c0 .833-.09 1.558-.271 2.1751-.176.6126-.423 1.1195-.74 1.5206-.313.4011-.686.7008-1.118.8991-.427.1939-.89.2909-1.388.2909s-.961-.097-1.388-.2909c-.423-.1983-.791-.498-1.104-.8991s-.558-.908-.734-1.5206c-.177-.6171-.265-1.3421-.265-2.1751 0-.8375.088-1.5625.265-2.1751.176-.6127.421-1.1196.734-1.5206.313-.4011.681-.6986 1.104-.8926.427-.1983.89-.2975 1.388-.2975s.961.0992 1.388.2975c.432.194.805.4915 1.118.8926.317.401.564.9079.74 1.5206.181.6126.271 1.3376.271 2.1751zm-1.686 0c0-.692-.05-1.265-.152-1.719-.101-.4539-.238-.8154-.41-1.0842-.167-.2689-.361-.4562-.581-.562-.221-.1102-.45-.1653-.688-.1653-.234 0-.461.0551-.681.1653-.216.1058-.408.2931-.575.562-.168.2688-.302.6303-.403 1.0842-.097.454-.146 1.027-.146 1.719 0 .6919.049 1.2649.146 1.7189.101.454.235.8154.403 1.0843.167.2688.359.4583.575.5685.22.1058.447.1587.681.1587.238 0 .467-.0529.688-.1587.22-.1102.414-.2997.581-.5685.172-.2689.309-.6303.41-1.0843.102-.454.152-1.027.152-1.7189z" fill="#fcfcfc"/></g></g><path d="m58 63.03v-2.02h.325v-.685h.6672v-.325h1.9844v.325h1.9843v-.325h1.9844v.325h1.9844v-.325h1.9844v.325h1.9843v-.325h1.9844v.325h1.9844v-.325h1.9844v.325h1.9843v-.325h1.9844v.325h1.9844v-.325h1.9844v.325h1.9843v-.325h1.9844v.325h1.9844v-.325h1.9844v.325h1.9843v-.325h1.9844v.325h1.9844v-.325h1.9843v.325h1.984v-.325h1.985v.325h1.984v-.325h1.985v.325h1.984v-.325h1.984v.325h1.985v-.325h1.984v.325h1.984v-.325h1.985v.325h1.984v-.325h1.985v.325h1.984v-.325h1.984v.325h1.985v-.325h1.984v.325h1.984v-.325h1.985v.325h1.984v-.325h1.985v.325h1.984v-.325h1.984v.325h1.985v-.325h1.984v.325h1.984v-.325h1.985v.325h1.984v-.325h1.985v.325h1.984v-.325h1.984v.325h1.985v-.325h1.984v.325h1.984v-.325h1.985v.325h1.984v-.325h1.985v.325h1.984v-.325h1.984v.325h1.985v-.325h1.984v.325h1.984v-.325h1.985v.325h.667v.685h.325v2.02h-.325v2.02h.325v2.02h-.325v2.02h.325v2.02h-.325v2.02h.325v2.02h-.325v2.02h.325v2.02h-.325v2.02h.325v2.02h-.325v2.02h.325v2.02h-.325v2.02h.325v2.02h-.325v2.02h.325v2.02h-.325v2.02h.325v2.02h-.325v2.02h.325v2.02h-.325v2.02h.325v2.02h-.325v2.02h.325v2.02h-.325v2.02h.325v2.02h-.325v2.02h.325v2.02h-.325v2.02h.325v2.02h-.325v2.02h.325v2.02h-.325v2.02h.325v2.02h-.325v2.02h.325v2.02h-.325v2.02h.325v2.02h-.325v2.02h.325v2.02h-.325v2.02h.325v2.02h-.325v2.02h.325v2.02h-.325v2.02h.325v2.02h-.325v2.02h.325v2.02h-.325v.685h-.667v.325h-1.985v-.325h-1.984v.325h-1.984v-.325h-1.985v.325h-1.984v-.325h-1.984v.325h-1.985v-.325h-1.984v.325h-1.985v-.325h-1.984v.325h-1.984v-.325h-1.985v.325h-1.984v-.325h-1.984v.325h-1.985v-.325h-1.984v.325h-1.985v-.325h-1.984v.325h-1.984v-.325h-1.985v.325h-1.984v-.325h-1.984v.325h-1.985v-.325h-1.984v.325h-1.985v-.325h-1.984v.325h-1.984v-.325h-1.985v.325h-1.984v-.325h-1.984v.325h-1.985v-.325h-1.984v.325h-1.985v-.325h-1.984v.325h-1.984v-.325h-1.985v.325h-1.984v-.325h-1.984v.325h-1.985v-.325h-1.984v.325h-1.985v-.325h-1.984v.325h-1.9843v-.325h-1.9844v.325h-1.9844v-.325h-1.9843v.325h-1.9844v-.325h-1.9844v.325h-1.9844v-.325h-1.9843v.325h-1.9844v-.325h-1.9844v.325h-1.9844v-.325h-1.9843v.325h-1.9844v-.325h-1.9844v.325h-1.9844v-.325h-1.9843v.325h-1.9844v-.325h-1.9844v.325h-1.9844v-.325h-1.9843v.325h-1.9844v-.325h-.6672v-.685h-.325v-2.02h.325v-2.02h-.325v-2.02h.325v-2.02h-.325v-2.02h.325v-2.02h-.325v-2.02h.325v-2.02h-.325v-2.02h.325v-2.02h-.325v-2.02h.325v-2.02h-.325v-2.02h.325v-2.02h-.325v-2.02h.325v-2.02h-.325v-2.02h.325v-2.02h-.325v-2.02h.325v-2.02h-.325v-2.02h.325v-2.02h-.325v-2.02h.325v-2.02h-.325v-2.02h.325v-2.02h-.325v-2.02h.325v-2.02h-.325v-2.02h.325v-2.02h-.325v-2.02h.325v-2.02h-.325v-2.02h.325v-2.02h-.325v-2.02h.325v-2.02h-.325v-2.02h.325v-2.02h-.325v-2.02h.325v-2.02h-.325v-2.02h.325v-2.02h-.325v-2.02h.325v-2.02h-.325v-2.02h.325v-2.02h-.325v-2.02h.325v-2.02z" fill="#fff" stroke="#000" stroke-dasharray="2 2" stroke-width=".65"/><rect fill="#bbbfbf" height="4.54658" opacity=".4" rx="1.87143" width="91.9363" x="76" y="122"/><rect fill="#bbbfbf" height="4.54658" opacity=".4" rx="1.87143" width="40.2696" x="101" y="129.578"/><path clip-rule="evenodd" d="m132.733 95.6474c0 6.0636-4.916 10.9786-10.979 10.9786-6.064 0-10.979-4.915-10.979-10.9786 0-6.0635 4.915-10.9789 10.979-10.9789 6.063 0 10.979 4.9154 10.979 10.9789zm.775 0c0 6.4916-5.263 11.7536-11.754 11.7536-6.492 0-11.754-5.262-11.754-11.7536 0-6.4915 5.262-11.7538 11.754-11.7538 6.491 0 11.754 5.2623 11.754 11.7538zm-6.185-2.9551c.152-.1513.152-.3967 0-.548-.151-.1513-.396-.1513-.548 0l-6.959 6.9591-3.342-3.3425c-.152-.1514-.397-.1514-.548 0-.152.1513-.152.3966 0 .548l3.616 3.6165c.151.1516.397.1516.548 0z" fill="#00977a" fill-rule="evenodd"/><g stroke="#202323" stroke-width=".65"><path d="m184.699 49.7v10.6188h10.619"/><path d="m47.6992 60.3 10.6189.0001v-10.6189"/><path d="m58.3496 171.619v-10.619h-10.6189"/><path d="m195.301 161.019h-10.619v10.619"/></g></svg>