<svg fill="none" height="244" viewBox="0 0 310 244" width="310" xmlns="http://www.w3.org/2000/svg" xmlns:xlink="http://www.w3.org/1999/xlink"><linearGradient id="a" gradientUnits="userSpaceOnUse" x1="248" x2="18.4329" y1=".000019" y2="174.477"><stop offset="0" stop-color="#dff2ff"/><stop offset="1" stop-color="#eae5f0"/></linearGradient><clipPath id="b"><path d="m18.5586 204.922h12.1569v12.1242h-12.1569z"/></clipPath><clipPath id="c"><path d="m43.7773 110.322h8.24112v8.24112h-8.24112z"/></clipPath><mask id="d" height="244" maskUnits="userSpaceOnUse" width="310" x="0" y="0"><path d="m0 0h310v244h-310z" fill="url(#a)"/></mask><mask id="e" height="34" maskUnits="userSpaceOnUse" width="34" x="177" y="45"><ellipse cx="194.133" cy="61.758" fill="#f4f4f4" rx="16.3358" ry="16.2919"/></mask><path d="m0 0h310v244h-310z" fill="url(#a)"/><g mask="url(#d)"><rect fill="#f9f9f9" height="225.164" rx="4.24022" stroke="#202323" stroke-width=".65" width="288.076" x="26.157" y="30.6355"/><g fill="#bbbfbf"><rect height="4.54658" opacity=".4" rx="1.42391" width="33.4314" x="177.793" y="107.603"/><rect height="4.54658" opacity=".4" rx="1.42391" width="32.6716" x="178.555" y="151.553"/><rect height="4.54658" opacity=".4" rx="1.42391" width="101.814" x="177.793" y="116.696"/><rect height="4.54658" opacity=".4" rx="1.42391" width="101.814" x="177.793" y="199.292"/></g><rect fill="#737777" height="4.54658" opacity=".4" rx="1.42391" width="34.951" x="170.955" y="200.807"/><path d="m188.925 143.616c0-.774.176-1.537.515-2.233s.832-1.306 1.443-1.784c-.756-.593-1.664-.961-2.62-1.063-.956-.103-1.922.065-2.787.484-.864.42-1.594 1.073-2.104 1.886-.51.812-.78 1.752-.78 2.711s.27 1.898.78 2.711 1.24 1.466 2.104 1.886c.865.419 1.831.587 2.787.484.956-.102 1.864-.47 2.62-1.063-.611-.478-1.105-1.088-1.444-1.784-.339-.697-.515-1.461-.514-2.235z" fill="#eb001b"/><path d="m199.174 143.615c0 .959-.27 1.898-.78 2.711-.511.813-1.24 1.466-2.105 1.886-.865.419-1.83.587-2.786.484-.956-.102-1.864-.471-2.62-1.064.61-.478 1.103-1.088 1.442-1.784.34-.696.516-1.46.516-2.234s-.176-1.538-.516-2.234c-.339-.696-.832-1.306-1.442-1.784.756-.593 1.664-.961 2.62-1.064.956-.102 1.921.066 2.786.485s1.594 1.072 2.105 1.885c.51.813.78 1.752.78 2.711z" fill="#f79e1b"/><path clip-rule="evenodd" d="m189.438 141.382c-.339.696-.515 1.46-.514 2.234-.001.774.175 1.538.514 2.235.338.694.83 1.303 1.438 1.78h.007c.609-.478 1.102-1.088 1.441-1.783.339-.696.515-1.46.515-2.234s-.176-1.538-.515-2.234c-.34-.696-.833-1.306-1.443-1.784l.002-.002h-.007c.002.002.003.003.005.005-.61.477-1.104 1.087-1.443 1.783z" fill="#ff5f00" fill-rule="evenodd"/><ellipse cx="194.129" cy="61.7577" fill="#bbbfbf" opacity=".4" rx="16.3358" ry="16.2919"/><g mask="url(#e)"><path clip-rule="evenodd" d="m196.316 64.5016c2.392-.8852 4.098-3.1824 4.098-5.8768 0-3.4607-2.813-6.2662-6.283-6.2662s-6.283 2.8055-6.283 6.2662c0 2.6945 1.705 4.9917 4.098 5.8769-4.501.995-7.868 4.9996-7.868 9.7883 0 5.5371 4.501 10.0258 10.053 10.0258s10.053-4.4887 10.053-10.0258c0-4.7889-3.367-8.7935-7.868-9.7884z" fill="#fff" fill-rule="evenodd" opacity=".8"/></g><rect fill="#bbbfbf" height="4.54658" opacity=".4" rx="1.42391" width="34.1912" x="41.0312" y="142.46"/><rect fill="#bbbfbf" height="4.54658" opacity=".4" rx="1.42391" width="101.814" x="41.0312" y="151.553"/><path d="m-22.0285 167.033h252.2425c2.341 0 4.24 1.898 4.24 4.24v51.491c0 2.342-1.899 4.24-4.24 4.24h-252.2425c-2.3418 0-4.2403-1.898-4.2403-4.24v-51.491c0-2.342 1.8985-4.24 4.2403-4.24z" fill="#fff" stroke="#202323" stroke-width=".65"/></g><g fill="#737777"><path d="m19.7885 189.832-1.3543-5.44h1.0347l.9435 3.995 1.0576-3.995h.837l1.0804 4.017.9739-4.017h.9435l-1.3619 5.44h-1.012l-1.0728-3.964-1.1033 3.964zm6.3386 0v-5.44h3.4011v.799h-2.3891v1.491h1.9174v.761h-1.9174v1.59h2.5185v.799zm4.4434 0v-5.44h1.9478c1.1185 0 1.7805.426 1.7805 1.415v.031c0 .54-.2435.966-.8598 1.156.738.16 1.088.563 1.088 1.286v.031c0 1.011-.6695 1.521-1.8641 1.521zm.9891-3.15h.837c.6696 0 .9282-.243.9282-.799v-.03c0-.517-.2967-.738-.9434-.738h-.8218zm0 2.427h.9816c.6771 0 .9891-.304.9891-.867v-.03c0-.563-.312-.845-1.0576-.845h-.9131zm3.9149.723v-5.44h1.012v2.313h2.4424v-2.313h1.0196v5.44h-1.0196v-2.313h-2.4424v2.313zm8.1944.076c-1.6663 0-2.7543-1.194-2.7543-2.762v-.06c0-1.591 1.1413-2.77 2.7543-2.77 1.6207 0 2.7392 1.149 2.7392 2.747v.061c0 1.59-1.0881 2.784-2.7392 2.784zm.0152-.814c1.0272 0 1.674-.783 1.674-1.963v-.061c0-1.118-.624-1.948-1.6892-1.948s-1.6967.784-1.6967 1.956v.061c0 1.187.7228 1.955 1.7119 1.955zm6.1818.814c-1.6664 0-2.7544-1.194-2.7544-2.762v-.06c0-1.591 1.1413-2.77 2.7544-2.77 1.6206 0 2.7391 1.149 2.7391 2.747v.061c0 1.59-1.0881 2.784-2.7391 2.784zm.0152-.814c1.0271 0 1.6739-.783 1.6739-1.963v-.061c0-1.118-.6239-1.948-1.6891-1.948-1.0653 0-1.6968.784-1.6968 1.956v.061c0 1.187.7228 1.955 1.712 1.955zm3.7012.738v-5.44h1.012v2.465l2.0848-2.465h1.088l-2.2521 2.595 2.3663 2.845h-1.1946l-2.0924-2.541v2.541zm6.8286 0v-5.44h1.826c1.1946 0 2.0316.487 2.0316 1.598v.03c0 .852-.5326 1.286-1.2098 1.461l1.5293 2.351h-1.0956l-1.4229-2.199h-.6467v2.199zm1.0119-2.921h.8141c.6772 0 1.0348-.29 1.0348-.868v-.03c0-.624-.388-.837-1.0348-.837h-.8141zm3.9738 2.921v-5.44h3.4011v.799h-2.3891v1.491h1.9174v.761h-1.9174v1.59h2.5185v.799zm6.7506.076c-1.7043 0-2.6554-1.088-2.6554-2.762v-.06c0-1.636 1.1261-2.778 2.6402-2.778 1.2478 0 2.2141.624 2.3359 1.903h-1.0272c-.1141-.723-.5174-1.096-1.3011-1.096-.9587 0-1.5826.746-1.5826 1.963v.061c0 1.225.5859 1.948 1.5902 1.948.7533 0 1.2859-.381 1.3924-1.149h.9891c-.1598 1.308-1.088 1.97-2.3815 1.97zm3.2581-.076v-5.44h3.4011v.799h-2.3891v1.491h1.9174v.761h-1.9174v1.59h2.5185v.799zm4.4738 0v-5.44h1.0196v5.44zm3.6875 0-1.8337-5.44h1.0576l1.4152 4.413 1.4229-4.413h.9511l-1.8414 5.44zm3.8091 0v-5.44h3.401v.799h-2.3891v1.491h1.9174v.761h-1.9174v1.59h2.5185v.799zm4.4433 0v-5.44h1.6511c1.8946 0 2.8152 1.08 2.8152 2.663v.069c0 1.582-.9206 2.708-2.8304 2.708zm1.012-.799h.5934c1.2174 0 1.8033-.7 1.8033-1.902v-.061c0-1.171-.5326-1.879-1.8109-1.879h-.5858z"/><path d="m41.5928 56.4658v-4.8962h1.6435c1.0751 0 1.8283.4383 1.8283 1.4381v.0274c0 .7669-.4793 1.1572-1.0888 1.3147l1.3764 2.116h-.9861l-1.2805-1.979h-.5821v1.979zm.9107-2.6295h.7328c.6094 0 .9313-.2603.9313-.7807v-.0274c0-.5615-.3493-.7532-.9313-.7532h-.7328zm3.5765 2.6295v-4.8962h3.0609v.719h-2.1502v1.3422h1.7257v.6848h-1.7257v1.4312h2.2667v.719zm6.0755.0685c-1.5339 0-2.3899-.9792-2.3899-2.4858v-.0547c0-1.4723 1.0135-2.4995 2.3762-2.4995 1.123 0 1.9927.5615 2.1023 1.712h-.9245c-.1027-.6506-.4656-.9861-1.171-.9861-.8628 0-1.4243.6711-1.4243 1.7667v.0548c0 1.1025.5273 1.753 1.4312 1.753.6779 0 1.1573-.3424 1.2531-1.034h.8903c-.1438 1.1778-.9793 1.7736-2.1434 1.7736zm4.8155 0c-1.2258 0-1.9243-.6711-1.9243-1.9311v-3.0336h.9176v2.9651c0 .8971.2876 1.2669 1.0135 1.2669.7053 0 1.0614-.315 1.0614-1.3285v-2.9035h.9176v2.9788c0 1.2806-.6916 1.9859-1.9858 1.9859zm3.0654-.0685v-4.8962h1.6435c1.0751 0 1.8284.4383 1.8284 1.4381v.0274c0 .7669-.4794 1.1572-1.0888 1.3147l1.3764 2.116h-.9861l-1.2805-1.979h-.5821v1.979zm.9108-2.6295h.7327c.6095 0 .9313-.2603.9313-.7807v-.0274c0-.5615-.3492-.7532-.9313-.7532h-.7327zm3.5764 2.6295v-4.8962h1.6435c1.0751 0 1.8284.4383 1.8284 1.4381v.0274c0 .7669-.4794 1.1572-1.0888 1.3147l1.3764 2.116h-.9861l-1.2805-1.979h-.5821v1.979zm.9108-2.6295h.7327c.6095 0 .9313-.2603.9313-.7807v-.0274c0-.5615-.3492-.7532-.9313-.7532h-.7327zm3.6038 2.6295v-4.8962h.9176v4.8962zm2.0724 0v-4.8962h1.0888l2.0612 3.5404v-3.5404h.8286v4.8962h-.945l-2.205-3.7526v3.7526zm7.3006.0685c-1.5681 0-2.4446-1.0409-2.4446-2.4858v-.0547c0-1.4586 1.0134-2.4995 2.4446-2.4995 1.0477 0 1.9791.4793 2.1092 1.6503h-.9108c-.1096-.6505-.5478-.9313-1.1847-.9313-.9587 0-1.5133.7122-1.5133 1.7873v.0548c0 1.0477.4862 1.7667 1.5133 1.7667.9176 0 1.2943-.5546 1.3217-1.2326h-1.2327v-.6848h2.1297v.452c0 1.3559-.8491 2.1776-2.2324 2.1776zm4.3667-.0685 1.6366-4.8962h1.1915l1.6161 4.8962h-.945l-.3903-1.212h-1.8694l-.3835 1.212zm2.1776-4.1498-.7259 2.2735h1.4449zm3.0139 4.1498v-4.8962h1.2189l1.2874 3.3418 1.26-3.3418h1.2052v4.8962h-.9107v-3.6978l-1.4586 3.6978h-.2945l-1.486-3.6978v3.6978zm8.3246.0685c-1.4997 0-2.479-1.0751-2.479-2.4858v-.0547c0-1.4312 1.0272-2.4927 2.479-2.4927 1.4585 0 2.4652 1.0341 2.4652 2.4721v.0548c0 1.4312-.9793 2.5063-2.4652 2.5063zm.0137-.7327c.9244 0 1.5065-.7053 1.5065-1.7668v-.0547c0-1.0067-.5615-1.7531-1.5202-1.7531s-1.5271.7053-1.5271 1.7599v.0548c0 1.0683.6505 1.7599 1.5408 1.7599zm5.2143.7327c-1.226 0-1.9243-.6711-1.9243-1.9311v-3.0336h.9173v2.9651c0 .8971.288 1.2669 1.014 1.2669.705 0 1.061-.315 1.061-1.3285v-2.9035h.918v2.9788c0 1.2806-.692 1.9859-1.986 1.9859zm3.065-.0685v-4.8962h1.089l2.061 3.5404v-3.5404h.829v4.8962h-.945l-2.205-3.7526v3.7526zm6.082 0v-4.1772h-1.363v-.719h3.643v.719h-1.362v4.1772z"/><path d="m99.9498 83.2387 2.5192-7.7335h.862l-2.528 7.7335zm3.6522-1.2387v-4.3773h1.013v.6696c.209-.4101.686-.7616 1.331-.7616.569 0 1.021.2427 1.238.7867.335-.544.938-.7867 1.482-.7867.803 0 1.456.4938 1.456 1.699v2.7703h-1.013v-2.7034c0-.6444-.276-.9206-.778-.9206s-.962.3348-.962 1.0043v2.6197h-1.013v-2.7034c0-.6444-.285-.9206-.779-.9206-.502 0-.962.3348-.962 1.0043v2.6197zm9.633.0837c-1.289 0-2.243-.8955-2.243-2.2263v-.067c0-1.3558.963-2.2597 2.252-2.2597 1.28 0 2.243.8955 2.243 2.2346v.067c0 1.3642-.963 2.2514-2.252 2.2514zm.009-.7867c.753 0 1.205-.5608 1.205-1.4563v-.0586c0-.9039-.452-1.4563-1.205-1.4563-.754 0-1.214.544-1.214 1.4479v.067c0 .8955.444 1.4563 1.214 1.4563zm3.158.703v-4.3773h1.013v.6947c.209-.4269.694-.7867 1.414-.7867.879 0 1.498.5105 1.498 1.7157v2.7536h-1.013v-2.6615c0-.6612-.267-.9625-.87-.9625-.569 0-1.029.3515-1.029 1.0462v2.5778zm6.582.0753c-.871 0-1.323-.4687-1.323-1.2973v-2.3937h-.586v-.7616h.586v-.9625h1.013v.9625h.962v.7616h-.962v2.3017c0 .385.184.5607.502.5607.201 0 .352-.0251.494-.0837v.8035c-.159.0586-.377.1088-.686.1088zm1.599-.0753v-6.4027h1.013v2.7201c.209-.4269.695-.7867 1.415-.7867.878 0 1.498.5105 1.498 1.7157v2.7536h-1.013v-2.6615c0-.6612-.268-.9625-.87-.9625-.57 0-1.03.3515-1.03 1.0462v2.5778z"/></g><path d="m41.143 212.565v-7.616h1.6937l3.2063 5.507v-5.507h1.2889v7.616h-1.47l-3.43-5.837v5.837zm10.2494.107c-1.6404 0-2.8228-1.076-2.8228-2.834v-.085c0-1.726 1.1824-2.876 2.7695-2.876 1.3848 0 2.6311.82 2.6311 2.812v.373h-4.0798c.0427 1.054.5753 1.651 1.534 1.651.7776 0 1.1823-.309 1.2782-.852h1.2463c-.1811 1.172-1.1291 1.811-2.5565 1.811zm-1.4807-3.473h2.7803c-.0639-.959-.5539-1.385-1.3529-1.385-.7776 0-1.2995.522-1.4274 1.385zm6.2666 3.366-1.7043-5.571h1.3741l1.1078 4.027 1.1824-4.027h1.0759l1.0865 4.027 1.1611-4.027h1.2569l-1.7469 5.571h-1.3102l-1.0333-3.749-1.1291 3.749zm11.9702.107c-1.438 0-2.2795-.661-2.3328-1.843h1.2143c.064.564.3516.895 1.1079.895.6924 0 1.0013-.245 1.0013-.714 0-.458-.3729-.629-1.1931-.767-1.47-.234-2.0132-.65-2.0132-1.694 0-1.118 1.0439-1.672 2.0878-1.672 1.1398 0 2.0452.426 2.1837 1.683h-1.1931c-.1065-.511-.3941-.746-.9906-.746-.5539 0-.8841.267-.8841.661 0 .405.2663.564 1.1504.713 1.3102.203 2.0878.522 2.0878 1.705 0 1.129-.7989 1.779-2.2263 1.779zm5.2211 0c-1.0972 0-1.9174-.629-1.9174-2.109v-3.569h1.2889v3.419c0 .842.3515 1.225 1.0972 1.225.6924 0 1.2995-.447 1.2995-1.331v-3.313h1.289v5.571h-1.289v-.873c-.2769.543-.8628.98-1.7682.98zm7.6958 0c-.8841 0-1.5232-.437-1.8215-1.002v.895h-1.2889v-8.149h1.2889v3.473c.3089-.533 1.0013-1.012 1.8215-1.012 1.3955 0 2.4713 1.033 2.4713 2.833v.086c0 1.789-1.0332 2.876-2.4713 2.876zm-.3195-1.023c.948 0 1.47-.639 1.47-1.832v-.085c0-1.236-.6392-1.843-1.4807-1.843-.8948 0-1.5339.607-1.5339 1.843v.085c0 1.246.6072 1.832 1.5446 1.832zm5.8671 1.023c-1.4381 0-2.2796-.661-2.3328-1.843h1.2143c.0639.564.3515.895 1.1078.895.6924 0 1.0013-.245 1.0013-.714 0-.458-.3728-.629-1.193-.767-1.47-.234-2.0133-.65-2.0133-1.694 0-1.118 1.0439-1.672 2.0879-1.672 1.1397 0 2.0452.426 2.1837 1.683h-1.1931c-.1065-.511-.3941-.746-.9906-.746-.554 0-.8842.267-.8842.661 0 .405.2663.564 1.1505.713 1.3102.203 2.0878.522 2.0878 1.705 0 1.129-.7989 1.779-2.2263 1.779zm5.8067 0c-1.5979 0-2.8122-1.044-2.8122-2.823v-.085c0-1.769 1.2569-2.887 2.8122-2.887 1.2356 0 2.3967.554 2.5458 2.088h-1.2463c-.1065-.746-.5965-1.055-1.2782-1.055-.8842 0-1.5126.682-1.5126 1.832v.086c0 1.214.5965 1.853 1.5445 1.853.6818 0 1.2676-.405 1.3422-1.193h1.1824c-.0959 1.278-1.0652 2.184-2.5778 2.184zm3.6877-.107v-5.571h1.2889v1.044c.3515-.703.8735-1.118 1.8109-1.129v1.204c-1.1292.01-1.8109.372-1.8109 1.555v2.897zm4.8946-6.487c-.426 0-.767-.32-.767-.735 0-.426.341-.746.767-.746s.767.32.767.746c0 .415-.341.735-.767.735zm-.629 6.487v-5.571h1.289v5.571zm2.86 1.907v-7.478h1.289v.895c.309-.533 1.001-1.012 1.822-1.012 1.395 0 2.471 1.033 2.471 2.833v.086c0 1.789-1.033 2.876-2.471 2.876-.885 0-1.524-.437-1.822-.98v2.78zm2.791-2.823c.948 0 1.47-.639 1.47-1.832v-.085c0-1.236-.639-1.843-1.481-1.843-.894 0-1.534.607-1.534 1.843v.085c0 1.246.608 1.832 1.545 1.832zm5.846 1.012c-1.108 0-1.683-.596-1.683-1.651v-3.047h-.746v-.969h.746v-1.225h1.289v1.225h1.225v.969h-1.225v2.93c0 .49.234.713.639.713.256 0 .447-.031.629-.106v1.023c-.203.074-.48.138-.874.138zm2.697-6.583c-.427 0-.767-.32-.767-.735 0-.426.34-.746.767-.746.426 0 .766.32.766.746 0 .415-.34.735-.766.735zm-.629 6.487v-5.571h1.289v5.571zm5.342.107c-1.64 0-2.855-1.14-2.855-2.834v-.085c0-1.726 1.225-2.876 2.866-2.876 1.629 0 2.854 1.14 2.854 2.844v.085c0 1.737-1.225 2.866-2.865 2.866zm.011-1.002c.958 0 1.534-.713 1.534-1.853v-.075c0-1.15-.576-1.853-1.534-1.853-.959 0-1.545.692-1.545 1.843v.085c0 1.14.565 1.853 1.545 1.853zm4.019.895v-5.571h1.289v.884c.266-.543.884-1.001 1.8-1.001 1.119 0 1.907.65 1.907 2.184v3.504h-1.289v-3.387c0-.842-.341-1.225-1.108-1.225-.724 0-1.31.447-1.31 1.331v3.281zm9.243 0v-4.602h-.757v-.969h.757v-.746c0-1.225.681-1.885 1.874-1.885.309 0 .501.032.735.107v1.001c-.149-.053-.351-.096-.585-.096-.522 0-.735.341-.735.82v.799h1.267v.969h-1.267v4.602zm5.878.107c-1.64 0-2.855-1.14-2.855-2.834v-.085c0-1.726 1.225-2.876 2.866-2.876 1.629 0 2.854 1.14 2.854 2.844v.085c0 1.737-1.225 2.866-2.865 2.866zm.011-1.002c.958 0 1.534-.713 1.534-1.853v-.075c0-1.15-.576-1.853-1.534-1.853-.959 0-1.545.692-1.545 1.843v.085c0 1.14.565 1.853 1.545 1.853zm4.019.895v-5.571h1.289v1.044c.351-.703.873-1.118 1.811-1.129v1.204c-1.129.01-1.811.372-1.811 1.555v2.897zm6.879 0v-7.616h2.45c1.704 0 2.822.756 2.822 2.354v.043c0 1.608-1.161 2.322-2.79 2.322h-1.066v2.897zm1.416-3.92h1.034c.937 0 1.438-.458 1.438-1.299v-.043c0-.905-.533-1.257-1.438-1.257h-1.034zm4.968 3.92v-5.571h1.289v1.044c.352-.703.874-1.118 1.811-1.129v1.204c-1.129.01-1.811.372-1.811 1.555v2.897zm6.57.107c-1.641 0-2.823-1.076-2.823-2.834v-.085c0-1.726 1.182-2.876 2.769-2.876 1.385 0 2.631.82 2.631 2.812v.373h-4.079c.042 1.054.575 1.651 1.534 1.651.777 0 1.182-.309 1.278-.852h1.246c-.181 1.172-1.129 1.811-2.556 1.811zm-1.481-3.473h2.78c-.064-.959-.554-1.385-1.353-1.385-.777 0-1.299.522-1.427 1.385zm5.21 3.366v-5.571h1.289v.852c.266-.522.873-.969 1.693-.969.725 0 1.3.309 1.577 1.001.426-.692 1.193-1.001 1.885-1.001 1.023 0 1.854.628 1.854 2.162v3.526h-1.289v-3.44c0-.821-.352-1.172-.991-1.172s-1.225.426-1.225 1.278v3.334h-1.289v-3.44c0-.821-.362-1.172-.99-1.172-.64 0-1.225.426-1.225 1.278v3.334zm10.438-6.487c-.426 0-.766-.32-.766-.735 0-.426.34-.746.766-.746.427 0 .767.32.767.746 0 .415-.34.735-.767.735zm-.628 6.487v-5.571h1.289v5.571zm4.724.107c-1.097 0-1.917-.629-1.917-2.109v-3.569h1.289v3.419c0 .842.351 1.225 1.097 1.225.692 0 1.299-.447 1.299-1.331v-3.313h1.289v5.571h-1.289v-.873c-.277.543-.862.98-1.768.98zm4.586-.107v-5.571h1.288v.852c.267-.522.874-.969 1.694-.969.724 0 1.3.309 1.577 1.001.426-.692 1.193-1.001 1.885-1.001 1.023 0 1.854.628 1.854 2.162v3.526h-1.289v-3.44c0-.821-.352-1.172-.991-1.172s-1.225.426-1.225 1.278v3.334h-1.289v-3.44c0-.821-.362-1.172-.991-1.172-.639 0-1.225.426-1.225 1.278v3.334zm12.316 1.907v-7.478h1.289v.895c.309-.533 1.001-1.012 1.822-1.012 1.395 0 2.471 1.033 2.471 2.833v.086c0 1.789-1.033 2.876-2.471 2.876-.885 0-1.524-.437-1.822-.98v2.78zm2.791-2.823c.948 0 1.47-.639 1.47-1.832v-.085c0-1.236-.639-1.843-1.481-1.843-.894 0-1.534.607-1.534 1.843v.085c0 1.246.608 1.832 1.545 1.832zm3.982.916v-8.149h1.289v8.149zm4.319.107c-1.022 0-1.864-.49-1.864-1.651 0-1.3 1.257-1.769 2.855-1.769h.692v-.287c0-.746-.255-1.119-1.012-1.119-.671 0-1.001.32-1.065.874h-1.246c.106-1.3 1.14-1.843 2.386-1.843s2.226.511 2.226 2.034v3.654h-1.267v-.682c-.363.48-.853.789-1.705.789zm.309-.927c.788 0 1.374-.415 1.374-1.129v-.554h-.66c-.98 0-1.609.224-1.609.905 0 .469.256.778.895.778zm4.14.82v-5.571h1.289v.884c.267-.543.884-1.001 1.801-1.001 1.118 0 1.906.65 1.906 2.184v3.504h-1.289v-3.387c0-.842-.34-1.225-1.107-1.225-.725 0-1.311.447-1.311 1.331v3.281z" fill="#202323"/><g clip-path="url(#b)"><path clip-rule="evenodd" d="m24.637 217.047c3.3571 0 6.0785-2.715 6.0785-6.063s-2.7214-6.062-6.0785-6.062c-3.357 0-6.0784 2.714-6.0784 6.062s2.7214 6.063 6.0784 6.063zm-.1377-3.135 3.7194-5.407c.1481-.217.0144-.552-.2819-.552h-.8284c-.2524 0-.483.129-.6246.334l-2.6094 3.795-1.0903-1.587c-.1426-.209-.3758-.334-.6248-.334h-.8284c-.2963 0-.4299.335-.2818.552l2.2023 3.199c.0698.103.1624.187.2709.245.1087.059.2297.089.3529.089.1233 0 .2443-.03.353-.089.1084-.058.2013-.143.2711-.245z" fill="#00977a" fill-rule="evenodd"/></g><path d="m45.8228 85.2765v-2.1247c-2.8836-.2024-4.0302-1.8381-4.1989-3.8785h2.091c.1349 1.0961.5059 2.0235 2.1079 2.2259v-3.7942c-2.4957-.4216-3.7942-1.3322-3.7942-3.4738 0-1.8717 1.5008-3.2714 3.7942-3.4231v-1.5177h1.1298v1.5345c2.1754.2024 3.5244 1.3322 3.7268 3.4232h-1.9899c-.1855-1.0286-.7082-1.6188-1.7369-1.7875v3.4569c2.4958.4048 3.946 1.2479 3.946 3.5244 0 1.973-1.4671 3.5412-3.946 3.7099v2.1247zm-1.8043-11.2307c0 .8768.3204 1.3827 1.8043 1.6862v-3.322c-1.1635.1349-1.8043.7926-1.8043 1.6358zm4.8059 5.5985c0-.9612-.4047-1.4334-1.8718-1.7538v3.6087c1.1299-.1518 1.8718-.86 1.8718-1.8549zm8.006 3.5243c-2.8667 0-4.435-1.5851-4.5361-3.8953h2.0404c.118 1.2647.8263 2.209 2.4451 2.209 1.5683 0 2.2934-.7588 2.2934-1.9561 0-1.3153-.7083-1.9729-2.1753-1.9729h-.9275v-1.602h.86c1.3828 0 2.0067-.6408 2.0067-1.7706 0-.9781-.6239-1.7032-1.8718-1.7032-1.2816 0-2.1079.7757-2.2428 1.9898h-1.9898c.118-2.091 1.6863-3.693 4.2663-3.693 2.5126 0 3.9797 1.4502 3.9797 3.2377 0 1.3659-.7926 2.1922-1.9561 2.6307 1.3996.3203 2.3271 1.3153 2.3271 2.9172 0 2.226-1.7538 3.6087-4.5193 3.6087zm10.9453 0c-3.5075 0-4.7217-2.462-4.7217-5.6491v-.2866c0-4.1821 2.1079-6.4586 4.9915-6.4586 2.1922 0 3.6424 1.0793 3.9291 3.1871h-2.0911c-.2192-.9106-.6913-1.4502-1.8549-1.4502-1.6188 0-2.6812 1.4334-2.7487 4.182.5565-.9274 1.5514-1.5514 2.9848-1.5514 2.3102 0 3.9628 1.5852 3.9628 3.9291 0 2.4452-1.72 4.0977-4.4518 4.0977zm-.0338-1.6525c1.3491 0 2.2597-.9612 2.2597-2.3946 0-1.4502-.8769-2.4283-2.2597-2.4283-1.3659 0-2.3271.9612-2.3271 2.2934 0 1.602.9612 2.5295 2.3271 2.5295zm11.0915 1.6525c-3.069 0-5.0589-2.2596-5.0589-5.8852v-.607c0-3.6593 2.0236-5.9021 5.0589-5.9021 3.0522 0 5.0421 2.2259 5.0421 5.8515v.6071c0 3.6255-1.8887 5.9357-5.0421 5.9357zm.0506-1.7874c1.855 0 2.7487-1.4165 2.7487-4.1483v-.5902c0-2.5632-.9781-4.1146-2.7824-4.1146-1.8212 0-2.8161 1.4502-2.8161 4.1314v.6071c0 2.7318 1.0455 4.1146 2.8498 4.1146zm11.7733 1.7874c-3.0691 0-5.0589-2.2596-5.0589-5.8852v-.607c0-3.6593 2.0236-5.9021 5.0589-5.9021 3.0522 0 5.042 2.2259 5.042 5.8515v.6071c0 3.6255-1.8886 5.9357-5.042 5.9357zm.0506-1.7874c1.8549 0 2.7487-1.4165 2.7487-4.1483v-.5902c0-2.5632-.9781-4.1146-2.7824-4.1146-1.8212 0-2.8162 1.4502-2.8162 4.1314v.6071c0 2.7318 1.0455 4.1146 2.8499 4.1146z" fill="#0e1414"/><rect fill="#dcf3ef" height="13.6791" rx="2.74704" width="44.5769" x="41.0312" y="107.603"/><g clip-path="url(#c)"><path clip-rule="evenodd" d="m47.8999 118.563c2.2757 0 4.1205-1.845 4.1205-4.121s-1.8448-4.12-4.1205-4.12c-2.2758 0-4.1206 1.844-4.1206 4.12s1.8448 4.121 4.1206 4.121zm-.0943-2.131 2.5213-3.675c.1005-.147.0098-.375-.1911-.375h-.5615c-.1711 0-.3274.087-.4234.227l-1.7689 2.579-.7391-1.078c-.0967-.142-.2548-.228-.4236-.228h-.5615c-.2009 0-.2915.228-.1911.375l1.4929 2.175c.0473.07.1101.127.1837.167.0736.039.1557.06.2392.06.0836 0 .1656-.021.2393-.06.0735-.04.1365-.097.1838-.167z" fill="#00977a" fill-rule="evenodd"/></g><path d="m57.7362 117.442 1.9696-5.892h1.434l1.9449 5.892h-1.1373l-.4698-1.459h-2.2498l-.4615 1.459zm2.6207-4.994-.8736 2.736h1.7389zm5.3031 5.077c-1.2362 0-2.1756-.808-2.1756-2.184v-.066c0-1.368.9724-2.234 2.1756-2.234.956 0 1.8543.429 1.9696 1.616h-.9642c-.0824-.577-.4615-.816-.9889-.816-.684 0-1.1702.527-1.1702 1.417v.066c0 .94.4615 1.434 1.1949 1.434.5275 0 .9807-.313 1.0384-.923h.9148c-.0742.989-.8241 1.69-1.9944 1.69zm4.32-.009c-.8571 0-1.3021-.461-1.3021-1.277v-2.357h-.5769v-.75h.5769v-.948h.9971v.948h.9478v.75h-.9478v2.266c0 .379.1814.552.4945.552.1978 0 .3461-.024.4862-.082v.791c-.1565.058-.3708.107-.6757.107zm2.0861-5.093c-.3296 0-.5933-.247-.5933-.568 0-.33.2637-.577.5933-.577.3297 0 .5934.247.5934.577 0 .321-.2637.568-.5934.568zm-.4862 5.019v-4.31h.9972v4.31zm3.3416 0-1.574-4.31h1.0713l1.1291 3.288 1.1125-3.288h.9807l-1.5576 4.31zm5.1929.083c-1.2692 0-2.1839-.833-2.1839-2.193v-.066c0-1.335.9147-2.225 2.1426-2.225 1.0714 0 2.0356.635 2.0356 2.176v.288h-3.1563c.0329.816.445 1.278 1.1867 1.278.6016 0 .9147-.239.9889-.659h.9642c-.1401.906-.8735 1.401-1.9778 1.401zm-1.1456-2.687h2.151c-.0495-.742-.4286-1.071-1.0467-1.071-.6016 0-1.0054.403-1.1043 1.071z" fill="#00977a"/></svg>